solid OpenSCAD_Model
  facet normal 0.959492 0.281737 0
    outer loop
      vertex -48.7845 -30 40
      vertex -48.8318 -29.8389 14
      vertex -48.8318 -29.8389 40
    endloop
  endfacet
  facet normal 0.959493 0.281734 -1.93432e-08
    outer loop
      vertex -48.3 -31.65 40
      vertex -48.8318 -29.8389 14
      vertex -48.7845 -30 40
    endloop
  endfacet
  facet normal 0.959493 0.281734 0
    outer loop
      vertex -48.8318 -29.8389 14
      vertex -48.3 -31.65 40
      vertex -48.3 -31.65 14
    endloop
  endfacet
  facet normal 0.142315 0.989821 -0
    outer loop
      vertex -50.2584 -28.6027 14
      vertex -52.1268 -28.3341 40
      vertex -50.2584 -28.6027 40
    endloop
  endfacet
  facet normal 0.142315 0.989821 0
    outer loop
      vertex -52.1268 -28.3341 40
      vertex -50.2584 -28.6027 14
      vertex -52.1268 -28.3341 14
    endloop
  endfacet
  facet normal 0.654861 0.755749 -0
    outer loop
      vertex -48.8318 -29.8389 14
      vertex -50 -28.8266 40
      vertex -48.8318 -29.8389 40
    endloop
  endfacet
  facet normal 0.654861 0.75575 -6.86141e-08
    outer loop
      vertex -50.2584 -28.6027 14
      vertex -50 -28.8266 40
      vertex -48.8318 -29.8389 14
    endloop
  endfacet
  facet normal 0.654857 0.755753 0
    outer loop
      vertex -50 -28.8266 40
      vertex -50.2584 -28.6027 14
      vertex -50.2584 -28.6027 40
    endloop
  endfacet
  facet normal 0 0 -1
    outer loop
      vertex 60 -40 40
      vertex 55 -33.5858 40
      vertex 60 40 40
    endloop
  endfacet
  facet normal 0 0 -1
    outer loop
      vertex 60 -40 40
      vertex 53.5858 -35 40
      vertex 55 -33.5858 40
    endloop
  endfacet
  facet normal 0 0 -1
    outer loop
      vertex 60 -40 40
      vertex -53.5858 -35 40
      vertex 53.5858 -35 40
    endloop
  endfacet
  facet normal -0 0 -1
    outer loop
      vertex -55 -33.5858 40
      vertex -60 -40 40
      vertex -55 33.5858 40
    endloop
  endfacet
  facet normal -0 0 -1
    outer loop
      vertex -53.5858 -35 40
      vertex -60 -40 40
      vertex -55 -33.5858 40
    endloop
  endfacet
  facet normal 0 0 -1
    outer loop
      vertex -60 -40 40
      vertex -53.5858 -35 40
      vertex 60 -40 40
    endloop
  endfacet
  facet normal 0 0 -1
    outer loop
      vertex 55 33.5858 40
      vertex 60 40 40
      vertex 55 -33.5858 40
    endloop
  endfacet
  facet normal 0 0 -1
    outer loop
      vertex 53.5858 35 40
      vertex 60 40 40
      vertex 55 33.5858 40
    endloop
  endfacet
  facet normal 0 0 -1
    outer loop
      vertex -53.5858 35 40
      vertex 60 40 40
      vertex 53.5858 35 40
    endloop
  endfacet
  facet normal 0 0 -1
    outer loop
      vertex -53.5858 35 40
      vertex -60 40 40
      vertex 60 40 40
    endloop
  endfacet
  facet normal 0 0 -1
    outer loop
      vertex -55 33.5858 40
      vertex -60 40 40
      vertex -53.5858 35 40
    endloop
  endfacet
  facet normal 0 0 -1
    outer loop
      vertex -60 40 40
      vertex -55 33.5858 40
      vertex -60 -40 40
    endloop
  endfacet
  facet normal 0 0 1
    outer loop
      vertex -50 -30 40
      vertex -48.8318 -29.8389 40
      vertex -50 -28.8266 40
    endloop
  endfacet
  facet normal 0 0 1
    outer loop
      vertex -48.8318 -29.8389 40
      vertex -50 -30 40
      vertex -48.7845 -30 40
    endloop
  endfacet
  facet normal 0 0 1
    outer loop
      vertex 50 30 40
      vertex 49.4562 29.1182 40
      vertex 50 28.8699 40
    endloop
  endfacet
  facet normal 0 -0 1
    outer loop
      vertex 49.4562 29.1182 40
      vertex 50 30 40
      vertex 48.8895 30 40
    endloop
  endfacet
  facet normal -0 0 1
    outer loop
      vertex -50 30 40
      vertex -48.8318 29.8389 40
      vertex -48.7845 30 40
    endloop
  endfacet
  facet normal 0 0 1
    outer loop
      vertex -48.8318 29.8389 40
      vertex -50 30 40
      vertex -50 28.8266 40
    endloop
  endfacet
  facet normal -0 0 1
    outer loop
      vertex 49.4562 -29.1182 40
      vertex 50 -30 40
      vertex 50 -28.8699 40
    endloop
  endfacet
  facet normal 0 0 1
    outer loop
      vertex 50 -30 40
      vertex 49.4562 -29.1182 40
      vertex 48.8895 -30 40
    endloop
  endfacet
  facet normal 0 0 -1
    outer loop
      vertex 48.4357 30.7062 40
      vertex -48.3 31.65 40
      vertex 48.4357 32.5938 40
    endloop
  endfacet
  facet normal 0 0 -1
    outer loop
      vertex -48.7845 30 40
      vertex 48.4357 30.7062 40
      vertex 48.8895 30 40
    endloop
  endfacet
  facet normal -0 0 -1
    outer loop
      vertex 48.4357 30.7062 40
      vertex -48.7845 30 40
      vertex -48.3 31.65 40
    endloop
  endfacet
  facet normal 0 0 -1
    outer loop
      vertex -48.6964 33 40
      vertex 48.4357 32.5938 40
      vertex -48.3 31.65 40
    endloop
  endfacet
  facet normal 0 0 -1
    outer loop
      vertex 48.4357 32.5938 40
      vertex -48.6964 33 40
      vertex 48.6967 33 40
    endloop
  endfacet
  facet normal 0 0 -1
    outer loop
      vertex 51.1732 -28.3341 40
      vertex 53 28.5967 40
      vertex 53 -28.5967 40
    endloop
  endfacet
  facet normal 0 0 -1
    outer loop
      vertex 51.1732 -28.3341 40
      vertex 51.1732 28.3341 40
      vertex 53 28.5967 40
    endloop
  endfacet
  facet normal 0 0 -1
    outer loop
      vertex 50 -28.8699 40
      vertex 51.1732 28.3341 40
      vertex 51.1732 -28.3341 40
    endloop
  endfacet
  facet normal -0 0 -1
    outer loop
      vertex 51.1732 28.3341 40
      vertex 50 -28.8699 40
      vertex 50 28.8699 40
    endloop
  endfacet
  facet normal 0 0 -1
    outer loop
      vertex 52.0672 30.3661 40
      vertex 52.0672 32.9339 40
      vertex 53 31.65 40
    endloop
  endfacet
  facet normal 0 0 -1
    outer loop
      vertex 50.5578 30.8565 40
      vertex 52.0672 32.9339 40
      vertex 52.0672 30.3661 40
    endloop
  endfacet
  facet normal 0 0 -1
    outer loop
      vertex 52.0672 32.9339 40
      vertex 50.5578 30.8565 40
      vertex 50.5578 32.4435 40
    endloop
  endfacet
  facet normal 0 0 -1
    outer loop
      vertex -50.2584 -28.6027 40
      vertex -50 28.8266 40
      vertex -50 -28.8266 40
    endloop
  endfacet
  facet normal 0 0 -1
    outer loop
      vertex -50.2584 -28.6027 40
      vertex -50.2584 28.6027 40
      vertex -50 28.8266 40
    endloop
  endfacet
  facet normal 0 0 -1
    outer loop
      vertex -52.1268 -28.3341 40
      vertex -50.2584 28.6027 40
      vertex -50.2584 -28.6027 40
    endloop
  endfacet
  facet normal 0 0 -1
    outer loop
      vertex -52.1268 -28.3341 40
      vertex -52.1268 28.3341 40
      vertex -50.2584 28.6027 40
    endloop
  endfacet
  facet normal 0 0 -1
    outer loop
      vertex -53 -28.7329 40
      vertex -52.1268 28.3341 40
      vertex -52.1268 -28.3341 40
    endloop
  endfacet
  facet normal -0 0 -1
    outer loop
      vertex -52.1268 28.3341 40
      vertex -53 -28.7329 40
      vertex -53 28.7329 40
    endloop
  endfacet
  facet normal 0 0 -1
    outer loop
      vertex -51.2328 30.3661 40
      vertex -51.2328 32.9339 40
      vertex -50.3 31.65 40
    endloop
  endfacet
  facet normal 0 0 -1
    outer loop
      vertex -52.7422 30.8565 40
      vertex -51.2328 32.9339 40
      vertex -51.2328 30.3661 40
    endloop
  endfacet
  facet normal 0 0 -1
    outer loop
      vertex -51.2328 32.9339 40
      vertex -52.7422 30.8565 40
      vertex -52.7422 32.4435 40
    endloop
  endfacet
  facet normal 0 0 -1
    outer loop
      vertex 48.4357 -32.5938 40
      vertex -48.3 -31.65 40
      vertex 48.4357 -30.7062 40
    endloop
  endfacet
  facet normal 0 0 -1
    outer loop
      vertex -48.6964 -33 40
      vertex 48.4357 -32.5938 40
      vertex 48.6967 -33 40
    endloop
  endfacet
  facet normal -0 0 -1
    outer loop
      vertex 48.4357 -32.5938 40
      vertex -48.6964 -33 40
      vertex -48.3 -31.65 40
    endloop
  endfacet
  facet normal 0 0 -1
    outer loop
      vertex -48.7845 -30 40
      vertex 48.4357 -30.7062 40
      vertex -48.3 -31.65 40
    endloop
  endfacet
  facet normal 0 0 -1
    outer loop
      vertex 48.4357 -30.7062 40
      vertex -48.7845 -30 40
      vertex 48.8895 -30 40
    endloop
  endfacet
  facet normal 0 0 -1
    outer loop
      vertex 52.0672 -32.9339 40
      vertex 52.0672 -30.3661 40
      vertex 53 -31.65 40
    endloop
  endfacet
  facet normal 0 0 -1
    outer loop
      vertex 50.5578 -32.4435 40
      vertex 52.0672 -30.3661 40
      vertex 52.0672 -32.9339 40
    endloop
  endfacet
  facet normal 0 0 -1
    outer loop
      vertex 52.0672 -30.3661 40
      vertex 50.5578 -32.4435 40
      vertex 50.5578 -30.8565 40
    endloop
  endfacet
  facet normal 0 0 -1
    outer loop
      vertex -51.2328 -32.9339 40
      vertex -51.2328 -30.3661 40
      vertex -50.3 -31.65 40
    endloop
  endfacet
  facet normal 0 0 -1
    outer loop
      vertex -52.7422 -32.4435 40
      vertex -51.2328 -30.3661 40
      vertex -51.2328 -32.9339 40
    endloop
  endfacet
  facet normal 0 0 -1
    outer loop
      vertex -51.2328 -30.3661 40
      vertex -52.7422 -32.4435 40
      vertex -52.7422 -30.8565 40
    endloop
  endfacet
  facet normal -0.415415 0.909632 0
    outer loop
      vertex -52.1268 -28.3341 14
      vertex -53 -28.7329 40
      vertex -52.1268 -28.3341 40
    endloop
  endfacet
  facet normal -0.415415 0.909632 0
    outer loop
      vertex -53 -28.7329 40
      vertex -52.1268 -28.3341 14
      vertex -53 -28.7329 14
    endloop
  endfacet
  facet normal 0.959493 -0.281733 0
    outer loop
      vertex -48.6964 -33 40
      vertex -48.3 -31.65 14
      vertex -48.3 -31.65 40
    endloop
  endfacet
  facet normal 0.959493 -0.281733 0
    outer loop
      vertex -48.3 -31.65 14
      vertex -48.6964 -33 40
      vertex -48.6964 -33 14
    endloop
  endfacet
  facet normal -0.809017 -0.587785 0
    outer loop
      vertex -50.3 -31.65 14
      vertex -51.2328 -30.3661 40
      vertex -51.2328 -30.3661 14
    endloop
  endfacet
  facet normal -0.809017 -0.587785 0
    outer loop
      vertex -51.2328 -30.3661 40
      vertex -50.3 -31.65 14
      vertex -50.3 -31.65 40
    endloop
  endfacet
  facet normal 1 -0 0
    outer loop
      vertex -52.7422 -32.4435 40
      vertex -52.7422 -30.8565 14
      vertex -52.7422 -30.8565 40
    endloop
  endfacet
  facet normal 1 0 0
    outer loop
      vertex -52.7422 -30.8565 14
      vertex -52.7422 -32.4435 40
      vertex -52.7422 -32.4435 14
    endloop
  endfacet
  facet normal 0.309018 -0.951056 0
    outer loop
      vertex -52.7422 -30.8565 14
      vertex -51.2328 -30.3661 40
      vertex -52.7422 -30.8565 40
    endloop
  endfacet
  facet normal 0.309018 -0.951056 0
    outer loop
      vertex -51.2328 -30.3661 40
      vertex -52.7422 -30.8565 14
      vertex -51.2328 -30.3661 14
    endloop
  endfacet
  facet normal 0.309018 0.951056 -0
    outer loop
      vertex -51.2328 -32.9339 14
      vertex -52.7422 -32.4435 40
      vertex -51.2328 -32.9339 40
    endloop
  endfacet
  facet normal 0.309018 0.951056 0
    outer loop
      vertex -52.7422 -32.4435 40
      vertex -51.2328 -32.9339 14
      vertex -52.7422 -32.4435 14
    endloop
  endfacet
  facet normal -0.809017 0.587785 0
    outer loop
      vertex -51.2328 -32.9339 14
      vertex -50.3 -31.65 40
      vertex -50.3 -31.65 14
    endloop
  endfacet
  facet normal -0.809017 0.587785 0
    outer loop
      vertex -50.3 -31.65 40
      vertex -51.2328 -32.9339 14
      vertex -51.2328 -32.9339 40
    endloop
  endfacet
  facet normal -1 0 0
    outer loop
      vertex 48.4357 -32.5938 14
      vertex 48.4357 -30.7062 40
      vertex 48.4357 -30.7062 14
    endloop
  endfacet
  facet normal -1 -0 0
    outer loop
      vertex 48.4357 -30.7062 40
      vertex 48.4357 -32.5938 14
      vertex 48.4357 -32.5938 40
    endloop
  endfacet
  facet normal 0.142315 0.989821 -0
    outer loop
      vertex 53 -28.5967 14
      vertex 51.1732 -28.3341 40
      vertex 53 -28.5967 40
    endloop
  endfacet
  facet normal 0.142315 0.989821 0
    outer loop
      vertex 51.1732 -28.3341 40
      vertex 53 -28.5967 14
      vertex 51.1732 -28.3341 14
    endloop
  endfacet
  facet normal -0.841253 0.540641 0
    outer loop
      vertex 49.4562 -29.1182 14
      vertex 48.8895 -30 40
      vertex 49.4562 -29.1182 40
    endloop
  endfacet
  facet normal -0.841253 0.540642 1.54937e-08
    outer loop
      vertex 48.4357 -30.7062 14
      vertex 48.8895 -30 40
      vertex 49.4562 -29.1182 14
    endloop
  endfacet
  facet normal -0.841253 0.540642 0
    outer loop
      vertex 48.8895 -30 40
      vertex 48.4357 -30.7062 14
      vertex 48.4357 -30.7062 40
    endloop
  endfacet
  facet normal -0.415415 0.909632 0
    outer loop
      vertex 51.1732 -28.3341 14
      vertex 50 -28.8699 40
      vertex 51.1732 -28.3341 40
    endloop
  endfacet
  facet normal -0.415416 0.909632 -4.99651e-08
    outer loop
      vertex 49.4562 -29.1182 14
      vertex 50 -28.8699 40
      vertex 51.1732 -28.3341 14
    endloop
  endfacet
  facet normal -0.415418 0.909631 0
    outer loop
      vertex 50 -28.8699 40
      vertex 49.4562 -29.1182 14
      vertex 49.4562 -29.1182 40
    endloop
  endfacet
  facet normal -0.841253 -0.540642 0
    outer loop
      vertex 48.6967 -33 14
      vertex 48.4357 -32.5938 40
      vertex 48.4357 -32.5938 14
    endloop
  endfacet
  facet normal -0.841253 -0.540642 0
    outer loop
      vertex 48.4357 -32.5938 40
      vertex 48.6967 -33 14
      vertex 48.6967 -33 40
    endloop
  endfacet
  facet normal -0.809017 -0.587785 0
    outer loop
      vertex 53 -31.65 14
      vertex 52.0672 -30.3661 40
      vertex 52.0672 -30.3661 14
    endloop
  endfacet
  facet normal -0.809017 -0.587785 0
    outer loop
      vertex 52.0672 -30.3661 40
      vertex 53 -31.65 14
      vertex 53 -31.65 40
    endloop
  endfacet
  facet normal 1 -0 0
    outer loop
      vertex 50.5578 -32.4435 40
      vertex 50.5578 -30.8565 14
      vertex 50.5578 -30.8565 40
    endloop
  endfacet
  facet normal 1 0 0
    outer loop
      vertex 50.5578 -30.8565 14
      vertex 50.5578 -32.4435 40
      vertex 50.5578 -32.4435 14
    endloop
  endfacet
  facet normal 0.309018 -0.951056 0
    outer loop
      vertex 50.5578 -30.8565 14
      vertex 52.0672 -30.3661 40
      vertex 50.5578 -30.8565 40
    endloop
  endfacet
  facet normal 0.309018 -0.951056 0
    outer loop
      vertex 52.0672 -30.3661 40
      vertex 50.5578 -30.8565 14
      vertex 52.0672 -30.3661 14
    endloop
  endfacet
  facet normal 0.309018 0.951056 -0
    outer loop
      vertex 52.0672 -32.9339 14
      vertex 50.5578 -32.4435 40
      vertex 52.0672 -32.9339 40
    endloop
  endfacet
  facet normal 0.309018 0.951056 0
    outer loop
      vertex 50.5578 -32.4435 40
      vertex 52.0672 -32.9339 14
      vertex 50.5578 -32.4435 14
    endloop
  endfacet
  facet normal -0.809017 0.587785 0
    outer loop
      vertex 52.0672 -32.9339 14
      vertex 53 -31.65 40
      vertex 53 -31.65 14
    endloop
  endfacet
  facet normal -0.809017 0.587785 0
    outer loop
      vertex 53 -31.65 40
      vertex 52.0672 -32.9339 14
      vertex 52.0672 -32.9339 40
    endloop
  endfacet
  facet normal 0.959493 0.281733 0
    outer loop
      vertex -48.3 31.65 40
      vertex -48.6964 33 14
      vertex -48.6964 33 40
    endloop
  endfacet
  facet normal 0.959493 0.281733 0
    outer loop
      vertex -48.6964 33 14
      vertex -48.3 31.65 40
      vertex -48.3 31.65 14
    endloop
  endfacet
  facet normal 0.142315 -0.989821 0
    outer loop
      vertex -52.1268 28.3341 14
      vertex -50.2584 28.6027 40
      vertex -52.1268 28.3341 40
    endloop
  endfacet
  facet normal 0.142315 -0.989821 0
    outer loop
      vertex -50.2584 28.6027 40
      vertex -52.1268 28.3341 14
      vertex -50.2584 28.6027 14
    endloop
  endfacet
  facet normal 0.959493 -0.281734 0
    outer loop
      vertex -48.7845 30 40
      vertex -48.3 31.65 14
      vertex -48.3 31.65 40
    endloop
  endfacet
  facet normal 0.959492 -0.281737 0
    outer loop
      vertex -48.8318 29.8389 14
      vertex -48.7845 30 40
      vertex -48.8318 29.8389 40
    endloop
  endfacet
  facet normal 0.959493 -0.281734 -1.76222e-08
    outer loop
      vertex -48.7845 30 40
      vertex -48.8318 29.8389 14
      vertex -48.3 31.65 14
    endloop
  endfacet
  facet normal 0.654857 -0.755753 0
    outer loop
      vertex -50.2584 28.6027 14
      vertex -50 28.8266 40
      vertex -50.2584 28.6027 40
    endloop
  endfacet
  facet normal 0.654861 -0.755749 -8.37889e-08
    outer loop
      vertex -50 28.8266 40
      vertex -50.2584 28.6027 14
      vertex -48.8318 29.8389 40
    endloop
  endfacet
  facet normal 0.654861 -0.75575 0
    outer loop
      vertex -48.8318 29.8389 40
      vertex -50.2584 28.6027 14
      vertex -48.8318 29.8389 14
    endloop
  endfacet
  facet normal -0.415415 -0.909632 0
    outer loop
      vertex -53 28.7329 14
      vertex -52.1268 28.3341 40
      vertex -53 28.7329 40
    endloop
  endfacet
  facet normal -0.415415 -0.909632 -0
    outer loop
      vertex -52.1268 28.3341 40
      vertex -53 28.7329 14
      vertex -52.1268 28.3341 14
    endloop
  endfacet
  facet normal -0.809017 -0.587785 0
    outer loop
      vertex -50.3 31.65 14
      vertex -51.2328 32.9339 40
      vertex -51.2328 32.9339 14
    endloop
  endfacet
  facet normal -0.809017 -0.587785 0
    outer loop
      vertex -51.2328 32.9339 40
      vertex -50.3 31.65 14
      vertex -50.3 31.65 40
    endloop
  endfacet
  facet normal 1 -0 0
    outer loop
      vertex -52.7422 30.8565 40
      vertex -52.7422 32.4435 14
      vertex -52.7422 32.4435 40
    endloop
  endfacet
  facet normal 1 0 0
    outer loop
      vertex -52.7422 32.4435 14
      vertex -52.7422 30.8565 40
      vertex -52.7422 30.8565 14
    endloop
  endfacet
  facet normal 0.309018 -0.951056 0
    outer loop
      vertex -52.7422 32.4435 14
      vertex -51.2328 32.9339 40
      vertex -52.7422 32.4435 40
    endloop
  endfacet
  facet normal 0.309018 -0.951056 0
    outer loop
      vertex -51.2328 32.9339 40
      vertex -52.7422 32.4435 14
      vertex -51.2328 32.9339 14
    endloop
  endfacet
  facet normal 0.309018 0.951056 -0
    outer loop
      vertex -51.2328 30.3661 14
      vertex -52.7422 30.8565 40
      vertex -51.2328 30.3661 40
    endloop
  endfacet
  facet normal 0.309018 0.951056 0
    outer loop
      vertex -52.7422 30.8565 40
      vertex -51.2328 30.3661 14
      vertex -52.7422 30.8565 14
    endloop
  endfacet
  facet normal -0.809017 0.587785 0
    outer loop
      vertex -51.2328 30.3661 14
      vertex -50.3 31.65 40
      vertex -50.3 31.65 14
    endloop
  endfacet
  facet normal -0.809017 0.587785 0
    outer loop
      vertex -50.3 31.65 40
      vertex -51.2328 30.3661 14
      vertex -51.2328 30.3661 40
    endloop
  endfacet
  facet normal -1 0 0
    outer loop
      vertex 48.4357 30.7062 14
      vertex 48.4357 32.5938 40
      vertex 48.4357 32.5938 14
    endloop
  endfacet
  facet normal -1 -0 0
    outer loop
      vertex 48.4357 32.5938 40
      vertex 48.4357 30.7062 14
      vertex 48.4357 30.7062 40
    endloop
  endfacet
  facet normal 0.142315 -0.989821 0
    outer loop
      vertex 51.1732 28.3341 14
      vertex 53 28.5967 40
      vertex 51.1732 28.3341 40
    endloop
  endfacet
  facet normal 0.142315 -0.989821 0
    outer loop
      vertex 53 28.5967 40
      vertex 51.1732 28.3341 14
      vertex 53 28.5967 14
    endloop
  endfacet
  facet normal -0.841253 0.540642 0
    outer loop
      vertex 48.4357 32.5938 14
      vertex 48.6967 33 40
      vertex 48.6967 33 14
    endloop
  endfacet
  facet normal -0.841253 0.540642 0
    outer loop
      vertex 48.6967 33 40
      vertex 48.4357 32.5938 14
      vertex 48.4357 32.5938 40
    endloop
  endfacet
  facet normal -0.841253 -0.540642 0
    outer loop
      vertex 48.4357 30.7062 14
      vertex 48.8895 30 40
      vertex 48.4357 30.7062 40
    endloop
  endfacet
  facet normal -0.841253 -0.540642 1.54937e-08
    outer loop
      vertex 49.4562 29.1182 14
      vertex 48.8895 30 40
      vertex 48.4357 30.7062 14
    endloop
  endfacet
  facet normal -0.841253 -0.540641 0
    outer loop
      vertex 48.8895 30 40
      vertex 49.4562 29.1182 14
      vertex 49.4562 29.1182 40
    endloop
  endfacet
  facet normal -0.415418 -0.909631 0
    outer loop
      vertex 49.4562 29.1182 14
      vertex 50 28.8699 40
      vertex 49.4562 29.1182 40
    endloop
  endfacet
  facet normal -0.415416 -0.909632 -4.99651e-08
    outer loop
      vertex 51.1732 28.3341 14
      vertex 50 28.8699 40
      vertex 49.4562 29.1182 14
    endloop
  endfacet
  facet normal -0.415415 -0.909632 0
    outer loop
      vertex 50 28.8699 40
      vertex 51.1732 28.3341 14
      vertex 51.1732 28.3341 40
    endloop
  endfacet
  facet normal -0.809017 -0.587785 0
    outer loop
      vertex 53 31.65 14
      vertex 52.0672 32.9339 40
      vertex 52.0672 32.9339 14
    endloop
  endfacet
  facet normal -0.809017 -0.587785 0
    outer loop
      vertex 52.0672 32.9339 40
      vertex 53 31.65 14
      vertex 53 31.65 40
    endloop
  endfacet
  facet normal 1 -0 0
    outer loop
      vertex 50.5578 30.8565 40
      vertex 50.5578 32.4435 14
      vertex 50.5578 32.4435 40
    endloop
  endfacet
  facet normal 1 0 0
    outer loop
      vertex 50.5578 32.4435 14
      vertex 50.5578 30.8565 40
      vertex 50.5578 30.8565 14
    endloop
  endfacet
  facet normal 0.309018 -0.951056 0
    outer loop
      vertex 50.5578 32.4435 14
      vertex 52.0672 32.9339 40
      vertex 50.5578 32.4435 40
    endloop
  endfacet
  facet normal 0.309018 -0.951056 0
    outer loop
      vertex 52.0672 32.9339 40
      vertex 50.5578 32.4435 14
      vertex 52.0672 32.9339 14
    endloop
  endfacet
  facet normal 0.309018 0.951056 -0
    outer loop
      vertex 52.0672 30.3661 14
      vertex 50.5578 30.8565 40
      vertex 52.0672 30.3661 40
    endloop
  endfacet
  facet normal 0.309018 0.951056 0
    outer loop
      vertex 50.5578 30.8565 40
      vertex 52.0672 30.3661 14
      vertex 50.5578 30.8565 14
    endloop
  endfacet
  facet normal -0.809017 0.587785 0
    outer loop
      vertex 52.0672 30.3661 14
      vertex 53 31.65 40
      vertex 53 31.65 14
    endloop
  endfacet
  facet normal -0.809017 0.587785 0
    outer loop
      vertex 53 31.65 40
      vertex 52.0672 30.3661 14
      vertex 52.0672 30.3661 40
    endloop
  endfacet
  facet normal -1 0 0
    outer loop
      vertex -55 -9 14
      vertex -55 -33.5858 14
      vertex -55 -9 26
    endloop
  endfacet
  facet normal -1 0 0
    outer loop
      vertex -55 9 26
      vertex -55 33.5858 14
      vertex -55 9 14
    endloop
  endfacet
  facet normal -1 0 0
    outer loop
      vertex -55 33.5858 14
      vertex -55 9 26
      vertex -55 33.5858 40
    endloop
  endfacet
  facet normal -1 0 0
    outer loop
      vertex -55 -9 26
      vertex -55 33.5858 40
      vertex -55 9 26
    endloop
  endfacet
  facet normal -1 0 0
    outer loop
      vertex -55 -9 26
      vertex -55 -33.5858 40
      vertex -55 33.5858 40
    endloop
  endfacet
  facet normal -1 0 0
    outer loop
      vertex -55 -33.5858 40
      vertex -55 -9 26
      vertex -55 -33.5858 14
    endloop
  endfacet
  facet normal 1 0 0
    outer loop
      vertex 55 33.5858 40
      vertex 55 9 26
      vertex 55 33.5858 14
    endloop
  endfacet
  facet normal 1 0 0
    outer loop
      vertex 55 33.5858 40
      vertex 55 -9 26
      vertex 55 9 26
    endloop
  endfacet
  facet normal 1 0 0
    outer loop
      vertex 55 -9 26
      vertex 55 -13.5247 20.4704
      vertex 55 -9 14
    endloop
  endfacet
  facet normal 1 0 0
    outer loop
      vertex 55 -9 26
      vertex 55 -14.1029 22.25
      vertex 55 -13.5247 20.4704
    endloop
  endfacet
  facet normal 1 0 0
    outer loop
      vertex 55 -9 26
      vertex 55 -15.355 23.6406
      vertex 55 -14.1029 22.25
    endloop
  endfacet
  facet normal 1 0 0
    outer loop
      vertex 55 -9 26
      vertex 55 -17.0644 24.4017
      vertex 55 -15.355 23.6406
    endloop
  endfacet
  facet normal 1 -0 0
    outer loop
      vertex 55 -33.5858 40
      vertex 55 -9 26
      vertex 55 33.5858 40
    endloop
  endfacet
  facet normal 1 0 0
    outer loop
      vertex 55 -9 26
      vertex 55 -33.5858 40
      vertex 55 -17.0644 24.4017
    endloop
  endfacet
  facet normal 1 0 0
    outer loop
      vertex 55 -33.5858 14
      vertex 55 -21.8971 22.25
      vertex 55 -33.5858 40
    endloop
  endfacet
  facet normal 1 0 0
    outer loop
      vertex 55 -20.645 23.6406
      vertex 55 -33.5858 40
      vertex 55 -21.8971 22.25
    endloop
  endfacet
  facet normal 1 0 0
    outer loop
      vertex 55 -18.9356 24.4017
      vertex 55 -33.5858 40
      vertex 55 -20.645 23.6406
    endloop
  endfacet
  facet normal 1 0 0
    outer loop
      vertex 55 -17.0644 24.4017
      vertex 55 -33.5858 40
      vertex 55 -18.9356 24.4017
    endloop
  endfacet
  facet normal 1 0 0
    outer loop
      vertex 55 33.5858 14
      vertex 55 9 26
      vertex 55 9 14
    endloop
  endfacet
  facet normal 1 -0 0
    outer loop
      vertex 55 -13.7202 18.6094
      vertex 55 -9 14
      vertex 55 -13.5247 20.4704
    endloop
  endfacet
  facet normal 1 -0 0
    outer loop
      vertex 55 -14.6558 16.9889
      vertex 55 -9 14
      vertex 55 -13.7202 18.6094
    endloop
  endfacet
  facet normal 1 -0 0
    outer loop
      vertex 55 -16.1697 15.889
      vertex 55 -9 14
      vertex 55 -14.6558 16.9889
    endloop
  endfacet
  facet normal 1 -0 0
    outer loop
      vertex 55 -18 15.5
      vertex 55 -9 14
      vertex 55 -16.1697 15.889
    endloop
  endfacet
  facet normal 1 0 0
    outer loop
      vertex 55 -21.8971 22.25
      vertex 55 -33.5858 14
      vertex 55 -22.4753 20.4704
    endloop
  endfacet
  facet normal 1 0 0
    outer loop
      vertex 55 -18 15.5
      vertex 55 -33.5858 14
      vertex 55 -9 14
    endloop
  endfacet
  facet normal 1 0 0
    outer loop
      vertex 55 -19.8303 15.889
      vertex 55 -33.5858 14
      vertex 55 -18 15.5
    endloop
  endfacet
  facet normal 1 0 0
    outer loop
      vertex 55 -21.3442 16.9889
      vertex 55 -33.5858 14
      vertex 55 -19.8303 15.889
    endloop
  endfacet
  facet normal 1 0 0
    outer loop
      vertex 55 -22.2798 18.6094
      vertex 55 -33.5858 14
      vertex 55 -21.3442 16.9889
    endloop
  endfacet
  facet normal 1 0 0
    outer loop
      vertex 55 -22.4753 20.4704
      vertex 55 -33.5858 14
      vertex 55 -22.2798 18.6094
    endloop
  endfacet
  facet normal 0 1 -0
    outer loop
      vertex 53.5858 35 14
      vertex -53.5858 35 40
      vertex 53.5858 35 40
    endloop
  endfacet
  facet normal 0 1 0
    outer loop
      vertex -53.5858 35 40
      vertex 53.5858 35 14
      vertex -53.5858 35 14
    endloop
  endfacet
  facet normal 0 -1 0
    outer loop
      vertex -53.5858 -35 14
      vertex 53.5858 -35 40
      vertex -53.5858 -35 40
    endloop
  endfacet
  facet normal 0 -1 -0
    outer loop
      vertex 53.5858 -35 40
      vertex -53.5858 -35 14
      vertex 53.5858 -35 14
    endloop
  endfacet
  facet normal 1 0 0
    outer loop
      vertex -53 28.7329 40
      vertex -53 9 26
      vertex -53 28.7329 14
    endloop
  endfacet
  facet normal 1 0 0
    outer loop
      vertex -53 28.7329 40
      vertex -53 -9 26
      vertex -53 9 26
    endloop
  endfacet
  facet normal 1 -0 0
    outer loop
      vertex -53 -28.7329 40
      vertex -53 -9 26
      vertex -53 28.7329 40
    endloop
  endfacet
  facet normal 1 0 0
    outer loop
      vertex -53 -28.7329 14
      vertex -53 -9 26
      vertex -53 -28.7329 40
    endloop
  endfacet
  facet normal 1 0 0
    outer loop
      vertex -53 -9 26
      vertex -53 -28.7329 14
      vertex -53 -9 14
    endloop
  endfacet
  facet normal 1 0 0
    outer loop
      vertex -53 28.7329 14
      vertex -53 9 26
      vertex -53 9 14
    endloop
  endfacet
  facet normal -1 0 0
    outer loop
      vertex 53 -9 14
      vertex 53 -13.5247 20.4704
      vertex 53 -9 26
    endloop
  endfacet
  facet normal -1 0 0
    outer loop
      vertex 53 -9 14
      vertex 53 -13.7202 18.6094
      vertex 53 -13.5247 20.4704
    endloop
  endfacet
  facet normal -1 0 0
    outer loop
      vertex 53 -9 14
      vertex 53 -14.6558 16.9889
      vertex 53 -13.7202 18.6094
    endloop
  endfacet
  facet normal -1 0 0
    outer loop
      vertex 53 -9 14
      vertex 53 -16.1697 15.889
      vertex 53 -14.6558 16.9889
    endloop
  endfacet
  facet normal -1 0 0
    outer loop
      vertex 53 -9 14
      vertex 53 -18 15.5
      vertex 53 -16.1697 15.889
    endloop
  endfacet
  facet normal -1 -0 0
    outer loop
      vertex 53 -22.2798 18.6094
      vertex 53 -28.5967 14
      vertex 53 -22.4753 20.4704
    endloop
  endfacet
  facet normal -1 -0 0
    outer loop
      vertex 53 -21.3442 16.9889
      vertex 53 -28.5967 14
      vertex 53 -22.2798 18.6094
    endloop
  endfacet
  facet normal -1 -0 0
    outer loop
      vertex 53 -19.8303 15.889
      vertex 53 -28.5967 14
      vertex 53 -21.3442 16.9889
    endloop
  endfacet
  facet normal -1 -0 0
    outer loop
      vertex 53 -18 15.5
      vertex 53 -28.5967 14
      vertex 53 -19.8303 15.889
    endloop
  endfacet
  facet normal -1 0 0
    outer loop
      vertex 53 -28.5967 14
      vertex 53 -18 15.5
      vertex 53 -9 14
    endloop
  endfacet
  facet normal -1 0 0
    outer loop
      vertex 53 9 26
      vertex 53 28.5967 14
      vertex 53 9 14
    endloop
  endfacet
  facet normal -1 0 0
    outer loop
      vertex 53 28.5967 14
      vertex 53 9 26
      vertex 53 28.5967 40
    endloop
  endfacet
  facet normal -1 0 0
    outer loop
      vertex 53 -9 26
      vertex 53 28.5967 40
      vertex 53 9 26
    endloop
  endfacet
  facet normal -1 0 0
    outer loop
      vertex 53 -14.1029 22.25
      vertex 53 -9 26
      vertex 53 -13.5247 20.4704
    endloop
  endfacet
  facet normal -1 0 0
    outer loop
      vertex 53 -15.355 23.6406
      vertex 53 -9 26
      vertex 53 -14.1029 22.25
    endloop
  endfacet
  facet normal -1 0 0
    outer loop
      vertex 53 -17.0644 24.4017
      vertex 53 -9 26
      vertex 53 -15.355 23.6406
    endloop
  endfacet
  facet normal -1 -0 0
    outer loop
      vertex 53 -9 26
      vertex 53 -17.0644 24.4017
      vertex 53 -28.5967 40
    endloop
  endfacet
  facet normal -1 0 0
    outer loop
      vertex 53 -28.5967 40
      vertex 53 -17.0644 24.4017
      vertex 53 -18.9356 24.4017
    endloop
  endfacet
  facet normal -1 0 0
    outer loop
      vertex 53 -28.5967 14
      vertex 53 -21.8971 22.25
      vertex 53 -22.4753 20.4704
    endloop
  endfacet
  facet normal -1 0 0
    outer loop
      vertex 53 -9 26
      vertex 53 -28.5967 40
      vertex 53 28.5967 40
    endloop
  endfacet
  facet normal -1 0 0
    outer loop
      vertex 53 -20.645 23.6406
      vertex 53 -28.5967 40
      vertex 53 -18.9356 24.4017
    endloop
  endfacet
  facet normal -1 0 0
    outer loop
      vertex 53 -21.8971 22.25
      vertex 53 -28.5967 40
      vertex 53 -20.645 23.6406
    endloop
  endfacet
  facet normal -1 0 0
    outer loop
      vertex 53 -28.5967 40
      vertex 53 -21.8971 22.25
      vertex 53 -28.5967 14
    endloop
  endfacet
  facet normal 0 1 -0
    outer loop
      vertex 48.6967 -33 14
      vertex -48.6964 -33 40
      vertex 48.6967 -33 40
    endloop
  endfacet
  facet normal 0 1 0
    outer loop
      vertex -48.6964 -33 40
      vertex 48.6967 -33 14
      vertex -48.6964 -33 14
    endloop
  endfacet
  facet normal 0 -1 0
    outer loop
      vertex -48.6964 33 14
      vertex 48.6967 33 40
      vertex -48.6964 33 40
    endloop
  endfacet
  facet normal 0 -1 -0
    outer loop
      vertex 48.6967 33 40
      vertex -48.6964 33 14
      vertex 48.6967 33 14
    endloop
  endfacet
  facet normal 0 0 -1
    outer loop
      vertex -55 -9 26
      vertex -53 9 26
      vertex -53 -9 26
    endloop
  endfacet
  facet normal -0 0 -1
    outer loop
      vertex -53 9 26
      vertex -55 -9 26
      vertex -55 9 26
    endloop
  endfacet
  facet normal 0 0 -1
    outer loop
      vertex 53 -9 26
      vertex 55 9 26
      vertex 55 -9 26
    endloop
  endfacet
  facet normal -0 0 -1
    outer loop
      vertex 55 9 26
      vertex 53 -9 26
      vertex 53 9 26
    endloop
  endfacet
  facet normal 0 -1 0
    outer loop
      vertex -55 9 14
      vertex -53 9 26
      vertex -55 9 26
    endloop
  endfacet
  facet normal 0 -1 -0
    outer loop
      vertex -53 9 26
      vertex -55 9 14
      vertex -53 9 14
    endloop
  endfacet
  facet normal 0 -1 0
    outer loop
      vertex 53 9 14
      vertex 55 9 26
      vertex 53 9 26
    endloop
  endfacet
  facet normal 0 -1 -0
    outer loop
      vertex 55 9 26
      vertex 53 9 14
      vertex 55 9 14
    endloop
  endfacet
  facet normal 0 0 -1
    outer loop
      vertex -50.3 31.65 14
      vertex -48.3 31.65 14
      vertex -48.8318 29.8389 14
    endloop
  endfacet
  facet normal 0 0 -1
    outer loop
      vertex 48.4357 32.5938 14
      vertex 50.5578 32.4435 14
      vertex 48.4357 30.7062 14
    endloop
  endfacet
  facet normal 0 0 -1
    outer loop
      vertex 50.5578 32.4435 14
      vertex 48.4357 32.5938 14
      vertex 48.6967 33 14
    endloop
  endfacet
  facet normal 0 0 -1
    outer loop
      vertex -55 9 14
      vertex -53 28.7329 14
      vertex -53 9 14
    endloop
  endfacet
  facet normal -0 0 -1
    outer loop
      vertex -53 28.7329 14
      vertex -55 9 14
      vertex -55 33.5858 14
    endloop
  endfacet
  facet normal 0 0 -1
    outer loop
      vertex -53 28.7329 14
      vertex -55 33.5858 14
      vertex -53.5858 35 14
    endloop
  endfacet
  facet normal 0 0 -1
    outer loop
      vertex -48.8318 29.8389 14
      vertex -51.2328 30.3661 14
      vertex -50.3 31.65 14
    endloop
  endfacet
  facet normal 0 0 -1
    outer loop
      vertex -52.1268 28.3341 14
      vertex -51.2328 30.3661 14
      vertex -50.2584 28.6027 14
    endloop
  endfacet
  facet normal 0 0 -1
    outer loop
      vertex -53 28.7329 14
      vertex -51.2328 30.3661 14
      vertex -52.1268 28.3341 14
    endloop
  endfacet
  facet normal 0 0 -1
    outer loop
      vertex -53.5858 35 14
      vertex -52.7422 30.8565 14
      vertex -53 28.7329 14
    endloop
  endfacet
  facet normal -0 0 -1
    outer loop
      vertex -51.2328 30.3661 14
      vertex -53 28.7329 14
      vertex -52.7422 30.8565 14
    endloop
  endfacet
  facet normal 0 0 -1
    outer loop
      vertex 53 28.5967 14
      vertex 52.0672 30.3661 14
      vertex 53 31.65 14
    endloop
  endfacet
  facet normal 0 0 -1
    outer loop
      vertex 51.1732 28.3341 14
      vertex 52.0672 30.3661 14
      vertex 53 28.5967 14
    endloop
  endfacet
  facet normal 0 0 -1
    outer loop
      vertex 51.1732 28.3341 14
      vertex 50.5578 30.8565 14
      vertex 52.0672 30.3661 14
    endloop
  endfacet
  facet normal 0 0 -1
    outer loop
      vertex 48.4357 30.7062 14
      vertex 50.5578 30.8565 14
      vertex 49.4562 29.1182 14
    endloop
  endfacet
  facet normal 0 0 -1
    outer loop
      vertex 49.4562 29.1182 14
      vertex 50.5578 30.8565 14
      vertex 51.1732 28.3341 14
    endloop
  endfacet
  facet normal 0 0 -1
    outer loop
      vertex 53 28.5967 14
      vertex 55 33.5858 14
      vertex 55 9 14
    endloop
  endfacet
  facet normal 0 0 -1
    outer loop
      vertex 53 28.5967 14
      vertex 55 9 14
      vertex 53 9 14
    endloop
  endfacet
  facet normal 0 0 -1
    outer loop
      vertex 53 31.65 14
      vertex 55 33.5858 14
      vertex 53 28.5967 14
    endloop
  endfacet
  facet normal 0 0 -1
    outer loop
      vertex 52.0672 32.9339 14
      vertex 55 33.5858 14
      vertex 53 31.65 14
    endloop
  endfacet
  facet normal -0 0 -1
    outer loop
      vertex 55 33.5858 14
      vertex 52.0672 32.9339 14
      vertex 53.5858 35 14
    endloop
  endfacet
  facet normal 0 0 -1
    outer loop
      vertex 48.6967 33 14
      vertex 52.0672 32.9339 14
      vertex 50.5578 32.4435 14
    endloop
  endfacet
  facet normal 0 0 -1
    outer loop
      vertex 48.4357 30.7062 14
      vertex 50.5578 32.4435 14
      vertex 50.5578 30.8565 14
    endloop
  endfacet
  facet normal 0 0 -1
    outer loop
      vertex 52.0672 32.9339 14
      vertex 48.6967 33 14
      vertex 53.5858 35 14
    endloop
  endfacet
  facet normal 0 0 -1
    outer loop
      vertex -48.6964 33 14
      vertex 53.5858 35 14
      vertex 48.6967 33 14
    endloop
  endfacet
  facet normal 0 0 -1
    outer loop
      vertex -51.2328 30.3661 14
      vertex -48.8318 29.8389 14
      vertex -50.2584 28.6027 14
    endloop
  endfacet
  facet normal 0 0 -1
    outer loop
      vertex -48.3 31.65 14
      vertex -50.3 31.65 14
      vertex -48.6964 33 14
    endloop
  endfacet
  facet normal 0 0 -1
    outer loop
      vertex -51.2328 32.9339 14
      vertex -48.6964 33 14
      vertex -50.3 31.65 14
    endloop
  endfacet
  facet normal 0 0 -1
    outer loop
      vertex -48.6964 33 14
      vertex -53.5858 35 14
      vertex 53.5858 35 14
    endloop
  endfacet
  facet normal 0 0 -1
    outer loop
      vertex -51.2328 32.9339 14
      vertex -53.5858 35 14
      vertex -48.6964 33 14
    endloop
  endfacet
  facet normal 0 0 -1
    outer loop
      vertex -52.7422 32.4435 14
      vertex -53.5858 35 14
      vertex -51.2328 32.9339 14
    endloop
  endfacet
  facet normal 0 0 -1
    outer loop
      vertex -52.7422 30.8565 14
      vertex -53.5858 35 14
      vertex -52.7422 32.4435 14
    endloop
  endfacet
  facet normal 0 0 -1
    outer loop
      vertex 52.0672 -30.3661 14
      vertex 53 -28.5967 14
      vertex 53 -31.65 14
    endloop
  endfacet
  facet normal 0 0 -1
    outer loop
      vertex 52.0672 -30.3661 14
      vertex 51.1732 -28.3341 14
      vertex 53 -28.5967 14
    endloop
  endfacet
  facet normal 0 0 -1
    outer loop
      vertex 50.5578 -30.8565 14
      vertex 51.1732 -28.3341 14
      vertex 52.0672 -30.3661 14
    endloop
  endfacet
  facet normal 0 0 -1
    outer loop
      vertex 51.1732 -28.3341 14
      vertex 50.5578 -30.8565 14
      vertex 49.4562 -29.1182 14
    endloop
  endfacet
  facet normal 0 0 -1
    outer loop
      vertex 55 -33.5858 14
      vertex 52.0672 -32.9339 14
      vertex 53 -31.65 14
    endloop
  endfacet
  facet normal 0 0 -1
    outer loop
      vertex 48.6967 -33 14
      vertex 52.0672 -32.9339 14
      vertex 53.5858 -35 14
    endloop
  endfacet
  facet normal 0 0 -1
    outer loop
      vertex 48.4357 -30.7062 14
      vertex 50.5578 -30.8565 14
      vertex 50.5578 -32.4435 14
    endloop
  endfacet
  facet normal 0 0 -1
    outer loop
      vertex 48.4357 -32.5938 14
      vertex 50.5578 -32.4435 14
      vertex 48.6967 -33 14
    endloop
  endfacet
  facet normal -0 0 -1
    outer loop
      vertex 52.0672 -32.9339 14
      vertex 48.6967 -33 14
      vertex 50.5578 -32.4435 14
    endloop
  endfacet
  facet normal 0 0 -1
    outer loop
      vertex 53.5858 -35 14
      vertex -48.6964 -33 14
      vertex 48.6967 -33 14
    endloop
  endfacet
  facet normal 0 0 -1
    outer loop
      vertex -48.3 -31.65 14
      vertex -50.3 -31.65 14
      vertex -48.8318 -29.8389 14
    endloop
  endfacet
  facet normal 0 0 -1
    outer loop
      vertex -51.2328 -30.3661 14
      vertex -48.8318 -29.8389 14
      vertex -50.3 -31.65 14
    endloop
  endfacet
  facet normal 0 0 -1
    outer loop
      vertex -48.6964 -33 14
      vertex -51.2328 -32.9339 14
      vertex -50.3 -31.65 14
    endloop
  endfacet
  facet normal 0 0 -1
    outer loop
      vertex -55 -33.5858 14
      vertex -52.7422 -30.8565 14
      vertex -52.7422 -32.4435 14
    endloop
  endfacet
  facet normal 0 0 -1
    outer loop
      vertex -53.5858 -35 14
      vertex -48.6964 -33 14
      vertex 53.5858 -35 14
    endloop
  endfacet
  facet normal 0 0 -1
    outer loop
      vertex -53.5858 -35 14
      vertex -51.2328 -32.9339 14
      vertex -48.6964 -33 14
    endloop
  endfacet
  facet normal 0 0 -1
    outer loop
      vertex -53.5858 -35 14
      vertex -52.7422 -32.4435 14
      vertex -51.2328 -32.9339 14
    endloop
  endfacet
  facet normal 0 0 -1
    outer loop
      vertex -55 -33.5858 14
      vertex -52.7422 -32.4435 14
      vertex -53.5858 -35 14
    endloop
  endfacet
  facet normal -0 0 -1
    outer loop
      vertex -52.7422 -30.8565 14
      vertex -55 -33.5858 14
      vertex -53 -28.7329 14
    endloop
  endfacet
  facet normal 0 0 -1
    outer loop
      vertex -55 -9 14
      vertex -53 -28.7329 14
      vertex -55 -33.5858 14
    endloop
  endfacet
  facet normal 0 0 -1
    outer loop
      vertex -53 -28.7329 14
      vertex -55 -9 14
      vertex -53 -9 14
    endloop
  endfacet
  facet normal 0 0 -1
    outer loop
      vertex 52.0672 -32.9339 14
      vertex 55 -33.5858 14
      vertex 53.5858 -35 14
    endloop
  endfacet
  facet normal 0 0 -1
    outer loop
      vertex 55 -33.5858 14
      vertex 53 -31.65 14
      vertex 53 -28.5967 14
    endloop
  endfacet
  facet normal 0 0 -1
    outer loop
      vertex 55 -33.5858 14
      vertex 53 -28.5967 14
      vertex 55 -9 14
    endloop
  endfacet
  facet normal -0 0 -1
    outer loop
      vertex 55 -9 14
      vertex 53 -28.5967 14
      vertex 53 -9 14
    endloop
  endfacet
  facet normal -0 0 -1
    outer loop
      vertex 50.5578 -32.4435 14
      vertex 48.4357 -32.5938 14
      vertex 48.4357 -30.7062 14
    endloop
  endfacet
  facet normal 0 0 -1
    outer loop
      vertex 50.5578 -30.8565 14
      vertex 48.4357 -30.7062 14
      vertex 49.4562 -29.1182 14
    endloop
  endfacet
  facet normal 0 0 -1
    outer loop
      vertex -50.3 -31.65 14
      vertex -48.3 -31.65 14
      vertex -48.6964 -33 14
    endloop
  endfacet
  facet normal -0 0 -1
    outer loop
      vertex -48.8318 -29.8389 14
      vertex -51.2328 -30.3661 14
      vertex -50.2584 -28.6027 14
    endloop
  endfacet
  facet normal 0 0 -1
    outer loop
      vertex -51.2328 -30.3661 14
      vertex -52.1268 -28.3341 14
      vertex -50.2584 -28.6027 14
    endloop
  endfacet
  facet normal 0 0 -1
    outer loop
      vertex -53 -28.7329 14
      vertex -51.2328 -30.3661 14
      vertex -52.7422 -30.8565 14
    endloop
  endfacet
  facet normal 0 0 -1
    outer loop
      vertex -51.2328 -30.3661 14
      vertex -53 -28.7329 14
      vertex -52.1268 -28.3341 14
    endloop
  endfacet
  facet normal 0 1 -0
    outer loop
      vertex -53 -9 14
      vertex -55 -9 26
      vertex -53 -9 26
    endloop
  endfacet
  facet normal 0 1 0
    outer loop
      vertex -55 -9 26
      vertex -53 -9 14
      vertex -55 -9 14
    endloop
  endfacet
  facet normal 0 1 -0
    outer loop
      vertex 55 -9 14
      vertex 53 -9 26
      vertex 55 -9 26
    endloop
  endfacet
  facet normal 0 1 0
    outer loop
      vertex 53 -9 26
      vertex 55 -9 14
      vertex 53 -9 14
    endloop
  endfacet
  facet normal 0 -0.207911 0.978148
    outer loop
      vertex 53 -16.1697 15.889
      vertex 55 -18 15.5
      vertex 55 -16.1697 15.889
    endloop
  endfacet
  facet normal 0 -0.207911 0.978148
    outer loop
      vertex 55 -18 15.5
      vertex 53 -16.1697 15.889
      vertex 53 -18 15.5
    endloop
  endfacet
  facet normal 0 0 -1
    outer loop
      vertex 53 -18.9356 24.4017
      vertex 55 -17.0644 24.4017
      vertex 55 -18.9356 24.4017
    endloop
  endfacet
  facet normal -0 0 -1
    outer loop
      vertex 55 -17.0644 24.4017
      vertex 53 -18.9356 24.4017
      vertex 53 -17.0644 24.4017
    endloop
  endfacet
  facet normal 0 -0.587785 0.809017
    outer loop
      vertex 53 -14.6558 16.9889
      vertex 55 -16.1697 15.889
      vertex 55 -14.6558 16.9889
    endloop
  endfacet
  facet normal 0 -0.587785 0.809017
    outer loop
      vertex 55 -16.1697 15.889
      vertex 53 -14.6558 16.9889
      vertex 53 -16.1697 15.889
    endloop
  endfacet
  facet normal 0 -0.866026 0.5
    outer loop
      vertex 53 -14.6558 16.9889
      vertex 55 -13.7202 18.6094
      vertex 53 -13.7202 18.6094
    endloop
  endfacet
  facet normal 0 -0.866026 0.5
    outer loop
      vertex 55 -13.7202 18.6094
      vertex 53 -14.6558 16.9889
      vertex 55 -14.6558 16.9889
    endloop
  endfacet
  facet normal 0 -0.951056 -0.309017
    outer loop
      vertex 53 -13.5247 20.4704
      vertex 55 -14.1029 22.25
      vertex 53 -14.1029 22.25
    endloop
  endfacet
  facet normal 0 -0.951056 -0.309017
    outer loop
      vertex 55 -14.1029 22.25
      vertex 53 -13.5247 20.4704
      vertex 55 -13.5247 20.4704
    endloop
  endfacet
  facet normal 0 -0.743145 -0.669131
    outer loop
      vertex 53 -14.1029 22.25
      vertex 55 -15.355 23.6406
      vertex 53 -15.355 23.6406
    endloop
  endfacet
  facet normal 0 -0.743145 -0.669131
    outer loop
      vertex 55 -15.355 23.6406
      vertex 53 -14.1029 22.25
      vertex 55 -14.1029 22.25
    endloop
  endfacet
  facet normal 0 -0.994522 0.104529
    outer loop
      vertex 53 -13.7202 18.6094
      vertex 55 -13.5247 20.4704
      vertex 53 -13.5247 20.4704
    endloop
  endfacet
  facet normal 0 -0.994522 0.104529
    outer loop
      vertex 55 -13.5247 20.4704
      vertex 53 -13.7202 18.6094
      vertex 55 -13.7202 18.6094
    endloop
  endfacet
  facet normal 0 -0.406737 -0.913545
    outer loop
      vertex 53 -17.0644 24.4017
      vertex 55 -15.355 23.6406
      vertex 55 -17.0644 24.4017
    endloop
  endfacet
  facet normal -0 -0.406737 -0.913545
    outer loop
      vertex 55 -15.355 23.6406
      vertex 53 -17.0644 24.4017
      vertex 53 -15.355 23.6406
    endloop
  endfacet
  facet normal 0 0.743145 -0.66913
    outer loop
      vertex 55 -21.8971 22.25
      vertex 53 -20.645 23.6406
      vertex 55 -20.645 23.6406
    endloop
  endfacet
  facet normal 0 0.743145 -0.66913
    outer loop
      vertex 53 -20.645 23.6406
      vertex 55 -21.8971 22.25
      vertex 53 -21.8971 22.25
    endloop
  endfacet
  facet normal 0 0.866026 0.5
    outer loop
      vertex 55 -21.3442 16.9889
      vertex 53 -22.2798 18.6094
      vertex 55 -22.2798 18.6094
    endloop
  endfacet
  facet normal 0 0.866026 0.5
    outer loop
      vertex 53 -22.2798 18.6094
      vertex 55 -21.3442 16.9889
      vertex 53 -21.3442 16.9889
    endloop
  endfacet
  facet normal -0 0.587785 0.809017
    outer loop
      vertex 53 -19.8303 15.889
      vertex 55 -21.3442 16.9889
      vertex 55 -19.8303 15.889
    endloop
  endfacet
  facet normal 0 0.587785 0.809017
    outer loop
      vertex 55 -21.3442 16.9889
      vertex 53 -19.8303 15.889
      vertex 53 -21.3442 16.9889
    endloop
  endfacet
  facet normal -0 0.207911 0.978148
    outer loop
      vertex 53 -18 15.5
      vertex 55 -19.8303 15.889
      vertex 55 -18 15.5
    endloop
  endfacet
  facet normal 0 0.207911 0.978148
    outer loop
      vertex 55 -19.8303 15.889
      vertex 53 -18 15.5
      vertex 53 -19.8303 15.889
    endloop
  endfacet
  facet normal 0 0.994522 0.104529
    outer loop
      vertex 55 -22.2798 18.6094
      vertex 53 -22.4753 20.4704
      vertex 55 -22.4753 20.4704
    endloop
  endfacet
  facet normal 0 0.994522 0.104529
    outer loop
      vertex 53 -22.4753 20.4704
      vertex 55 -22.2798 18.6094
      vertex 53 -22.2798 18.6094
    endloop
  endfacet
  facet normal 0 0.951056 -0.309018
    outer loop
      vertex 55 -22.4753 20.4704
      vertex 53 -21.8971 22.25
      vertex 55 -21.8971 22.25
    endloop
  endfacet
  facet normal 0 0.951056 -0.309018
    outer loop
      vertex 53 -21.8971 22.25
      vertex 55 -22.4753 20.4704
      vertex 53 -22.4753 20.4704
    endloop
  endfacet
  facet normal 0 0.406737 -0.913545
    outer loop
      vertex 53 -20.645 23.6406
      vertex 55 -18.9356 24.4017
      vertex 55 -20.645 23.6406
    endloop
  endfacet
  facet normal 0 0.406737 -0.913545
    outer loop
      vertex 55 -18.9356 24.4017
      vertex 53 -20.645 23.6406
      vertex 53 -18.9356 24.4017
    endloop
  endfacet
  facet normal -0.707107 -0.707107 0
    outer loop
      vertex -53.5858 -35 14
      vertex -55 -33.5858 40
      vertex -55 -33.5858 14
    endloop
  endfacet
  facet normal -0.707107 -0.707107 0
    outer loop
      vertex -55 -33.5858 40
      vertex -53.5858 -35 14
      vertex -53.5858 -35 40
    endloop
  endfacet
  facet normal 0.707107 -0.707107 0
    outer loop
      vertex 53.5858 -35 40
      vertex 55 -33.5858 14
      vertex 55 -33.5858 40
    endloop
  endfacet
  facet normal 0.707107 -0.707107 0
    outer loop
      vertex 55 -33.5858 14
      vertex 53.5858 -35 40
      vertex 53.5858 -35 14
    endloop
  endfacet
  facet normal -0.707107 0.707107 0
    outer loop
      vertex -55 33.5858 14
      vertex -53.5858 35 40
      vertex -53.5858 35 14
    endloop
  endfacet
  facet normal -0.707107 0.707107 0
    outer loop
      vertex -53.5858 35 40
      vertex -55 33.5858 14
      vertex -55 33.5858 40
    endloop
  endfacet
  facet normal 0.707107 0.707107 0
    outer loop
      vertex 55 33.5858 40
      vertex 53.5858 35 14
      vertex 53.5858 35 40
    endloop
  endfacet
  facet normal 0.707107 0.707107 0
    outer loop
      vertex 53.5858 35 14
      vertex 55 33.5858 40
      vertex 55 33.5858 14
    endloop
  endfacet
  facet normal -1 0 0
    outer loop
      vertex -60 -40 40
      vertex -60 40 47
      vertex -60 40 40
    endloop
  endfacet
  facet normal -1 -0 0
    outer loop
      vertex -60 40 47
      vertex -60 -40 40
      vertex -60 -40 47
    endloop
  endfacet
  facet normal 0 0 1
    outer loop
      vertex 60 40 47
      vertex 50 30 47
      vertex 60 -40 47
    endloop
  endfacet
  facet normal 0 0 1
    outer loop
      vertex 60 40 47
      vertex -50 30 47
      vertex 50 30 47
    endloop
  endfacet
  facet normal 0 0 1
    outer loop
      vertex -50 30 47
      vertex -60 40 47
      vertex -50 -30 47
    endloop
  endfacet
  facet normal -0 0 1
    outer loop
      vertex -60 40 47
      vertex -50 30 47
      vertex 60 40 47
    endloop
  endfacet
  facet normal -0 0 1
    outer loop
      vertex 50 -30 47
      vertex 60 -40 47
      vertex 50 30 47
    endloop
  endfacet
  facet normal -0 0 1
    outer loop
      vertex -50 -30 47
      vertex 60 -40 47
      vertex 50 -30 47
    endloop
  endfacet
  facet normal 0 0 1
    outer loop
      vertex -50 -30 47
      vertex -60 -40 47
      vertex 60 -40 47
    endloop
  endfacet
  facet normal 0 0 1
    outer loop
      vertex -60 -40 47
      vertex -50 -30 47
      vertex -60 40 47
    endloop
  endfacet
  facet normal 1 -0 0
    outer loop
      vertex 60 -40 47
      vertex 60 40 40
      vertex 60 40 47
    endloop
  endfacet
  facet normal 1 0 0
    outer loop
      vertex 60 40 40
      vertex 60 -40 47
      vertex 60 -40 40
    endloop
  endfacet
  facet normal 0 1 -0
    outer loop
      vertex 60 40 40
      vertex -60 40 47
      vertex 60 40 47
    endloop
  endfacet
  facet normal 0 1 0
    outer loop
      vertex -60 40 47
      vertex 60 40 40
      vertex -60 40 40
    endloop
  endfacet
  facet normal 0 -1 0
    outer loop
      vertex -60 -40 40
      vertex 60 -40 47
      vertex -60 -40 47
    endloop
  endfacet
  facet normal 0 -1 -0
    outer loop
      vertex 60 -40 47
      vertex -60 -40 40
      vertex 60 -40 40
    endloop
  endfacet
  facet normal 1 0 0
    outer loop
      vertex -50 30 47
      vertex -50 28.8266 40
      vertex -50 30 40
    endloop
  endfacet
  facet normal 1 0 0
    outer loop
      vertex -50 30 47
      vertex -50 -28.8266 40
      vertex -50 28.8266 40
    endloop
  endfacet
  facet normal 1 -0 0
    outer loop
      vertex -50 -30 47
      vertex -50 -28.8266 40
      vertex -50 30 47
    endloop
  endfacet
  facet normal 1 0 0
    outer loop
      vertex -50 -28.8266 40
      vertex -50 -30 47
      vertex -50 -30 40
    endloop
  endfacet
  facet normal -1 0 0
    outer loop
      vertex 50 28.8699 40
      vertex 50 30 47
      vertex 50 30 40
    endloop
  endfacet
  facet normal -1 0 0
    outer loop
      vertex 50 -28.8699 40
      vertex 50 30 47
      vertex 50 28.8699 40
    endloop
  endfacet
  facet normal -1 0 0
    outer loop
      vertex 50 -30 47
      vertex 50 -28.8699 40
      vertex 50 -30 40
    endloop
  endfacet
  facet normal -1 0 0
    outer loop
      vertex 50 -28.8699 40
      vertex 50 -30 47
      vertex 50 30 47
    endloop
  endfacet
  facet normal 0 -1 0
    outer loop
      vertex -48.7845 30 40
      vertex -50 30 47
      vertex -50 30 40
    endloop
  endfacet
  facet normal 0 -1 0
    outer loop
      vertex -50 30 47
      vertex -48.7845 30 40
      vertex 50 30 47
    endloop
  endfacet
  facet normal 0 -1 0
    outer loop
      vertex 48.8895 30 40
      vertex 50 30 47
      vertex -48.7845 30 40
    endloop
  endfacet
  facet normal 0 -1 -0
    outer loop
      vertex 50 30 47
      vertex 48.8895 30 40
      vertex 50 30 40
    endloop
  endfacet
  facet normal 0 1 0
    outer loop
      vertex 48.8895 -30 40
      vertex 50 -30 47
      vertex 50 -30 40
    endloop
  endfacet
  facet normal 0 1 0
    outer loop
      vertex -48.7845 -30 40
      vertex 50 -30 47
      vertex 48.8895 -30 40
    endloop
  endfacet
  facet normal 0 1 0
    outer loop
      vertex 50 -30 47
      vertex -48.7845 -30 40
      vertex -50 -30 47
    endloop
  endfacet
  facet normal 0 1 0
    outer loop
      vertex -50 -30 47
      vertex -48.7845 -30 40
      vertex -50 -30 40
    endloop
  endfacet
endsolid OpenSCAD_Model
