solid OpenSCAD_Model
  facet normal -1 0 0
    outer loop
      vertex -55 -33.5858 40
      vertex -55 33.5858 42
      vertex -55 33.5858 40
    endloop
  endfacet
  facet normal -1 -0 0
    outer loop
      vertex -55 33.5858 42
      vertex -55 -33.5858 40
      vertex -55 -33.5858 42
    endloop
  endfacet
  facet normal 0 0 1
    outer loop
      vertex -43 16.5 42
      vertex -52.7422 30.8565 42
      vertex -43 -16.5 42
    endloop
  endfacet
  facet normal 0 0 1
    outer loop
      vertex -43 -16.5 42
      vertex -51.2328 -30.3661 42
      vertex -50.3 -31.65 42
    endloop
  endfacet
  facet normal 0 0 1
    outer loop
      vertex -52.7422 -30.8565 42
      vertex -43 -16.5 42
      vertex -52.7422 30.8565 42
    endloop
  endfacet
  facet normal 0 0 1
    outer loop
      vertex -43 -16.5 42
      vertex -52.7422 -30.8565 42
      vertex -51.2328 -30.3661 42
    endloop
  endfacet
  facet normal 0 0 1
    outer loop
      vertex 19.4868 5.06467 42
      vertex 12.2132 5.06467 42
      vertex 19.4868 -5.06467 42
    endloop
  endfacet
  facet normal 0 0 1
    outer loop
      vertex 19.4868 -5.06467 42
      vertex 13.1683 -6.71889 42
      vertex 13.5 -8.6 42
    endloop
  endfacet
  facet normal 0 0 1
    outer loop
      vertex 12.2132 -5.06467 42
      vertex 19.4868 -5.06467 42
      vertex 12.2132 5.06467 42
    endloop
  endfacet
  facet normal 0 0 1
    outer loop
      vertex 19.4868 -5.06467 42
      vertex 12.2132 -5.06467 42
      vertex 13.1683 -6.71889 42
    endloop
  endfacet
  facet normal -0 0 1
    outer loop
      vertex 10.75 3.83686 42
      vertex 12.2132 -5.06467 42
      vertex 12.2132 5.06467 42
    endloop
  endfacet
  facet normal 0 0 1
    outer loop
      vertex 10.75 3.83686 42
      vertex 10.75 -3.83686 42
      vertex 12.2132 -5.06467 42
    endloop
  endfacet
  facet normal -0 0 1
    outer loop
      vertex 8.95506 3.18356 42
      vertex 10.75 -3.83686 42
      vertex 10.75 3.83686 42
    endloop
  endfacet
  facet normal 0 0 1
    outer loop
      vertex 8.95506 3.18356 42
      vertex 8.95506 -3.18356 42
      vertex 10.75 -3.83686 42
    endloop
  endfacet
  facet normal -0 0 1
    outer loop
      vertex 7.04493 3.18356 42
      vertex 8.95506 -3.18356 42
      vertex 8.95506 3.18356 42
    endloop
  endfacet
  facet normal 0 0 1
    outer loop
      vertex 7.04493 3.18356 42
      vertex 7.04493 -3.18356 42
      vertex 8.95506 -3.18356 42
    endloop
  endfacet
  facet normal 0 0 1
    outer loop
      vertex 5.25 3.83686 42
      vertex 7.04493 -3.18356 42
      vertex 7.04493 3.18356 42
    endloop
  endfacet
  facet normal 0 0 1
    outer loop
      vertex 5.25 3.83686 42
      vertex 5.25 -3.83686 42
      vertex 7.04493 -3.18356 42
    endloop
  endfacet
  facet normal 0 0 1
    outer loop
      vertex 3.78676 5.06467 42
      vertex 5.25 -3.83686 42
      vertex 5.25 3.83686 42
    endloop
  endfacet
  facet normal 0 0 1
    outer loop
      vertex 3.78676 5.06467 42
      vertex 3.78676 -5.06467 42
      vertex 5.25 -3.83686 42
    endloop
  endfacet
  facet normal 0 0 1
    outer loop
      vertex 2.83169 6.71889 42
      vertex 3.78676 -5.06467 42
      vertex 3.78676 5.06467 42
    endloop
  endfacet
  facet normal 0 0 1
    outer loop
      vertex 2.83169 6.71889 42
      vertex 2.83169 -6.71889 42
      vertex 3.78676 -5.06467 42
    endloop
  endfacet
  facet normal 0 0 1
    outer loop
      vertex 0 16.5 42
      vertex 2.83169 6.71889 42
      vertex 2.5 8.6 42
    endloop
  endfacet
  facet normal 0 0 1
    outer loop
      vertex 2.83169 6.71889 42
      vertex 0 16.5 42
      vertex 2.83169 -6.71889 42
    endloop
  endfacet
  facet normal -0 0 1
    outer loop
      vertex 28.8683 -6.71889 42
      vertex 52.0672 -30.3661 42
      vertex 28.8683 6.71889 42
    endloop
  endfacet
  facet normal 0 0 1
    outer loop
      vertex 52.0672 -30.3661 42
      vertex 28.8683 -6.71889 42
      vertex 29.2 -8.6 42
    endloop
  endfacet
  facet normal -0 0 1
    outer loop
      vertex 27.9132 5.06467 42
      vertex 28.8683 -6.71889 42
      vertex 28.8683 6.71889 42
    endloop
  endfacet
  facet normal 0 0 1
    outer loop
      vertex 27.9132 5.06467 42
      vertex 27.9132 -5.06467 42
      vertex 28.8683 -6.71889 42
    endloop
  endfacet
  facet normal -0 0 1
    outer loop
      vertex 26.45 3.83686 42
      vertex 27.9132 -5.06467 42
      vertex 27.9132 5.06467 42
    endloop
  endfacet
  facet normal 0 0 1
    outer loop
      vertex 26.45 3.83686 42
      vertex 26.45 -3.83686 42
      vertex 27.9132 -5.06467 42
    endloop
  endfacet
  facet normal -0 0 1
    outer loop
      vertex 24.6551 3.18356 42
      vertex 26.45 -3.83686 42
      vertex 26.45 3.83686 42
    endloop
  endfacet
  facet normal 0 0 1
    outer loop
      vertex 24.6551 3.18356 42
      vertex 24.6551 -3.18356 42
      vertex 26.45 -3.83686 42
    endloop
  endfacet
  facet normal -0 0 1
    outer loop
      vertex 22.7449 3.18356 42
      vertex 24.6551 -3.18356 42
      vertex 24.6551 3.18356 42
    endloop
  endfacet
  facet normal 0 0 1
    outer loop
      vertex 22.7449 3.18356 42
      vertex 22.7449 -3.18356 42
      vertex 24.6551 -3.18356 42
    endloop
  endfacet
  facet normal 0 0 1
    outer loop
      vertex 20.95 3.83686 42
      vertex 22.7449 -3.18356 42
      vertex 22.7449 3.18356 42
    endloop
  endfacet
  facet normal 0 0 1
    outer loop
      vertex 20.95 3.83686 42
      vertex 20.95 -3.83686 42
      vertex 22.7449 -3.18356 42
    endloop
  endfacet
  facet normal 0 0 1
    outer loop
      vertex 19.4868 5.06467 42
      vertex 20.95 -3.83686 42
      vertex 20.95 3.83686 42
    endloop
  endfacet
  facet normal 0 0 1
    outer loop
      vertex 19.4868 5.06467 42
      vertex 19.4868 -5.06467 42
      vertex 20.95 -3.83686 42
    endloop
  endfacet
  facet normal 0 0 1
    outer loop
      vertex 13.1683 6.71889 42
      vertex 18.5317 6.71889 42
      vertex 13.5 8.6 42
    endloop
  endfacet
  facet normal 0 0 1
    outer loop
      vertex 18.5317 6.71889 42
      vertex 13.1683 6.71889 42
      vertex 19.4868 5.06467 42
    endloop
  endfacet
  facet normal -0 0 1
    outer loop
      vertex 13.5 8.6 42
      vertex 18.5317 6.71889 42
      vertex 18.2 8.6 42
    endloop
  endfacet
  facet normal 0 0 1
    outer loop
      vertex 12.2132 5.06467 42
      vertex 19.4868 5.06467 42
      vertex 13.1683 6.71889 42
    endloop
  endfacet
  facet normal -0 0 1
    outer loop
      vertex 52.0672 -30.3661 42
      vertex 55 -33.5858 42
      vertex 52.0672 30.3661 42
    endloop
  endfacet
  facet normal 0 0 1
    outer loop
      vertex 55 -33.5858 42
      vertex 52.0672 -30.3661 42
      vertex 53 -31.65 42
    endloop
  endfacet
  facet normal 0 0 1
    outer loop
      vertex 28.8683 10.4811 42
      vertex 52.0672 30.3661 42
      vertex 50.5578 30.8565 42
    endloop
  endfacet
  facet normal 0 0 1
    outer loop
      vertex 28.8683 6.71889 42
      vertex 52.0672 30.3661 42
      vertex 29.2 8.6 42
    endloop
  endfacet
  facet normal 0 0 1
    outer loop
      vertex 52.0672 32.9339 42
      vertex 55 33.5858 42
      vertex 53.5858 35 42
    endloop
  endfacet
  facet normal 0 0 1
    outer loop
      vertex 52.0672 30.3661 42
      vertex 55 33.5858 42
      vertex 53 31.65 42
    endloop
  endfacet
  facet normal 0 0 1
    outer loop
      vertex 55 33.5858 42
      vertex 52.0672 30.3661 42
      vertex 55 -33.5858 42
    endloop
  endfacet
  facet normal 0 0 1
    outer loop
      vertex 55 33.5858 42
      vertex 52.0672 32.9339 42
      vertex 53 31.65 42
    endloop
  endfacet
  facet normal 0 0 1
    outer loop
      vertex 53.5858 35 42
      vertex 50.5578 32.4435 42
      vertex 52.0672 32.9339 42
    endloop
  endfacet
  facet normal 0 0 1
    outer loop
      vertex 24.6551 14.0164 42
      vertex 50.5578 30.8565 42
      vertex 50.5578 32.4435 42
    endloop
  endfacet
  facet normal 0 0 1
    outer loop
      vertex 52.0672 30.3661 42
      vertex 28.8683 6.71889 42
      vertex 52.0672 -30.3661 42
    endloop
  endfacet
  facet normal -0 0 1
    outer loop
      vertex 28.8683 -10.4811 42
      vertex 52.0672 -30.3661 42
      vertex 29.2 -8.6 42
    endloop
  endfacet
  facet normal 0 0 1
    outer loop
      vertex 52.0672 30.3661 42
      vertex 28.8683 10.4811 42
      vertex 29.2 8.6 42
    endloop
  endfacet
  facet normal 0 0 1
    outer loop
      vertex 50.5578 30.8565 42
      vertex 27.9132 12.1353 42
      vertex 28.8683 10.4811 42
    endloop
  endfacet
  facet normal 0 0 1
    outer loop
      vertex 50.5578 30.8565 42
      vertex 26.45 13.3631 42
      vertex 27.9132 12.1353 42
    endloop
  endfacet
  facet normal 0 0 1
    outer loop
      vertex 0 16.5 42
      vertex 50.5578 32.4435 42
      vertex 53.5858 35 42
    endloop
  endfacet
  facet normal 0 0 1
    outer loop
      vertex 50.5578 30.8565 42
      vertex 24.6551 14.0164 42
      vertex 26.45 13.3631 42
    endloop
  endfacet
  facet normal 0 0 1
    outer loop
      vertex 50.5578 32.4435 42
      vertex 22.7449 14.0164 42
      vertex 24.6551 14.0164 42
    endloop
  endfacet
  facet normal 0 0 1
    outer loop
      vertex 50.5578 32.4435 42
      vertex 8.95506 14.0164 42
      vertex 22.7449 14.0164 42
    endloop
  endfacet
  facet normal 0 0 1
    outer loop
      vertex 19.4868 -5.06467 42
      vertex 13.5 -8.6 42
      vertex 18.5317 -6.71889 42
    endloop
  endfacet
  facet normal 0 0 1
    outer loop
      vertex 18.5317 10.4811 42
      vertex 13.5 8.6 42
      vertex 18.2 8.6 42
    endloop
  endfacet
  facet normal 0 0 1
    outer loop
      vertex 13.1683 10.4811 42
      vertex 18.5317 10.4811 42
      vertex 19.4868 12.1353 42
    endloop
  endfacet
  facet normal 0 0 1
    outer loop
      vertex 12.2132 12.1353 42
      vertex 19.4868 12.1353 42
      vertex 20.95 13.3631 42
    endloop
  endfacet
  facet normal 0 0 1
    outer loop
      vertex 22.7449 14.0164 42
      vertex 8.95506 14.0164 42
      vertex 20.95 13.3631 42
    endloop
  endfacet
  facet normal 0 0 1
    outer loop
      vertex 18.5317 10.4811 42
      vertex 13.1683 10.4811 42
      vertex 13.5 8.6 42
    endloop
  endfacet
  facet normal 0 0 1
    outer loop
      vertex 19.4868 12.1353 42
      vertex 12.2132 12.1353 42
      vertex 13.1683 10.4811 42
    endloop
  endfacet
  facet normal 0 0 1
    outer loop
      vertex 20.95 13.3631 42
      vertex 10.75 13.3631 42
      vertex 12.2132 12.1353 42
    endloop
  endfacet
  facet normal 0 0 1
    outer loop
      vertex 20.95 13.3631 42
      vertex 8.95506 14.0164 42
      vertex 10.75 13.3631 42
    endloop
  endfacet
  facet normal 0 0 1
    outer loop
      vertex 50.5578 32.4435 42
      vertex 0 16.5 42
      vertex 8.95506 14.0164 42
    endloop
  endfacet
  facet normal 0 0 1
    outer loop
      vertex 8.95506 14.0164 42
      vertex 0 16.5 42
      vertex 7.04493 14.0164 42
    endloop
  endfacet
  facet normal 0 0 1
    outer loop
      vertex 0 -16.5 42
      vertex 2.83169 -6.71889 42
      vertex 0 16.5 42
    endloop
  endfacet
  facet normal 0 0 1
    outer loop
      vertex 2.83169 10.4811 42
      vertex 0 16.5 42
      vertex 2.5 8.6 42
    endloop
  endfacet
  facet normal 0 0 1
    outer loop
      vertex 3.78676 12.1353 42
      vertex 0 16.5 42
      vertex 2.83169 10.4811 42
    endloop
  endfacet
  facet normal 0 0 1
    outer loop
      vertex 5.25 13.3631 42
      vertex 0 16.5 42
      vertex 3.78676 12.1353 42
    endloop
  endfacet
  facet normal 0 0 1
    outer loop
      vertex 7.04493 14.0164 42
      vertex 0 16.5 42
      vertex 5.25 13.3631 42
    endloop
  endfacet
  facet normal -0 0 1
    outer loop
      vertex -53.5858 35 42
      vertex 0 16.5 42
      vertex 53.5858 35 42
    endloop
  endfacet
  facet normal -0 0 1
    outer loop
      vertex -51.2328 30.3661 42
      vertex -43 16.5 42
      vertex -50.3 31.65 42
    endloop
  endfacet
  facet normal 0 0 1
    outer loop
      vertex 0 16.5 42
      vertex -50.3 31.65 42
      vertex -43 16.5 42
    endloop
  endfacet
  facet normal 0 0 1
    outer loop
      vertex 0 16.5 42
      vertex -51.2328 32.9339 42
      vertex -50.3 31.65 42
    endloop
  endfacet
  facet normal 0 0 1
    outer loop
      vertex -55 33.5858 42
      vertex -52.7422 30.8565 42
      vertex -52.7422 32.4435 42
    endloop
  endfacet
  facet normal 0 0 1
    outer loop
      vertex -52.7422 30.8565 42
      vertex -55 33.5858 42
      vertex -52.7422 -30.8565 42
    endloop
  endfacet
  facet normal -0 0 1
    outer loop
      vertex -55 33.5858 42
      vertex -52.7422 32.4435 42
      vertex -53.5858 35 42
    endloop
  endfacet
  facet normal 0 0 1
    outer loop
      vertex -51.2328 32.9339 42
      vertex -53.5858 35 42
      vertex -52.7422 32.4435 42
    endloop
  endfacet
  facet normal 0 0 1
    outer loop
      vertex 0 16.5 42
      vertex -53.5858 35 42
      vertex -51.2328 32.9339 42
    endloop
  endfacet
  facet normal -0 0 1
    outer loop
      vertex 52.0672 -32.9339 42
      vertex 55 -33.5858 42
      vertex 53 -31.65 42
    endloop
  endfacet
  facet normal 0 0 1
    outer loop
      vertex 55 -33.5858 42
      vertex 52.0672 -32.9339 42
      vertex 53.5858 -35 42
    endloop
  endfacet
  facet normal 0 0 1
    outer loop
      vertex 50.5578 -32.4435 42
      vertex 53.5858 -35 42
      vertex 52.0672 -32.9339 42
    endloop
  endfacet
  facet normal 0 0 1
    outer loop
      vertex 52.0672 -30.3661 42
      vertex 28.8683 -10.4811 42
      vertex 50.5578 -30.8565 42
    endloop
  endfacet
  facet normal -0 0 1
    outer loop
      vertex 27.9132 -12.1353 42
      vertex 50.5578 -30.8565 42
      vertex 28.8683 -10.4811 42
    endloop
  endfacet
  facet normal -0 0 1
    outer loop
      vertex 26.45 -13.3631 42
      vertex 50.5578 -30.8565 42
      vertex 27.9132 -12.1353 42
    endloop
  endfacet
  facet normal -0 0 1
    outer loop
      vertex 24.6551 -14.0164 42
      vertex 50.5578 -30.8565 42
      vertex 26.45 -13.3631 42
    endloop
  endfacet
  facet normal 0 0 1
    outer loop
      vertex 50.5578 -30.8565 42
      vertex 24.6551 -14.0164 42
      vertex 50.5578 -32.4435 42
    endloop
  endfacet
  facet normal -0 0 1
    outer loop
      vertex 22.7449 -14.0164 42
      vertex 50.5578 -32.4435 42
      vertex 24.6551 -14.0164 42
    endloop
  endfacet
  facet normal -0 0 1
    outer loop
      vertex 8.95506 -14.0164 42
      vertex 50.5578 -32.4435 42
      vertex 22.7449 -14.0164 42
    endloop
  endfacet
  facet normal 0 0 1
    outer loop
      vertex 8.95506 -14.0164 42
      vertex 22.7449 -14.0164 42
      vertex 20.95 -13.3631 42
    endloop
  endfacet
  facet normal 0 0 1
    outer loop
      vertex 18.5317 -6.71889 42
      vertex 13.5 -8.6 42
      vertex 18.2 -8.6 42
    endloop
  endfacet
  facet normal 0 0 1
    outer loop
      vertex 18.2 -8.6 42
      vertex 13.5 -8.6 42
      vertex 18.5317 -10.4811 42
    endloop
  endfacet
  facet normal 0 0 1
    outer loop
      vertex 13.1683 -10.4811 42
      vertex 18.5317 -10.4811 42
      vertex 13.5 -8.6 42
    endloop
  endfacet
  facet normal 0 0 1
    outer loop
      vertex 18.5317 -10.4811 42
      vertex 13.1683 -10.4811 42
      vertex 19.4868 -12.1353 42
    endloop
  endfacet
  facet normal 0 0 1
    outer loop
      vertex 12.2132 -12.1353 42
      vertex 19.4868 -12.1353 42
      vertex 13.1683 -10.4811 42
    endloop
  endfacet
  facet normal 0 0 1
    outer loop
      vertex 19.4868 -12.1353 42
      vertex 12.2132 -12.1353 42
      vertex 20.95 -13.3631 42
    endloop
  endfacet
  facet normal 0 0 1
    outer loop
      vertex 10.75 -13.3631 42
      vertex 20.95 -13.3631 42
      vertex 12.2132 -12.1353 42
    endloop
  endfacet
  facet normal 0 0 1
    outer loop
      vertex 8.95506 -14.0164 42
      vertex 20.95 -13.3631 42
      vertex 10.75 -13.3631 42
    endloop
  endfacet
  facet normal -0 0 1
    outer loop
      vertex 0 -16.5 42
      vertex 50.5578 -32.4435 42
      vertex 8.95506 -14.0164 42
    endloop
  endfacet
  facet normal 0 0 1
    outer loop
      vertex 0 -16.5 42
      vertex 8.95506 -14.0164 42
      vertex 7.04493 -14.0164 42
    endloop
  endfacet
  facet normal 0 0 1
    outer loop
      vertex 0 -16.5 42
      vertex 7.04493 -14.0164 42
      vertex 5.25 -13.3631 42
    endloop
  endfacet
  facet normal 0 0 1
    outer loop
      vertex 2.83169 -6.71889 42
      vertex 0 -16.5 42
      vertex 2.5 -8.6 42
    endloop
  endfacet
  facet normal 0 0 1
    outer loop
      vertex 0 -16.5 42
      vertex 2.83169 -10.4811 42
      vertex 2.5 -8.6 42
    endloop
  endfacet
  facet normal 0 0 1
    outer loop
      vertex 0 -16.5 42
      vertex 3.78676 -12.1353 42
      vertex 2.83169 -10.4811 42
    endloop
  endfacet
  facet normal 0 0 1
    outer loop
      vertex 0 -16.5 42
      vertex 5.25 -13.3631 42
      vertex 3.78676 -12.1353 42
    endloop
  endfacet
  facet normal 0 0 1
    outer loop
      vertex 50.5578 -32.4435 42
      vertex 0 -16.5 42
      vertex 53.5858 -35 42
    endloop
  endfacet
  facet normal 0 0 1
    outer loop
      vertex -50.3 -31.65 42
      vertex 0 -16.5 42
      vertex -43 -16.5 42
    endloop
  endfacet
  facet normal 0 0 1
    outer loop
      vertex -52.7422 30.8565 42
      vertex -43 16.5 42
      vertex -51.2328 30.3661 42
    endloop
  endfacet
  facet normal 0 0 1
    outer loop
      vertex -51.2328 -32.9339 42
      vertex 0 -16.5 42
      vertex -50.3 -31.65 42
    endloop
  endfacet
  facet normal 0 0 1
    outer loop
      vertex -53.5858 -35 42
      vertex 0 -16.5 42
      vertex -51.2328 -32.9339 42
    endloop
  endfacet
  facet normal 0 0 1
    outer loop
      vertex 0 -16.5 42
      vertex -53.5858 -35 42
      vertex 53.5858 -35 42
    endloop
  endfacet
  facet normal 0 0 1
    outer loop
      vertex -52.7422 -32.4435 42
      vertex -53.5858 -35 42
      vertex -51.2328 -32.9339 42
    endloop
  endfacet
  facet normal 0 0 1
    outer loop
      vertex -55 -33.5858 42
      vertex -52.7422 -30.8565 42
      vertex -55 33.5858 42
    endloop
  endfacet
  facet normal 0 0 1
    outer loop
      vertex -52.7422 -30.8565 42
      vertex -55 -33.5858 42
      vertex -52.7422 -32.4435 42
    endloop
  endfacet
  facet normal 0 0 1
    outer loop
      vertex -52.7422 -32.4435 42
      vertex -55 -33.5858 42
      vertex -53.5858 -35 42
    endloop
  endfacet
  facet normal 1 -0 0
    outer loop
      vertex 55 -33.5858 42
      vertex 55 33.5858 40
      vertex 55 33.5858 42
    endloop
  endfacet
  facet normal 1 0 0
    outer loop
      vertex 55 33.5858 40
      vertex 55 -33.5858 42
      vertex 55 -33.5858 40
    endloop
  endfacet
  facet normal 0 1 -0
    outer loop
      vertex 53.5858 35 40
      vertex -53.5858 35 42
      vertex 53.5858 35 42
    endloop
  endfacet
  facet normal 0 1 0
    outer loop
      vertex -53.5858 35 42
      vertex 53.5858 35 40
      vertex -53.5858 35 40
    endloop
  endfacet
  facet normal -0 0 -1
    outer loop
      vertex -43 -16.5 40
      vertex -52.7422 -30.8565 40
      vertex -43 16.5 40
    endloop
  endfacet
  facet normal 0 0 -1
    outer loop
      vertex -43 16.5 40
      vertex -51.2328 30.3661 40
      vertex -50.3 31.65 40
    endloop
  endfacet
  facet normal 0 0 -1
    outer loop
      vertex -52.7422 30.8565 40
      vertex -43 16.5 40
      vertex -52.7422 -30.8565 40
    endloop
  endfacet
  facet normal 0 0 -1
    outer loop
      vertex -43 16.5 40
      vertex -52.7422 30.8565 40
      vertex -51.2328 30.3661 40
    endloop
  endfacet
  facet normal 0 0 -1
    outer loop
      vertex 19.4868 -5.06467 40
      vertex 12.2132 -5.06467 40
      vertex 19.4868 5.06467 40
    endloop
  endfacet
  facet normal 0 0 -1
    outer loop
      vertex 19.4868 5.06467 40
      vertex 13.1683 6.71889 40
      vertex 13.5 8.6 40
    endloop
  endfacet
  facet normal 0 0 -1
    outer loop
      vertex 12.2132 5.06467 40
      vertex 19.4868 5.06467 40
      vertex 12.2132 -5.06467 40
    endloop
  endfacet
  facet normal 0 0 -1
    outer loop
      vertex 19.4868 5.06467 40
      vertex 12.2132 5.06467 40
      vertex 13.1683 6.71889 40
    endloop
  endfacet
  facet normal 0 0 -1
    outer loop
      vertex 10.75 -3.83686 40
      vertex 12.2132 5.06467 40
      vertex 12.2132 -5.06467 40
    endloop
  endfacet
  facet normal 0 0 -1
    outer loop
      vertex 10.75 -3.83686 40
      vertex 10.75 3.83686 40
      vertex 12.2132 5.06467 40
    endloop
  endfacet
  facet normal 0 0 -1
    outer loop
      vertex 8.95506 -3.18356 40
      vertex 10.75 3.83686 40
      vertex 10.75 -3.83686 40
    endloop
  endfacet
  facet normal 0 0 -1
    outer loop
      vertex 8.95506 -3.18356 40
      vertex 8.95506 3.18356 40
      vertex 10.75 3.83686 40
    endloop
  endfacet
  facet normal 0 0 -1
    outer loop
      vertex 7.04493 -3.18356 40
      vertex 8.95506 3.18356 40
      vertex 8.95506 -3.18356 40
    endloop
  endfacet
  facet normal 0 0 -1
    outer loop
      vertex 7.04493 -3.18356 40
      vertex 7.04493 3.18356 40
      vertex 8.95506 3.18356 40
    endloop
  endfacet
  facet normal 0 0 -1
    outer loop
      vertex 5.25 -3.83686 40
      vertex 7.04493 3.18356 40
      vertex 7.04493 -3.18356 40
    endloop
  endfacet
  facet normal 0 0 -1
    outer loop
      vertex 5.25 -3.83686 40
      vertex 5.25 3.83686 40
      vertex 7.04493 3.18356 40
    endloop
  endfacet
  facet normal 0 0 -1
    outer loop
      vertex 3.78676 -5.06467 40
      vertex 5.25 3.83686 40
      vertex 5.25 -3.83686 40
    endloop
  endfacet
  facet normal 0 0 -1
    outer loop
      vertex 3.78676 -5.06467 40
      vertex 3.78676 5.06467 40
      vertex 5.25 3.83686 40
    endloop
  endfacet
  facet normal 0 0 -1
    outer loop
      vertex 2.83169 -6.71889 40
      vertex 3.78676 5.06467 40
      vertex 3.78676 -5.06467 40
    endloop
  endfacet
  facet normal 0 0 -1
    outer loop
      vertex 2.83169 -6.71889 40
      vertex 2.83169 6.71889 40
      vertex 3.78676 5.06467 40
    endloop
  endfacet
  facet normal 0 0 -1
    outer loop
      vertex 0 -16.5 40
      vertex 2.83169 -6.71889 40
      vertex 2.5 -8.6 40
    endloop
  endfacet
  facet normal -0 0 -1
    outer loop
      vertex 2.83169 -6.71889 40
      vertex 0 -16.5 40
      vertex 2.83169 6.71889 40
    endloop
  endfacet
  facet normal 0 0 -1
    outer loop
      vertex 28.8683 6.71889 40
      vertex 52.0672 30.3661 40
      vertex 28.8683 -6.71889 40
    endloop
  endfacet
  facet normal 0 0 -1
    outer loop
      vertex 52.0672 30.3661 40
      vertex 28.8683 6.71889 40
      vertex 29.2 8.6 40
    endloop
  endfacet
  facet normal 0 0 -1
    outer loop
      vertex 27.9132 -5.06467 40
      vertex 28.8683 6.71889 40
      vertex 28.8683 -6.71889 40
    endloop
  endfacet
  facet normal 0 0 -1
    outer loop
      vertex 27.9132 -5.06467 40
      vertex 27.9132 5.06467 40
      vertex 28.8683 6.71889 40
    endloop
  endfacet
  facet normal 0 0 -1
    outer loop
      vertex 26.45 -3.83686 40
      vertex 27.9132 5.06467 40
      vertex 27.9132 -5.06467 40
    endloop
  endfacet
  facet normal 0 0 -1
    outer loop
      vertex 26.45 -3.83686 40
      vertex 26.45 3.83686 40
      vertex 27.9132 5.06467 40
    endloop
  endfacet
  facet normal 0 0 -1
    outer loop
      vertex 24.6551 -3.18356 40
      vertex 26.45 3.83686 40
      vertex 26.45 -3.83686 40
    endloop
  endfacet
  facet normal 0 0 -1
    outer loop
      vertex 24.6551 -3.18356 40
      vertex 24.6551 3.18356 40
      vertex 26.45 3.83686 40
    endloop
  endfacet
  facet normal 0 0 -1
    outer loop
      vertex 22.7449 -3.18356 40
      vertex 24.6551 3.18356 40
      vertex 24.6551 -3.18356 40
    endloop
  endfacet
  facet normal 0 0 -1
    outer loop
      vertex 22.7449 -3.18356 40
      vertex 22.7449 3.18356 40
      vertex 24.6551 3.18356 40
    endloop
  endfacet
  facet normal 0 0 -1
    outer loop
      vertex 20.95 -3.83686 40
      vertex 22.7449 3.18356 40
      vertex 22.7449 -3.18356 40
    endloop
  endfacet
  facet normal 0 0 -1
    outer loop
      vertex 20.95 -3.83686 40
      vertex 20.95 3.83686 40
      vertex 22.7449 3.18356 40
    endloop
  endfacet
  facet normal 0 0 -1
    outer loop
      vertex 19.4868 -5.06467 40
      vertex 20.95 3.83686 40
      vertex 20.95 -3.83686 40
    endloop
  endfacet
  facet normal 0 0 -1
    outer loop
      vertex 19.4868 -5.06467 40
      vertex 19.4868 5.06467 40
      vertex 20.95 3.83686 40
    endloop
  endfacet
  facet normal 0 0 -1
    outer loop
      vertex 13.1683 -6.71889 40
      vertex 18.5317 -6.71889 40
      vertex 13.5 -8.6 40
    endloop
  endfacet
  facet normal 0 0 -1
    outer loop
      vertex 18.5317 -6.71889 40
      vertex 13.1683 -6.71889 40
      vertex 19.4868 -5.06467 40
    endloop
  endfacet
  facet normal 0 0 -1
    outer loop
      vertex 13.5 -8.6 40
      vertex 18.5317 -6.71889 40
      vertex 18.2 -8.6 40
    endloop
  endfacet
  facet normal 0 0 -1
    outer loop
      vertex 12.2132 -5.06467 40
      vertex 19.4868 -5.06467 40
      vertex 13.1683 -6.71889 40
    endloop
  endfacet
  facet normal 0 0 -1
    outer loop
      vertex 52.0672 30.3661 40
      vertex 55 33.5858 40
      vertex 52.0672 -30.3661 40
    endloop
  endfacet
  facet normal 0 0 -1
    outer loop
      vertex 55 33.5858 40
      vertex 52.0672 30.3661 40
      vertex 53 31.65 40
    endloop
  endfacet
  facet normal 0 0 -1
    outer loop
      vertex 28.8683 -10.4811 40
      vertex 52.0672 -30.3661 40
      vertex 50.5578 -30.8565 40
    endloop
  endfacet
  facet normal 0 0 -1
    outer loop
      vertex 28.8683 -6.71889 40
      vertex 52.0672 -30.3661 40
      vertex 29.2 -8.6 40
    endloop
  endfacet
  facet normal 0 0 -1
    outer loop
      vertex 52.0672 -32.9339 40
      vertex 55 -33.5858 40
      vertex 53.5858 -35 40
    endloop
  endfacet
  facet normal 0 0 -1
    outer loop
      vertex 52.0672 -30.3661 40
      vertex 55 -33.5858 40
      vertex 53 -31.65 40
    endloop
  endfacet
  facet normal 0 0 -1
    outer loop
      vertex 55 -33.5858 40
      vertex 52.0672 -30.3661 40
      vertex 55 33.5858 40
    endloop
  endfacet
  facet normal 0 0 -1
    outer loop
      vertex 55 -33.5858 40
      vertex 52.0672 -32.9339 40
      vertex 53 -31.65 40
    endloop
  endfacet
  facet normal 0 0 -1
    outer loop
      vertex 53.5858 -35 40
      vertex 50.5578 -32.4435 40
      vertex 52.0672 -32.9339 40
    endloop
  endfacet
  facet normal 0 0 -1
    outer loop
      vertex 24.6551 -14.0164 40
      vertex 50.5578 -30.8565 40
      vertex 50.5578 -32.4435 40
    endloop
  endfacet
  facet normal 0 0 -1
    outer loop
      vertex 52.0672 -30.3661 40
      vertex 28.8683 -6.71889 40
      vertex 52.0672 30.3661 40
    endloop
  endfacet
  facet normal 0 0 -1
    outer loop
      vertex 28.8683 10.4811 40
      vertex 52.0672 30.3661 40
      vertex 29.2 8.6 40
    endloop
  endfacet
  facet normal 0 0 -1
    outer loop
      vertex 52.0672 -30.3661 40
      vertex 28.8683 -10.4811 40
      vertex 29.2 -8.6 40
    endloop
  endfacet
  facet normal 0 0 -1
    outer loop
      vertex 50.5578 -30.8565 40
      vertex 27.9132 -12.1353 40
      vertex 28.8683 -10.4811 40
    endloop
  endfacet
  facet normal 0 0 -1
    outer loop
      vertex 50.5578 -30.8565 40
      vertex 26.45 -13.3631 40
      vertex 27.9132 -12.1353 40
    endloop
  endfacet
  facet normal 0 0 -1
    outer loop
      vertex 0 -16.5 40
      vertex 50.5578 -32.4435 40
      vertex 53.5858 -35 40
    endloop
  endfacet
  facet normal 0 0 -1
    outer loop
      vertex 50.5578 -30.8565 40
      vertex 24.6551 -14.0164 40
      vertex 26.45 -13.3631 40
    endloop
  endfacet
  facet normal 0 0 -1
    outer loop
      vertex 50.5578 -32.4435 40
      vertex 22.7449 -14.0164 40
      vertex 24.6551 -14.0164 40
    endloop
  endfacet
  facet normal 0 0 -1
    outer loop
      vertex 50.5578 -32.4435 40
      vertex 8.95506 -14.0164 40
      vertex 22.7449 -14.0164 40
    endloop
  endfacet
  facet normal 0 0 -1
    outer loop
      vertex 19.4868 5.06467 40
      vertex 13.5 8.6 40
      vertex 18.5317 6.71889 40
    endloop
  endfacet
  facet normal 0 0 -1
    outer loop
      vertex 18.5317 -10.4811 40
      vertex 13.5 -8.6 40
      vertex 18.2 -8.6 40
    endloop
  endfacet
  facet normal 0 0 -1
    outer loop
      vertex 13.1683 -10.4811 40
      vertex 18.5317 -10.4811 40
      vertex 19.4868 -12.1353 40
    endloop
  endfacet
  facet normal 0 0 -1
    outer loop
      vertex 12.2132 -12.1353 40
      vertex 19.4868 -12.1353 40
      vertex 20.95 -13.3631 40
    endloop
  endfacet
  facet normal 0 0 -1
    outer loop
      vertex 22.7449 -14.0164 40
      vertex 8.95506 -14.0164 40
      vertex 20.95 -13.3631 40
    endloop
  endfacet
  facet normal 0 0 -1
    outer loop
      vertex 18.5317 -10.4811 40
      vertex 13.1683 -10.4811 40
      vertex 13.5 -8.6 40
    endloop
  endfacet
  facet normal 0 0 -1
    outer loop
      vertex 19.4868 -12.1353 40
      vertex 12.2132 -12.1353 40
      vertex 13.1683 -10.4811 40
    endloop
  endfacet
  facet normal 0 0 -1
    outer loop
      vertex 20.95 -13.3631 40
      vertex 10.75 -13.3631 40
      vertex 12.2132 -12.1353 40
    endloop
  endfacet
  facet normal -0 0 -1
    outer loop
      vertex 20.95 -13.3631 40
      vertex 8.95506 -14.0164 40
      vertex 10.75 -13.3631 40
    endloop
  endfacet
  facet normal 0 0 -1
    outer loop
      vertex 50.5578 -32.4435 40
      vertex 0 -16.5 40
      vertex 8.95506 -14.0164 40
    endloop
  endfacet
  facet normal -0 0 -1
    outer loop
      vertex 8.95506 -14.0164 40
      vertex 0 -16.5 40
      vertex 7.04493 -14.0164 40
    endloop
  endfacet
  facet normal 0 0 -1
    outer loop
      vertex 0 16.5 40
      vertex 2.83169 6.71889 40
      vertex 0 -16.5 40
    endloop
  endfacet
  facet normal -0 0 -1
    outer loop
      vertex 2.83169 -10.4811 40
      vertex 0 -16.5 40
      vertex 2.5 -8.6 40
    endloop
  endfacet
  facet normal -0 0 -1
    outer loop
      vertex 3.78676 -12.1353 40
      vertex 0 -16.5 40
      vertex 2.83169 -10.4811 40
    endloop
  endfacet
  facet normal -0 0 -1
    outer loop
      vertex 5.25 -13.3631 40
      vertex 0 -16.5 40
      vertex 3.78676 -12.1353 40
    endloop
  endfacet
  facet normal -0 0 -1
    outer loop
      vertex 7.04493 -14.0164 40
      vertex 0 -16.5 40
      vertex 5.25 -13.3631 40
    endloop
  endfacet
  facet normal 0 0 -1
    outer loop
      vertex -53.5858 -35 40
      vertex 0 -16.5 40
      vertex 53.5858 -35 40
    endloop
  endfacet
  facet normal 0 0 -1
    outer loop
      vertex -51.2328 -30.3661 40
      vertex -43 -16.5 40
      vertex -50.3 -31.65 40
    endloop
  endfacet
  facet normal -0 0 -1
    outer loop
      vertex 0 -16.5 40
      vertex -50.3 -31.65 40
      vertex -43 -16.5 40
    endloop
  endfacet
  facet normal 0 0 -1
    outer loop
      vertex 0 -16.5 40
      vertex -51.2328 -32.9339 40
      vertex -50.3 -31.65 40
    endloop
  endfacet
  facet normal 0 0 -1
    outer loop
      vertex -55 -33.5858 40
      vertex -52.7422 -30.8565 40
      vertex -52.7422 -32.4435 40
    endloop
  endfacet
  facet normal -0 0 -1
    outer loop
      vertex -52.7422 -30.8565 40
      vertex -55 -33.5858 40
      vertex -52.7422 30.8565 40
    endloop
  endfacet
  facet normal 0 0 -1
    outer loop
      vertex -55 -33.5858 40
      vertex -52.7422 -32.4435 40
      vertex -53.5858 -35 40
    endloop
  endfacet
  facet normal -0 0 -1
    outer loop
      vertex -51.2328 -32.9339 40
      vertex -53.5858 -35 40
      vertex -52.7422 -32.4435 40
    endloop
  endfacet
  facet normal 0 0 -1
    outer loop
      vertex 0 -16.5 40
      vertex -53.5858 -35 40
      vertex -51.2328 -32.9339 40
    endloop
  endfacet
  facet normal 0 0 -1
    outer loop
      vertex 52.0672 32.9339 40
      vertex 55 33.5858 40
      vertex 53 31.65 40
    endloop
  endfacet
  facet normal -0 0 -1
    outer loop
      vertex 55 33.5858 40
      vertex 52.0672 32.9339 40
      vertex 53.5858 35 40
    endloop
  endfacet
  facet normal 0 0 -1
    outer loop
      vertex 50.5578 32.4435 40
      vertex 53.5858 35 40
      vertex 52.0672 32.9339 40
    endloop
  endfacet
  facet normal -0 0 -1
    outer loop
      vertex 52.0672 30.3661 40
      vertex 28.8683 10.4811 40
      vertex 50.5578 30.8565 40
    endloop
  endfacet
  facet normal 0 0 -1
    outer loop
      vertex 27.9132 12.1353 40
      vertex 50.5578 30.8565 40
      vertex 28.8683 10.4811 40
    endloop
  endfacet
  facet normal 0 0 -1
    outer loop
      vertex 26.45 13.3631 40
      vertex 50.5578 30.8565 40
      vertex 27.9132 12.1353 40
    endloop
  endfacet
  facet normal 0 0 -1
    outer loop
      vertex 24.6551 14.0164 40
      vertex 50.5578 30.8565 40
      vertex 26.45 13.3631 40
    endloop
  endfacet
  facet normal -0 0 -1
    outer loop
      vertex 50.5578 30.8565 40
      vertex 24.6551 14.0164 40
      vertex 50.5578 32.4435 40
    endloop
  endfacet
  facet normal 0 0 -1
    outer loop
      vertex 22.7449 14.0164 40
      vertex 50.5578 32.4435 40
      vertex 24.6551 14.0164 40
    endloop
  endfacet
  facet normal 0 0 -1
    outer loop
      vertex 8.95506 14.0164 40
      vertex 50.5578 32.4435 40
      vertex 22.7449 14.0164 40
    endloop
  endfacet
  facet normal 0 0 -1
    outer loop
      vertex 8.95506 14.0164 40
      vertex 22.7449 14.0164 40
      vertex 20.95 13.3631 40
    endloop
  endfacet
  facet normal 0 0 -1
    outer loop
      vertex 18.5317 6.71889 40
      vertex 13.5 8.6 40
      vertex 18.2 8.6 40
    endloop
  endfacet
  facet normal 0 0 -1
    outer loop
      vertex 18.2 8.6 40
      vertex 13.5 8.6 40
      vertex 18.5317 10.4811 40
    endloop
  endfacet
  facet normal 0 0 -1
    outer loop
      vertex 13.1683 10.4811 40
      vertex 18.5317 10.4811 40
      vertex 13.5 8.6 40
    endloop
  endfacet
  facet normal 0 0 -1
    outer loop
      vertex 18.5317 10.4811 40
      vertex 13.1683 10.4811 40
      vertex 19.4868 12.1353 40
    endloop
  endfacet
  facet normal 0 0 -1
    outer loop
      vertex 12.2132 12.1353 40
      vertex 19.4868 12.1353 40
      vertex 13.1683 10.4811 40
    endloop
  endfacet
  facet normal 0 0 -1
    outer loop
      vertex 19.4868 12.1353 40
      vertex 12.2132 12.1353 40
      vertex 20.95 13.3631 40
    endloop
  endfacet
  facet normal 0 0 -1
    outer loop
      vertex 10.75 13.3631 40
      vertex 20.95 13.3631 40
      vertex 12.2132 12.1353 40
    endloop
  endfacet
  facet normal 0 0 -1
    outer loop
      vertex 8.95506 14.0164 40
      vertex 20.95 13.3631 40
      vertex 10.75 13.3631 40
    endloop
  endfacet
  facet normal 0 0 -1
    outer loop
      vertex 0 16.5 40
      vertex 50.5578 32.4435 40
      vertex 8.95506 14.0164 40
    endloop
  endfacet
  facet normal 0 0 -1
    outer loop
      vertex 0 16.5 40
      vertex 8.95506 14.0164 40
      vertex 7.04493 14.0164 40
    endloop
  endfacet
  facet normal 0 0 -1
    outer loop
      vertex 0 16.5 40
      vertex 7.04493 14.0164 40
      vertex 5.25 13.3631 40
    endloop
  endfacet
  facet normal 0 0 -1
    outer loop
      vertex 2.83169 6.71889 40
      vertex 0 16.5 40
      vertex 2.5 8.6 40
    endloop
  endfacet
  facet normal 0 0 -1
    outer loop
      vertex 0 16.5 40
      vertex 2.83169 10.4811 40
      vertex 2.5 8.6 40
    endloop
  endfacet
  facet normal 0 0 -1
    outer loop
      vertex 0 16.5 40
      vertex 3.78676 12.1353 40
      vertex 2.83169 10.4811 40
    endloop
  endfacet
  facet normal 0 0 -1
    outer loop
      vertex 0 16.5 40
      vertex 5.25 13.3631 40
      vertex 3.78676 12.1353 40
    endloop
  endfacet
  facet normal -0 0 -1
    outer loop
      vertex 50.5578 32.4435 40
      vertex 0 16.5 40
      vertex 53.5858 35 40
    endloop
  endfacet
  facet normal 0 0 -1
    outer loop
      vertex -50.3 31.65 40
      vertex 0 16.5 40
      vertex -43 16.5 40
    endloop
  endfacet
  facet normal 0 0 -1
    outer loop
      vertex -52.7422 -30.8565 40
      vertex -43 -16.5 40
      vertex -51.2328 -30.3661 40
    endloop
  endfacet
  facet normal 0 0 -1
    outer loop
      vertex -51.2328 32.9339 40
      vertex 0 16.5 40
      vertex -50.3 31.65 40
    endloop
  endfacet
  facet normal 0 0 -1
    outer loop
      vertex -53.5858 35 40
      vertex 0 16.5 40
      vertex -51.2328 32.9339 40
    endloop
  endfacet
  facet normal 0 0 -1
    outer loop
      vertex 0 16.5 40
      vertex -53.5858 35 40
      vertex 53.5858 35 40
    endloop
  endfacet
  facet normal 0 0 -1
    outer loop
      vertex -52.7422 32.4435 40
      vertex -53.5858 35 40
      vertex -51.2328 32.9339 40
    endloop
  endfacet
  facet normal 0 0 -1
    outer loop
      vertex -55 33.5858 40
      vertex -52.7422 30.8565 40
      vertex -55 -33.5858 40
    endloop
  endfacet
  facet normal 0 0 -1
    outer loop
      vertex -52.7422 30.8565 40
      vertex -55 33.5858 40
      vertex -52.7422 32.4435 40
    endloop
  endfacet
  facet normal 0 0 -1
    outer loop
      vertex -52.7422 32.4435 40
      vertex -55 33.5858 40
      vertex -53.5858 35 40
    endloop
  endfacet
  facet normal 0 -1 0
    outer loop
      vertex -53.5858 -35 40
      vertex 53.5858 -35 42
      vertex -53.5858 -35 42
    endloop
  endfacet
  facet normal 0 -1 -0
    outer loop
      vertex 53.5858 -35 42
      vertex -53.5858 -35 40
      vertex 53.5858 -35 40
    endloop
  endfacet
  facet normal 1 -0 0
    outer loop
      vertex -43 -16.5 42
      vertex -43 16.5 40
      vertex -43 16.5 42
    endloop
  endfacet
  facet normal 1 0 0
    outer loop
      vertex -43 16.5 40
      vertex -43 -16.5 42
      vertex -43 -16.5 40
    endloop
  endfacet
  facet normal -1 0 0
    outer loop
      vertex 0 -16.5 40
      vertex 0 16.5 42
      vertex 0 16.5 40
    endloop
  endfacet
  facet normal -1 -0 0
    outer loop
      vertex 0 16.5 42
      vertex 0 -16.5 40
      vertex 0 -16.5 42
    endloop
  endfacet
  facet normal 0 1 -0
    outer loop
      vertex 0 -16.5 40
      vertex -43 -16.5 42
      vertex 0 -16.5 42
    endloop
  endfacet
  facet normal 0 1 0
    outer loop
      vertex -43 -16.5 42
      vertex 0 -16.5 40
      vertex -43 -16.5 40
    endloop
  endfacet
  facet normal 0 -1 0
    outer loop
      vertex -43 16.5 40
      vertex 0 16.5 42
      vertex -43 16.5 42
    endloop
  endfacet
  facet normal 0 -1 -0
    outer loop
      vertex 0 16.5 42
      vertex -43 16.5 40
      vertex 0 16.5 40
    endloop
  endfacet
  facet normal -0.707107 -0.707107 0
    outer loop
      vertex -53.5858 -35 40
      vertex -55 -33.5858 42
      vertex -55 -33.5858 40
    endloop
  endfacet
  facet normal -0.707107 -0.707107 0
    outer loop
      vertex -55 -33.5858 42
      vertex -53.5858 -35 40
      vertex -53.5858 -35 42
    endloop
  endfacet
  facet normal 0.707107 -0.707107 0
    outer loop
      vertex 53.5858 -35 42
      vertex 55 -33.5858 40
      vertex 55 -33.5858 42
    endloop
  endfacet
  facet normal 0.707107 -0.707107 0
    outer loop
      vertex 55 -33.5858 40
      vertex 53.5858 -35 42
      vertex 53.5858 -35 40
    endloop
  endfacet
  facet normal -0.707107 0.707107 0
    outer loop
      vertex -55 33.5858 40
      vertex -53.5858 35 42
      vertex -53.5858 35 40
    endloop
  endfacet
  facet normal -0.707107 0.707107 0
    outer loop
      vertex -53.5858 35 42
      vertex -55 33.5858 40
      vertex -55 33.5858 42
    endloop
  endfacet
  facet normal 0.707107 0.707107 0
    outer loop
      vertex 55 33.5858 42
      vertex 53.5858 35 40
      vertex 53.5858 35 42
    endloop
  endfacet
  facet normal 0.707107 0.707107 0
    outer loop
      vertex 53.5858 35 40
      vertex 55 33.5858 42
      vertex 55 33.5858 40
    endloop
  endfacet
  facet normal -0.984808 -0.173648 0
    outer loop
      vertex 13.5 -8.6 40
      vertex 13.1683 -6.71889 42
      vertex 13.1683 -6.71889 40
    endloop
  endfacet
  facet normal -0.984808 -0.173648 0
    outer loop
      vertex 13.1683 -6.71889 42
      vertex 13.5 -8.6 40
      vertex 13.5 -8.6 42
    endloop
  endfacet
  facet normal 0 -1 0
    outer loop
      vertex 7.04493 -3.18356 40
      vertex 8.95506 -3.18356 42
      vertex 7.04493 -3.18356 42
    endloop
  endfacet
  facet normal 0 -1 -0
    outer loop
      vertex 8.95506 -3.18356 42
      vertex 7.04493 -3.18356 40
      vertex 8.95506 -3.18356 40
    endloop
  endfacet
  facet normal -0.642788 -0.766044 0
    outer loop
      vertex 10.75 -3.83686 40
      vertex 12.2132 -5.06467 42
      vertex 10.75 -3.83686 42
    endloop
  endfacet
  facet normal -0.642788 -0.766044 -0
    outer loop
      vertex 12.2132 -5.06467 42
      vertex 10.75 -3.83686 40
      vertex 12.2132 -5.06467 40
    endloop
  endfacet
  facet normal -0.866025 -0.5 0
    outer loop
      vertex 13.1683 -6.71889 40
      vertex 12.2132 -5.06467 42
      vertex 12.2132 -5.06467 40
    endloop
  endfacet
  facet normal -0.866025 -0.5 0
    outer loop
      vertex 12.2132 -5.06467 42
      vertex 13.1683 -6.71889 40
      vertex 13.1683 -6.71889 42
    endloop
  endfacet
  facet normal -0.34202 -0.939693 0
    outer loop
      vertex 8.95506 -3.18356 40
      vertex 10.75 -3.83686 42
      vertex 8.95506 -3.18356 42
    endloop
  endfacet
  facet normal -0.34202 -0.939693 -0
    outer loop
      vertex 10.75 -3.83686 42
      vertex 8.95506 -3.18356 40
      vertex 10.75 -3.83686 40
    endloop
  endfacet
  facet normal 0.866025 -0.5 0
    outer loop
      vertex 2.83169 -6.71889 42
      vertex 3.78676 -5.06467 40
      vertex 3.78676 -5.06467 42
    endloop
  endfacet
  facet normal 0.866025 -0.5 0
    outer loop
      vertex 3.78676 -5.06467 40
      vertex 2.83169 -6.71889 42
      vertex 2.83169 -6.71889 40
    endloop
  endfacet
  facet normal 0.984808 -0.173648 0
    outer loop
      vertex 2.5 -8.6 42
      vertex 2.83169 -6.71889 40
      vertex 2.83169 -6.71889 42
    endloop
  endfacet
  facet normal 0.984808 -0.173648 0
    outer loop
      vertex 2.83169 -6.71889 40
      vertex 2.5 -8.6 42
      vertex 2.5 -8.6 40
    endloop
  endfacet
  facet normal 0.34202 -0.939693 0
    outer loop
      vertex 5.25 -3.83686 40
      vertex 7.04493 -3.18356 42
      vertex 5.25 -3.83686 42
    endloop
  endfacet
  facet normal 0.34202 -0.939693 0
    outer loop
      vertex 7.04493 -3.18356 42
      vertex 5.25 -3.83686 40
      vertex 7.04493 -3.18356 40
    endloop
  endfacet
  facet normal 0.34202 0.939693 -0
    outer loop
      vertex 7.04493 -14.0164 40
      vertex 5.25 -13.3631 42
      vertex 7.04493 -14.0164 42
    endloop
  endfacet
  facet normal 0.34202 0.939693 0
    outer loop
      vertex 5.25 -13.3631 42
      vertex 7.04493 -14.0164 40
      vertex 5.25 -13.3631 40
    endloop
  endfacet
  facet normal 0.866025 0.5 0
    outer loop
      vertex 3.78676 -12.1353 42
      vertex 2.83169 -10.4811 40
      vertex 2.83169 -10.4811 42
    endloop
  endfacet
  facet normal 0.866025 0.5 0
    outer loop
      vertex 2.83169 -10.4811 40
      vertex 3.78676 -12.1353 42
      vertex 3.78676 -12.1353 40
    endloop
  endfacet
  facet normal 0.984808 0.173648 0
    outer loop
      vertex 2.83169 -10.4811 42
      vertex 2.5 -8.6 40
      vertex 2.5 -8.6 42
    endloop
  endfacet
  facet normal 0.984808 0.173648 0
    outer loop
      vertex 2.5 -8.6 40
      vertex 2.83169 -10.4811 42
      vertex 2.83169 -10.4811 40
    endloop
  endfacet
  facet normal 0.642788 -0.766044 0
    outer loop
      vertex 3.78676 -5.06467 40
      vertex 5.25 -3.83686 42
      vertex 3.78676 -5.06467 42
    endloop
  endfacet
  facet normal 0.642788 -0.766044 0
    outer loop
      vertex 5.25 -3.83686 42
      vertex 3.78676 -5.06467 40
      vertex 5.25 -3.83686 40
    endloop
  endfacet
  facet normal -0.34202 0.939693 0
    outer loop
      vertex 10.75 -13.3631 40
      vertex 8.95506 -14.0164 42
      vertex 10.75 -13.3631 42
    endloop
  endfacet
  facet normal -0.34202 0.939693 0
    outer loop
      vertex 8.95506 -14.0164 42
      vertex 10.75 -13.3631 40
      vertex 8.95506 -14.0164 40
    endloop
  endfacet
  facet normal -0.984808 0.173648 0
    outer loop
      vertex 13.1683 -10.4811 40
      vertex 13.5 -8.6 42
      vertex 13.5 -8.6 40
    endloop
  endfacet
  facet normal -0.984808 0.173648 0
    outer loop
      vertex 13.5 -8.6 42
      vertex 13.1683 -10.4811 40
      vertex 13.1683 -10.4811 42
    endloop
  endfacet
  facet normal 0 1 -0
    outer loop
      vertex 8.95506 -14.0164 40
      vertex 7.04493 -14.0164 42
      vertex 8.95506 -14.0164 42
    endloop
  endfacet
  facet normal 0 1 0
    outer loop
      vertex 7.04493 -14.0164 42
      vertex 8.95506 -14.0164 40
      vertex 7.04493 -14.0164 40
    endloop
  endfacet
  facet normal 0.642788 0.766044 -0
    outer loop
      vertex 5.25 -13.3631 40
      vertex 3.78676 -12.1353 42
      vertex 5.25 -13.3631 42
    endloop
  endfacet
  facet normal 0.642788 0.766044 0
    outer loop
      vertex 3.78676 -12.1353 42
      vertex 5.25 -13.3631 40
      vertex 3.78676 -12.1353 40
    endloop
  endfacet
  facet normal -0.642788 0.766044 0
    outer loop
      vertex 12.2132 -12.1353 40
      vertex 10.75 -13.3631 42
      vertex 12.2132 -12.1353 42
    endloop
  endfacet
  facet normal -0.642788 0.766044 0
    outer loop
      vertex 10.75 -13.3631 42
      vertex 12.2132 -12.1353 40
      vertex 10.75 -13.3631 40
    endloop
  endfacet
  facet normal -0.866025 0.5 0
    outer loop
      vertex 12.2132 -12.1353 40
      vertex 13.1683 -10.4811 42
      vertex 13.1683 -10.4811 40
    endloop
  endfacet
  facet normal -0.866025 0.5 0
    outer loop
      vertex 13.1683 -10.4811 42
      vertex 12.2132 -12.1353 40
      vertex 12.2132 -12.1353 42
    endloop
  endfacet
  facet normal -0.984808 -0.173648 0
    outer loop
      vertex 13.5 8.6 40
      vertex 13.1683 10.4811 42
      vertex 13.1683 10.4811 40
    endloop
  endfacet
  facet normal -0.984808 -0.173648 0
    outer loop
      vertex 13.1683 10.4811 42
      vertex 13.5 8.6 40
      vertex 13.5 8.6 42
    endloop
  endfacet
  facet normal 0 -1 0
    outer loop
      vertex 7.04493 14.0164 40
      vertex 8.95506 14.0164 42
      vertex 7.04493 14.0164 42
    endloop
  endfacet
  facet normal 0 -1 -0
    outer loop
      vertex 8.95506 14.0164 42
      vertex 7.04493 14.0164 40
      vertex 8.95506 14.0164 40
    endloop
  endfacet
  facet normal 0 1 -0
    outer loop
      vertex 8.95506 3.18356 40
      vertex 7.04493 3.18356 42
      vertex 8.95506 3.18356 42
    endloop
  endfacet
  facet normal 0 1 0
    outer loop
      vertex 7.04493 3.18356 42
      vertex 8.95506 3.18356 40
      vertex 7.04493 3.18356 40
    endloop
  endfacet
  facet normal -0.34202 0.939693 0
    outer loop
      vertex 10.75 3.83686 40
      vertex 8.95506 3.18356 42
      vertex 10.75 3.83686 42
    endloop
  endfacet
  facet normal -0.34202 0.939693 0
    outer loop
      vertex 8.95506 3.18356 42
      vertex 10.75 3.83686 40
      vertex 8.95506 3.18356 40
    endloop
  endfacet
  facet normal -0.642788 -0.766044 0
    outer loop
      vertex 10.75 13.3631 40
      vertex 12.2132 12.1353 42
      vertex 10.75 13.3631 42
    endloop
  endfacet
  facet normal -0.642788 -0.766044 -0
    outer loop
      vertex 12.2132 12.1353 42
      vertex 10.75 13.3631 40
      vertex 12.2132 12.1353 40
    endloop
  endfacet
  facet normal -0.866025 -0.5 0
    outer loop
      vertex 13.1683 10.4811 40
      vertex 12.2132 12.1353 42
      vertex 12.2132 12.1353 40
    endloop
  endfacet
  facet normal -0.866025 -0.5 0
    outer loop
      vertex 12.2132 12.1353 42
      vertex 13.1683 10.4811 40
      vertex 13.1683 10.4811 42
    endloop
  endfacet
  facet normal -0.34202 -0.939693 0
    outer loop
      vertex 8.95506 14.0164 40
      vertex 10.75 13.3631 42
      vertex 8.95506 14.0164 42
    endloop
  endfacet
  facet normal -0.34202 -0.939693 -0
    outer loop
      vertex 10.75 13.3631 42
      vertex 8.95506 14.0164 40
      vertex 10.75 13.3631 40
    endloop
  endfacet
  facet normal 0.866025 -0.5 0
    outer loop
      vertex 2.83169 10.4811 42
      vertex 3.78676 12.1353 40
      vertex 3.78676 12.1353 42
    endloop
  endfacet
  facet normal 0.866025 -0.5 0
    outer loop
      vertex 3.78676 12.1353 40
      vertex 2.83169 10.4811 42
      vertex 2.83169 10.4811 40
    endloop
  endfacet
  facet normal 0.984808 -0.173648 0
    outer loop
      vertex 2.5 8.6 42
      vertex 2.83169 10.4811 40
      vertex 2.83169 10.4811 42
    endloop
  endfacet
  facet normal 0.984808 -0.173648 0
    outer loop
      vertex 2.83169 10.4811 40
      vertex 2.5 8.6 42
      vertex 2.5 8.6 40
    endloop
  endfacet
  facet normal 0.34202 -0.939693 0
    outer loop
      vertex 5.25 13.3631 40
      vertex 7.04493 14.0164 42
      vertex 5.25 13.3631 42
    endloop
  endfacet
  facet normal 0.34202 -0.939693 0
    outer loop
      vertex 7.04493 14.0164 42
      vertex 5.25 13.3631 40
      vertex 7.04493 14.0164 40
    endloop
  endfacet
  facet normal -0.984808 0.173648 0
    outer loop
      vertex 13.1683 6.71889 40
      vertex 13.5 8.6 42
      vertex 13.5 8.6 40
    endloop
  endfacet
  facet normal -0.984808 0.173648 0
    outer loop
      vertex 13.5 8.6 42
      vertex 13.1683 6.71889 40
      vertex 13.1683 6.71889 42
    endloop
  endfacet
  facet normal 0.34202 0.939693 -0
    outer loop
      vertex 7.04493 3.18356 40
      vertex 5.25 3.83686 42
      vertex 7.04493 3.18356 42
    endloop
  endfacet
  facet normal 0.34202 0.939693 0
    outer loop
      vertex 5.25 3.83686 42
      vertex 7.04493 3.18356 40
      vertex 5.25 3.83686 40
    endloop
  endfacet
  facet normal 0.866025 0.5 0
    outer loop
      vertex 3.78676 5.06467 42
      vertex 2.83169 6.71889 40
      vertex 2.83169 6.71889 42
    endloop
  endfacet
  facet normal 0.866025 0.5 0
    outer loop
      vertex 2.83169 6.71889 40
      vertex 3.78676 5.06467 42
      vertex 3.78676 5.06467 40
    endloop
  endfacet
  facet normal 0.984808 0.173648 0
    outer loop
      vertex 2.83169 6.71889 42
      vertex 2.5 8.6 40
      vertex 2.5 8.6 42
    endloop
  endfacet
  facet normal 0.984808 0.173648 0
    outer loop
      vertex 2.5 8.6 40
      vertex 2.83169 6.71889 42
      vertex 2.83169 6.71889 40
    endloop
  endfacet
  facet normal 0.642788 -0.766044 0
    outer loop
      vertex 3.78676 12.1353 40
      vertex 5.25 13.3631 42
      vertex 3.78676 12.1353 42
    endloop
  endfacet
  facet normal 0.642788 -0.766044 0
    outer loop
      vertex 5.25 13.3631 42
      vertex 3.78676 12.1353 40
      vertex 5.25 13.3631 40
    endloop
  endfacet
  facet normal 0.642788 0.766044 -0
    outer loop
      vertex 5.25 3.83686 40
      vertex 3.78676 5.06467 42
      vertex 5.25 3.83686 42
    endloop
  endfacet
  facet normal 0.642788 0.766044 0
    outer loop
      vertex 3.78676 5.06467 42
      vertex 5.25 3.83686 40
      vertex 3.78676 5.06467 40
    endloop
  endfacet
  facet normal -0.642788 0.766044 0
    outer loop
      vertex 12.2132 5.06467 40
      vertex 10.75 3.83686 42
      vertex 12.2132 5.06467 42
    endloop
  endfacet
  facet normal -0.642788 0.766044 0
    outer loop
      vertex 10.75 3.83686 42
      vertex 12.2132 5.06467 40
      vertex 10.75 3.83686 40
    endloop
  endfacet
  facet normal -0.866025 0.5 0
    outer loop
      vertex 12.2132 5.06467 40
      vertex 13.1683 6.71889 42
      vertex 13.1683 6.71889 40
    endloop
  endfacet
  facet normal -0.866025 0.5 0
    outer loop
      vertex 13.1683 6.71889 42
      vertex 12.2132 5.06467 40
      vertex 12.2132 5.06467 42
    endloop
  endfacet
  facet normal -0.984808 -0.173649 0
    outer loop
      vertex 29.2 -8.6 40
      vertex 28.8683 -6.71889 42
      vertex 28.8683 -6.71889 40
    endloop
  endfacet
  facet normal -0.984808 -0.173649 0
    outer loop
      vertex 28.8683 -6.71889 42
      vertex 29.2 -8.6 40
      vertex 29.2 -8.6 42
    endloop
  endfacet
  facet normal 0 -1 0
    outer loop
      vertex 22.7449 -3.18356 40
      vertex 24.6551 -3.18356 42
      vertex 22.7449 -3.18356 42
    endloop
  endfacet
  facet normal 0 -1 -0
    outer loop
      vertex 24.6551 -3.18356 42
      vertex 22.7449 -3.18356 40
      vertex 24.6551 -3.18356 40
    endloop
  endfacet
  facet normal 0 1 -0
    outer loop
      vertex 24.6551 -14.0164 40
      vertex 22.7449 -14.0164 42
      vertex 24.6551 -14.0164 42
    endloop
  endfacet
  facet normal 0 1 0
    outer loop
      vertex 22.7449 -14.0164 42
      vertex 24.6551 -14.0164 40
      vertex 22.7449 -14.0164 40
    endloop
  endfacet
  facet normal -0.642788 -0.766044 0
    outer loop
      vertex 26.45 -3.83686 40
      vertex 27.9132 -5.06467 42
      vertex 26.45 -3.83686 42
    endloop
  endfacet
  facet normal -0.642788 -0.766044 -0
    outer loop
      vertex 27.9132 -5.06467 42
      vertex 26.45 -3.83686 40
      vertex 27.9132 -5.06467 40
    endloop
  endfacet
  facet normal -0.866025 -0.5 0
    outer loop
      vertex 28.8683 -6.71889 40
      vertex 27.9132 -5.06467 42
      vertex 27.9132 -5.06467 40
    endloop
  endfacet
  facet normal -0.866025 -0.5 0
    outer loop
      vertex 27.9132 -5.06467 42
      vertex 28.8683 -6.71889 40
      vertex 28.8683 -6.71889 42
    endloop
  endfacet
  facet normal -0.34202 -0.939693 0
    outer loop
      vertex 24.6551 -3.18356 40
      vertex 26.45 -3.83686 42
      vertex 24.6551 -3.18356 42
    endloop
  endfacet
  facet normal -0.34202 -0.939693 -0
    outer loop
      vertex 26.45 -3.83686 42
      vertex 24.6551 -3.18356 40
      vertex 26.45 -3.83686 40
    endloop
  endfacet
  facet normal 0.866025 -0.500001 0
    outer loop
      vertex 18.5317 -6.71889 42
      vertex 19.4868 -5.06467 40
      vertex 19.4868 -5.06467 42
    endloop
  endfacet
  facet normal 0.866025 -0.500001 0
    outer loop
      vertex 19.4868 -5.06467 40
      vertex 18.5317 -6.71889 42
      vertex 18.5317 -6.71889 40
    endloop
  endfacet
  facet normal 0.984808 -0.173647 0
    outer loop
      vertex 18.2 -8.6 42
      vertex 18.5317 -6.71889 40
      vertex 18.5317 -6.71889 42
    endloop
  endfacet
  facet normal 0.984808 -0.173647 0
    outer loop
      vertex 18.5317 -6.71889 40
      vertex 18.2 -8.6 42
      vertex 18.2 -8.6 40
    endloop
  endfacet
  facet normal 0.342021 -0.939692 0
    outer loop
      vertex 20.95 -3.83686 40
      vertex 22.7449 -3.18356 42
      vertex 20.95 -3.83686 42
    endloop
  endfacet
  facet normal 0.342021 -0.939692 0
    outer loop
      vertex 22.7449 -3.18356 42
      vertex 20.95 -3.83686 40
      vertex 22.7449 -3.18356 40
    endloop
  endfacet
  facet normal -0.984808 0.173649 0
    outer loop
      vertex 28.8683 -10.4811 40
      vertex 29.2 -8.6 42
      vertex 29.2 -8.6 40
    endloop
  endfacet
  facet normal -0.984808 0.173649 0
    outer loop
      vertex 29.2 -8.6 42
      vertex 28.8683 -10.4811 40
      vertex 28.8683 -10.4811 42
    endloop
  endfacet
  facet normal 0.342021 0.939692 -0
    outer loop
      vertex 22.7449 -14.0164 40
      vertex 20.95 -13.3631 42
      vertex 22.7449 -14.0164 42
    endloop
  endfacet
  facet normal 0.342021 0.939692 0
    outer loop
      vertex 20.95 -13.3631 42
      vertex 22.7449 -14.0164 40
      vertex 20.95 -13.3631 40
    endloop
  endfacet
  facet normal 0.866025 0.500001 0
    outer loop
      vertex 19.4868 -12.1353 42
      vertex 18.5317 -10.4811 40
      vertex 18.5317 -10.4811 42
    endloop
  endfacet
  facet normal 0.866025 0.500001 0
    outer loop
      vertex 18.5317 -10.4811 40
      vertex 19.4868 -12.1353 42
      vertex 19.4868 -12.1353 40
    endloop
  endfacet
  facet normal 0.984808 0.173647 0
    outer loop
      vertex 18.5317 -10.4811 42
      vertex 18.2 -8.6 40
      vertex 18.2 -8.6 42
    endloop
  endfacet
  facet normal 0.984808 0.173647 0
    outer loop
      vertex 18.2 -8.6 40
      vertex 18.5317 -10.4811 42
      vertex 18.5317 -10.4811 40
    endloop
  endfacet
  facet normal 0.642787 -0.766045 0
    outer loop
      vertex 19.4868 -5.06467 40
      vertex 20.95 -3.83686 42
      vertex 19.4868 -5.06467 42
    endloop
  endfacet
  facet normal 0.642787 -0.766045 0
    outer loop
      vertex 20.95 -3.83686 42
      vertex 19.4868 -5.06467 40
      vertex 20.95 -3.83686 40
    endloop
  endfacet
  facet normal -0.34202 0.939693 0
    outer loop
      vertex 26.45 -13.3631 40
      vertex 24.6551 -14.0164 42
      vertex 26.45 -13.3631 42
    endloop
  endfacet
  facet normal -0.34202 0.939693 0
    outer loop
      vertex 24.6551 -14.0164 42
      vertex 26.45 -13.3631 40
      vertex 24.6551 -14.0164 40
    endloop
  endfacet
  facet normal 0.642787 0.766045 -0
    outer loop
      vertex 20.95 -13.3631 40
      vertex 19.4868 -12.1353 42
      vertex 20.95 -13.3631 42
    endloop
  endfacet
  facet normal 0.642787 0.766045 0
    outer loop
      vertex 19.4868 -12.1353 42
      vertex 20.95 -13.3631 40
      vertex 19.4868 -12.1353 40
    endloop
  endfacet
  facet normal -0.642788 0.766044 0
    outer loop
      vertex 27.9132 -12.1353 40
      vertex 26.45 -13.3631 42
      vertex 27.9132 -12.1353 42
    endloop
  endfacet
  facet normal -0.642788 0.766044 0
    outer loop
      vertex 26.45 -13.3631 42
      vertex 27.9132 -12.1353 40
      vertex 26.45 -13.3631 40
    endloop
  endfacet
  facet normal -0.866025 0.5 0
    outer loop
      vertex 27.9132 -12.1353 40
      vertex 28.8683 -10.4811 42
      vertex 28.8683 -10.4811 40
    endloop
  endfacet
  facet normal -0.866025 0.5 0
    outer loop
      vertex 28.8683 -10.4811 42
      vertex 27.9132 -12.1353 40
      vertex 27.9132 -12.1353 42
    endloop
  endfacet
  facet normal -0.984808 -0.173649 0
    outer loop
      vertex 29.2 8.6 40
      vertex 28.8683 10.4811 42
      vertex 28.8683 10.4811 40
    endloop
  endfacet
  facet normal -0.984808 -0.173649 0
    outer loop
      vertex 28.8683 10.4811 42
      vertex 29.2 8.6 40
      vertex 29.2 8.6 42
    endloop
  endfacet
  facet normal 0 -1 0
    outer loop
      vertex 22.7449 14.0164 40
      vertex 24.6551 14.0164 42
      vertex 22.7449 14.0164 42
    endloop
  endfacet
  facet normal 0 -1 -0
    outer loop
      vertex 24.6551 14.0164 42
      vertex 22.7449 14.0164 40
      vertex 24.6551 14.0164 40
    endloop
  endfacet
  facet normal 0 1 -0
    outer loop
      vertex 24.6551 3.18356 40
      vertex 22.7449 3.18356 42
      vertex 24.6551 3.18356 42
    endloop
  endfacet
  facet normal 0 1 0
    outer loop
      vertex 22.7449 3.18356 42
      vertex 24.6551 3.18356 40
      vertex 22.7449 3.18356 40
    endloop
  endfacet
  facet normal -0.642788 -0.766044 0
    outer loop
      vertex 26.45 13.3631 40
      vertex 27.9132 12.1353 42
      vertex 26.45 13.3631 42
    endloop
  endfacet
  facet normal -0.642788 -0.766044 -0
    outer loop
      vertex 27.9132 12.1353 42
      vertex 26.45 13.3631 40
      vertex 27.9132 12.1353 40
    endloop
  endfacet
  facet normal -0.866025 -0.5 0
    outer loop
      vertex 28.8683 10.4811 40
      vertex 27.9132 12.1353 42
      vertex 27.9132 12.1353 40
    endloop
  endfacet
  facet normal -0.866025 -0.5 0
    outer loop
      vertex 27.9132 12.1353 42
      vertex 28.8683 10.4811 40
      vertex 28.8683 10.4811 42
    endloop
  endfacet
  facet normal -0.34202 -0.939693 0
    outer loop
      vertex 24.6551 14.0164 40
      vertex 26.45 13.3631 42
      vertex 24.6551 14.0164 42
    endloop
  endfacet
  facet normal -0.34202 -0.939693 -0
    outer loop
      vertex 26.45 13.3631 42
      vertex 24.6551 14.0164 40
      vertex 26.45 13.3631 40
    endloop
  endfacet
  facet normal 0.866025 -0.500001 0
    outer loop
      vertex 18.5317 10.4811 42
      vertex 19.4868 12.1353 40
      vertex 19.4868 12.1353 42
    endloop
  endfacet
  facet normal 0.866025 -0.500001 0
    outer loop
      vertex 19.4868 12.1353 40
      vertex 18.5317 10.4811 42
      vertex 18.5317 10.4811 40
    endloop
  endfacet
  facet normal 0.984808 -0.173647 0
    outer loop
      vertex 18.2 8.6 42
      vertex 18.5317 10.4811 40
      vertex 18.5317 10.4811 42
    endloop
  endfacet
  facet normal 0.984808 -0.173647 0
    outer loop
      vertex 18.5317 10.4811 40
      vertex 18.2 8.6 42
      vertex 18.2 8.6 40
    endloop
  endfacet
  facet normal 0.342021 -0.939692 0
    outer loop
      vertex 20.95 13.3631 40
      vertex 22.7449 14.0164 42
      vertex 20.95 13.3631 42
    endloop
  endfacet
  facet normal 0.342021 -0.939692 0
    outer loop
      vertex 22.7449 14.0164 42
      vertex 20.95 13.3631 40
      vertex 22.7449 14.0164 40
    endloop
  endfacet
  facet normal -0.984808 0.173649 0
    outer loop
      vertex 28.8683 6.71889 40
      vertex 29.2 8.6 42
      vertex 29.2 8.6 40
    endloop
  endfacet
  facet normal -0.984808 0.173649 0
    outer loop
      vertex 29.2 8.6 42
      vertex 28.8683 6.71889 40
      vertex 28.8683 6.71889 42
    endloop
  endfacet
  facet normal 0.342021 0.939692 -0
    outer loop
      vertex 22.7449 3.18356 40
      vertex 20.95 3.83686 42
      vertex 22.7449 3.18356 42
    endloop
  endfacet
  facet normal 0.342021 0.939692 0
    outer loop
      vertex 20.95 3.83686 42
      vertex 22.7449 3.18356 40
      vertex 20.95 3.83686 40
    endloop
  endfacet
  facet normal 0.866025 0.500001 0
    outer loop
      vertex 19.4868 5.06467 42
      vertex 18.5317 6.71889 40
      vertex 18.5317 6.71889 42
    endloop
  endfacet
  facet normal 0.866025 0.500001 0
    outer loop
      vertex 18.5317 6.71889 40
      vertex 19.4868 5.06467 42
      vertex 19.4868 5.06467 40
    endloop
  endfacet
  facet normal 0.984808 0.173647 0
    outer loop
      vertex 18.5317 6.71889 42
      vertex 18.2 8.6 40
      vertex 18.2 8.6 42
    endloop
  endfacet
  facet normal 0.984808 0.173647 0
    outer loop
      vertex 18.2 8.6 40
      vertex 18.5317 6.71889 42
      vertex 18.5317 6.71889 40
    endloop
  endfacet
  facet normal 0.642787 -0.766045 0
    outer loop
      vertex 19.4868 12.1353 40
      vertex 20.95 13.3631 42
      vertex 19.4868 12.1353 42
    endloop
  endfacet
  facet normal 0.642787 -0.766045 0
    outer loop
      vertex 20.95 13.3631 42
      vertex 19.4868 12.1353 40
      vertex 20.95 13.3631 40
    endloop
  endfacet
  facet normal -0.34202 0.939693 0
    outer loop
      vertex 26.45 3.83686 40
      vertex 24.6551 3.18356 42
      vertex 26.45 3.83686 42
    endloop
  endfacet
  facet normal -0.34202 0.939693 0
    outer loop
      vertex 24.6551 3.18356 42
      vertex 26.45 3.83686 40
      vertex 24.6551 3.18356 40
    endloop
  endfacet
  facet normal 0.642787 0.766045 -0
    outer loop
      vertex 20.95 3.83686 40
      vertex 19.4868 5.06467 42
      vertex 20.95 3.83686 42
    endloop
  endfacet
  facet normal 0.642787 0.766045 0
    outer loop
      vertex 19.4868 5.06467 42
      vertex 20.95 3.83686 40
      vertex 19.4868 5.06467 40
    endloop
  endfacet
  facet normal -0.642788 0.766044 0
    outer loop
      vertex 27.9132 5.06467 40
      vertex 26.45 3.83686 42
      vertex 27.9132 5.06467 42
    endloop
  endfacet
  facet normal -0.642788 0.766044 0
    outer loop
      vertex 26.45 3.83686 42
      vertex 27.9132 5.06467 40
      vertex 26.45 3.83686 40
    endloop
  endfacet
  facet normal -0.866025 0.5 0
    outer loop
      vertex 27.9132 5.06467 40
      vertex 28.8683 6.71889 42
      vertex 28.8683 6.71889 40
    endloop
  endfacet
  facet normal -0.866025 0.5 0
    outer loop
      vertex 28.8683 6.71889 42
      vertex 27.9132 5.06467 40
      vertex 27.9132 5.06467 42
    endloop
  endfacet
  facet normal -0.809017 -0.587785 0
    outer loop
      vertex -50.3 -31.65 40
      vertex -51.2328 -30.3661 42
      vertex -51.2328 -30.3661 40
    endloop
  endfacet
  facet normal -0.809017 -0.587785 0
    outer loop
      vertex -51.2328 -30.3661 42
      vertex -50.3 -31.65 40
      vertex -50.3 -31.65 42
    endloop
  endfacet
  facet normal 1 -0 0
    outer loop
      vertex -52.7422 -32.4435 42
      vertex -52.7422 -30.8565 40
      vertex -52.7422 -30.8565 42
    endloop
  endfacet
  facet normal 1 0 0
    outer loop
      vertex -52.7422 -30.8565 40
      vertex -52.7422 -32.4435 42
      vertex -52.7422 -32.4435 40
    endloop
  endfacet
  facet normal 0.309018 -0.951056 0
    outer loop
      vertex -52.7422 -30.8565 40
      vertex -51.2328 -30.3661 42
      vertex -52.7422 -30.8565 42
    endloop
  endfacet
  facet normal 0.309018 -0.951056 0
    outer loop
      vertex -51.2328 -30.3661 42
      vertex -52.7422 -30.8565 40
      vertex -51.2328 -30.3661 40
    endloop
  endfacet
  facet normal 0.309016 0.951057 -0
    outer loop
      vertex -51.2328 -32.9339 40
      vertex -52.7422 -32.4435 42
      vertex -51.2328 -32.9339 42
    endloop
  endfacet
  facet normal 0.309016 0.951057 0
    outer loop
      vertex -52.7422 -32.4435 42
      vertex -51.2328 -32.9339 40
      vertex -52.7422 -32.4435 40
    endloop
  endfacet
  facet normal -0.809017 0.587786 0
    outer loop
      vertex -51.2328 -32.9339 40
      vertex -50.3 -31.65 42
      vertex -50.3 -31.65 40
    endloop
  endfacet
  facet normal -0.809017 0.587786 0
    outer loop
      vertex -50.3 -31.65 42
      vertex -51.2328 -32.9339 40
      vertex -51.2328 -32.9339 42
    endloop
  endfacet
  facet normal -0.809017 -0.587785 0
    outer loop
      vertex 53 -31.65 40
      vertex 52.0672 -30.3661 42
      vertex 52.0672 -30.3661 40
    endloop
  endfacet
  facet normal -0.809017 -0.587785 0
    outer loop
      vertex 52.0672 -30.3661 42
      vertex 53 -31.65 40
      vertex 53 -31.65 42
    endloop
  endfacet
  facet normal 1 -0 0
    outer loop
      vertex 50.5578 -32.4435 42
      vertex 50.5578 -30.8565 40
      vertex 50.5578 -30.8565 42
    endloop
  endfacet
  facet normal 1 0 0
    outer loop
      vertex 50.5578 -30.8565 40
      vertex 50.5578 -32.4435 42
      vertex 50.5578 -32.4435 40
    endloop
  endfacet
  facet normal 0.309018 -0.951056 0
    outer loop
      vertex 50.5578 -30.8565 40
      vertex 52.0672 -30.3661 42
      vertex 50.5578 -30.8565 42
    endloop
  endfacet
  facet normal 0.309018 -0.951056 0
    outer loop
      vertex 52.0672 -30.3661 42
      vertex 50.5578 -30.8565 40
      vertex 52.0672 -30.3661 40
    endloop
  endfacet
  facet normal 0.309016 0.951057 -0
    outer loop
      vertex 52.0672 -32.9339 40
      vertex 50.5578 -32.4435 42
      vertex 52.0672 -32.9339 42
    endloop
  endfacet
  facet normal 0.309016 0.951057 0
    outer loop
      vertex 50.5578 -32.4435 42
      vertex 52.0672 -32.9339 40
      vertex 50.5578 -32.4435 40
    endloop
  endfacet
  facet normal -0.809017 0.587786 0
    outer loop
      vertex 52.0672 -32.9339 40
      vertex 53 -31.65 42
      vertex 53 -31.65 40
    endloop
  endfacet
  facet normal -0.809017 0.587786 0
    outer loop
      vertex 53 -31.65 42
      vertex 52.0672 -32.9339 40
      vertex 52.0672 -32.9339 42
    endloop
  endfacet
  facet normal -0.809017 -0.587785 0
    outer loop
      vertex -50.3 31.65 40
      vertex -51.2328 32.9339 42
      vertex -51.2328 32.9339 40
    endloop
  endfacet
  facet normal -0.809017 -0.587785 0
    outer loop
      vertex -51.2328 32.9339 42
      vertex -50.3 31.65 40
      vertex -50.3 31.65 42
    endloop
  endfacet
  facet normal 1 -0 0
    outer loop
      vertex -52.7422 30.8565 42
      vertex -52.7422 32.4435 40
      vertex -52.7422 32.4435 42
    endloop
  endfacet
  facet normal 1 0 0
    outer loop
      vertex -52.7422 32.4435 40
      vertex -52.7422 30.8565 42
      vertex -52.7422 30.8565 40
    endloop
  endfacet
  facet normal 0.309016 -0.951057 0
    outer loop
      vertex -52.7422 32.4435 40
      vertex -51.2328 32.9339 42
      vertex -52.7422 32.4435 42
    endloop
  endfacet
  facet normal 0.309016 -0.951057 0
    outer loop
      vertex -51.2328 32.9339 42
      vertex -52.7422 32.4435 40
      vertex -51.2328 32.9339 40
    endloop
  endfacet
  facet normal 0.309017 0.951057 -0
    outer loop
      vertex -51.2328 30.3661 40
      vertex -52.7422 30.8565 42
      vertex -51.2328 30.3661 42
    endloop
  endfacet
  facet normal 0.309017 0.951057 0
    outer loop
      vertex -52.7422 30.8565 42
      vertex -51.2328 30.3661 40
      vertex -52.7422 30.8565 40
    endloop
  endfacet
  facet normal -0.809017 0.587785 0
    outer loop
      vertex -51.2328 30.3661 40
      vertex -50.3 31.65 42
      vertex -50.3 31.65 40
    endloop
  endfacet
  facet normal -0.809017 0.587785 0
    outer loop
      vertex -50.3 31.65 42
      vertex -51.2328 30.3661 40
      vertex -51.2328 30.3661 42
    endloop
  endfacet
  facet normal -0.809017 -0.587785 0
    outer loop
      vertex 53 31.65 40
      vertex 52.0672 32.9339 42
      vertex 52.0672 32.9339 40
    endloop
  endfacet
  facet normal -0.809017 -0.587785 0
    outer loop
      vertex 52.0672 32.9339 42
      vertex 53 31.65 40
      vertex 53 31.65 42
    endloop
  endfacet
  facet normal 1 -0 0
    outer loop
      vertex 50.5578 30.8565 42
      vertex 50.5578 32.4435 40
      vertex 50.5578 32.4435 42
    endloop
  endfacet
  facet normal 1 0 0
    outer loop
      vertex 50.5578 32.4435 40
      vertex 50.5578 30.8565 42
      vertex 50.5578 30.8565 40
    endloop
  endfacet
  facet normal 0.309016 -0.951057 0
    outer loop
      vertex 50.5578 32.4435 40
      vertex 52.0672 32.9339 42
      vertex 50.5578 32.4435 42
    endloop
  endfacet
  facet normal 0.309016 -0.951057 0
    outer loop
      vertex 52.0672 32.9339 42
      vertex 50.5578 32.4435 40
      vertex 52.0672 32.9339 40
    endloop
  endfacet
  facet normal -0.809017 0.587785 0
    outer loop
      vertex 52.0672 30.3661 40
      vertex 53 31.65 42
      vertex 53 31.65 40
    endloop
  endfacet
  facet normal -0.809017 0.587785 0
    outer loop
      vertex 53 31.65 42
      vertex 52.0672 30.3661 40
      vertex 52.0672 30.3661 42
    endloop
  endfacet
  facet normal 0.309017 0.951057 -0
    outer loop
      vertex 52.0672 30.3661 40
      vertex 50.5578 30.8565 42
      vertex 52.0672 30.3661 42
    endloop
  endfacet
  facet normal 0.309017 0.951057 0
    outer loop
      vertex 50.5578 30.8565 42
      vertex 52.0672 30.3661 40
      vertex 50.5578 30.8565 40
    endloop
  endfacet
endsolid OpenSCAD_Model
