solid OpenSCAD_Model
  facet normal 0.959493 0.281734 0
    outer loop
      vertex -48.3 -31.65 14
      vertex -48.8318 -29.8389 2
      vertex -48.8318 -29.8389 14
    endloop
  endfacet
  facet normal 0.959493 0.281734 0
    outer loop
      vertex -48.8318 -29.8389 2
      vertex -48.3 -31.65 14
      vertex -48.3 -31.65 2
    endloop
  endfacet
  facet normal 0.142315 0.989821 -0
    outer loop
      vertex -50.2584 -28.6027 2
      vertex -52.1268 -28.3341 14
      vertex -50.2584 -28.6027 14
    endloop
  endfacet
  facet normal 0.142315 0.989821 0
    outer loop
      vertex -52.1268 -28.3341 14
      vertex -50.2584 -28.6027 2
      vertex -52.1268 -28.3341 2
    endloop
  endfacet
  facet normal 0.654861 0.75575 -0
    outer loop
      vertex -48.8318 -29.8389 2
      vertex -50.2584 -28.6027 14
      vertex -48.8318 -29.8389 14
    endloop
  endfacet
  facet normal 0.654861 0.75575 0
    outer loop
      vertex -50.2584 -28.6027 14
      vertex -48.8318 -29.8389 2
      vertex -50.2584 -28.6027 2
    endloop
  endfacet
  facet normal -0.415415 0.909632 0
    outer loop
      vertex -52.1268 -28.3341 2
      vertex -53 -28.7329 14
      vertex -52.1268 -28.3341 14
    endloop
  endfacet
  facet normal -0.415415 0.909632 0
    outer loop
      vertex -53 -28.7329 14
      vertex -52.1268 -28.3341 2
      vertex -53 -28.7329 2
    endloop
  endfacet
  facet normal 0.959493 -0.281733 0
    outer loop
      vertex -48.6964 -33 14
      vertex -48.3 -31.65 2
      vertex -48.3 -31.65 14
    endloop
  endfacet
  facet normal 0.959493 -0.281733 0
    outer loop
      vertex -48.3 -31.65 2
      vertex -48.6964 -33 14
      vertex -48.6964 -33 2
    endloop
  endfacet
  facet normal 0 0 -1
    outer loop
      vertex 53.5858 -35 0
      vertex 55 33.5858 0
      vertex 55 -33.5858 0
    endloop
  endfacet
  facet normal 0 0 -1
    outer loop
      vertex 53.5858 -35 0
      vertex 53.5858 35 0
      vertex 55 33.5858 0
    endloop
  endfacet
  facet normal 0 0 -1
    outer loop
      vertex -53.5858 -35 0
      vertex 53.5858 35 0
      vertex 53.5858 -35 0
    endloop
  endfacet
  facet normal 0 0 -1
    outer loop
      vertex -53.5858 -35 0
      vertex -53.5858 35 0
      vertex 53.5858 35 0
    endloop
  endfacet
  facet normal 0 0 -1
    outer loop
      vertex -55 -33.5858 0
      vertex -53.5858 35 0
      vertex -53.5858 -35 0
    endloop
  endfacet
  facet normal 0 0 -1
    outer loop
      vertex -53.5858 35 0
      vertex -55 -33.5858 0
      vertex -55 33.5858 0
    endloop
  endfacet
  facet normal -0.809017 -0.587785 0
    outer loop
      vertex -50.3 -31.65 2
      vertex -51.2328 -30.3661 14
      vertex -51.2328 -30.3661 2
    endloop
  endfacet
  facet normal -0.809017 -0.587785 0
    outer loop
      vertex -51.2328 -30.3661 14
      vertex -50.3 -31.65 2
      vertex -50.3 -31.65 14
    endloop
  endfacet
  facet normal 1 -0 0
    outer loop
      vertex -52.7422 -32.4435 14
      vertex -52.7422 -30.8565 2
      vertex -52.7422 -30.8565 14
    endloop
  endfacet
  facet normal 1 0 0
    outer loop
      vertex -52.7422 -30.8565 2
      vertex -52.7422 -32.4435 14
      vertex -52.7422 -32.4435 2
    endloop
  endfacet
  facet normal 0.309018 -0.951056 0
    outer loop
      vertex -52.7422 -30.8565 2
      vertex -51.2328 -30.3661 14
      vertex -52.7422 -30.8565 14
    endloop
  endfacet
  facet normal 0.309018 -0.951056 0
    outer loop
      vertex -51.2328 -30.3661 14
      vertex -52.7422 -30.8565 2
      vertex -51.2328 -30.3661 2
    endloop
  endfacet
  facet normal 0.309018 0.951056 -0
    outer loop
      vertex -51.2328 -32.9339 2
      vertex -52.7422 -32.4435 14
      vertex -51.2328 -32.9339 14
    endloop
  endfacet
  facet normal 0.309018 0.951056 0
    outer loop
      vertex -52.7422 -32.4435 14
      vertex -51.2328 -32.9339 2
      vertex -52.7422 -32.4435 2
    endloop
  endfacet
  facet normal -0.809017 0.587785 0
    outer loop
      vertex -51.2328 -32.9339 2
      vertex -50.3 -31.65 14
      vertex -50.3 -31.65 2
    endloop
  endfacet
  facet normal -0.809017 0.587785 0
    outer loop
      vertex -50.3 -31.65 14
      vertex -51.2328 -32.9339 2
      vertex -51.2328 -32.9339 14
    endloop
  endfacet
  facet normal -1 0 0
    outer loop
      vertex 48.4357 -32.5938 2
      vertex 48.4357 -30.7062 14
      vertex 48.4357 -30.7062 2
    endloop
  endfacet
  facet normal -1 -0 0
    outer loop
      vertex 48.4357 -30.7062 14
      vertex 48.4357 -32.5938 2
      vertex 48.4357 -32.5938 14
    endloop
  endfacet
  facet normal 0.142315 0.989821 -0
    outer loop
      vertex 53 -28.5967 2
      vertex 51.1732 -28.3341 14
      vertex 53 -28.5967 14
    endloop
  endfacet
  facet normal 0.142315 0.989821 0
    outer loop
      vertex 51.1732 -28.3341 14
      vertex 53 -28.5967 2
      vertex 51.1732 -28.3341 2
    endloop
  endfacet
  facet normal -0.841253 0.540642 0
    outer loop
      vertex 48.4357 -30.7062 2
      vertex 49.4562 -29.1182 14
      vertex 49.4562 -29.1182 2
    endloop
  endfacet
  facet normal -0.841253 0.540642 0
    outer loop
      vertex 49.4562 -29.1182 14
      vertex 48.4357 -30.7062 2
      vertex 48.4357 -30.7062 14
    endloop
  endfacet
  facet normal -0.415416 0.909632 0
    outer loop
      vertex 51.1732 -28.3341 2
      vertex 49.4562 -29.1182 14
      vertex 51.1732 -28.3341 14
    endloop
  endfacet
  facet normal -0.415416 0.909632 0
    outer loop
      vertex 49.4562 -29.1182 14
      vertex 51.1732 -28.3341 2
      vertex 49.4562 -29.1182 2
    endloop
  endfacet
  facet normal -0.841253 -0.540642 0
    outer loop
      vertex 48.6967 -33 2
      vertex 48.4357 -32.5938 14
      vertex 48.4357 -32.5938 2
    endloop
  endfacet
  facet normal -0.841253 -0.540642 0
    outer loop
      vertex 48.4357 -32.5938 14
      vertex 48.6967 -33 2
      vertex 48.6967 -33 14
    endloop
  endfacet
  facet normal -0.809017 -0.587785 0
    outer loop
      vertex 53 -31.65 2
      vertex 52.0672 -30.3661 14
      vertex 52.0672 -30.3661 2
    endloop
  endfacet
  facet normal -0.809017 -0.587785 0
    outer loop
      vertex 52.0672 -30.3661 14
      vertex 53 -31.65 2
      vertex 53 -31.65 14
    endloop
  endfacet
  facet normal 1 -0 0
    outer loop
      vertex 50.5578 -32.4435 14
      vertex 50.5578 -30.8565 2
      vertex 50.5578 -30.8565 14
    endloop
  endfacet
  facet normal 1 0 0
    outer loop
      vertex 50.5578 -30.8565 2
      vertex 50.5578 -32.4435 14
      vertex 50.5578 -32.4435 2
    endloop
  endfacet
  facet normal 0.309018 -0.951056 0
    outer loop
      vertex 50.5578 -30.8565 2
      vertex 52.0672 -30.3661 14
      vertex 50.5578 -30.8565 14
    endloop
  endfacet
  facet normal 0.309018 -0.951056 0
    outer loop
      vertex 52.0672 -30.3661 14
      vertex 50.5578 -30.8565 2
      vertex 52.0672 -30.3661 2
    endloop
  endfacet
  facet normal 0.309018 0.951056 -0
    outer loop
      vertex 52.0672 -32.9339 2
      vertex 50.5578 -32.4435 14
      vertex 52.0672 -32.9339 14
    endloop
  endfacet
  facet normal 0.309018 0.951056 0
    outer loop
      vertex 50.5578 -32.4435 14
      vertex 52.0672 -32.9339 2
      vertex 50.5578 -32.4435 2
    endloop
  endfacet
  facet normal -0.809017 0.587785 0
    outer loop
      vertex 52.0672 -32.9339 2
      vertex 53 -31.65 14
      vertex 53 -31.65 2
    endloop
  endfacet
  facet normal -0.809017 0.587785 0
    outer loop
      vertex 53 -31.65 14
      vertex 52.0672 -32.9339 2
      vertex 52.0672 -32.9339 14
    endloop
  endfacet
  facet normal 0.959493 0.281733 0
    outer loop
      vertex -48.3 31.65 14
      vertex -48.6964 33 2
      vertex -48.6964 33 14
    endloop
  endfacet
  facet normal 0.959493 0.281733 0
    outer loop
      vertex -48.6964 33 2
      vertex -48.3 31.65 14
      vertex -48.3 31.65 2
    endloop
  endfacet
  facet normal 0.142315 -0.989821 0
    outer loop
      vertex -52.1268 28.3341 2
      vertex -50.2584 28.6027 14
      vertex -52.1268 28.3341 14
    endloop
  endfacet
  facet normal 0.142315 -0.989821 0
    outer loop
      vertex -50.2584 28.6027 14
      vertex -52.1268 28.3341 2
      vertex -50.2584 28.6027 2
    endloop
  endfacet
  facet normal 0.959493 -0.281734 0
    outer loop
      vertex -48.8318 29.8389 14
      vertex -48.3 31.65 2
      vertex -48.3 31.65 14
    endloop
  endfacet
  facet normal 0.959493 -0.281734 0
    outer loop
      vertex -48.3 31.65 2
      vertex -48.8318 29.8389 14
      vertex -48.8318 29.8389 2
    endloop
  endfacet
  facet normal 0.654861 -0.75575 0
    outer loop
      vertex -50.2584 28.6027 2
      vertex -48.8318 29.8389 14
      vertex -50.2584 28.6027 14
    endloop
  endfacet
  facet normal 0.654861 -0.75575 0
    outer loop
      vertex -48.8318 29.8389 14
      vertex -50.2584 28.6027 2
      vertex -48.8318 29.8389 2
    endloop
  endfacet
  facet normal -0.415415 -0.909632 0
    outer loop
      vertex -53 28.7329 2
      vertex -52.1268 28.3341 14
      vertex -53 28.7329 14
    endloop
  endfacet
  facet normal -0.415415 -0.909632 -0
    outer loop
      vertex -52.1268 28.3341 14
      vertex -53 28.7329 2
      vertex -52.1268 28.3341 2
    endloop
  endfacet
  facet normal -0.809017 -0.587785 0
    outer loop
      vertex -50.3 31.65 2
      vertex -51.2328 32.9339 14
      vertex -51.2328 32.9339 2
    endloop
  endfacet
  facet normal -0.809017 -0.587785 0
    outer loop
      vertex -51.2328 32.9339 14
      vertex -50.3 31.65 2
      vertex -50.3 31.65 14
    endloop
  endfacet
  facet normal 1 -0 0
    outer loop
      vertex -52.7422 30.8565 14
      vertex -52.7422 32.4435 2
      vertex -52.7422 32.4435 14
    endloop
  endfacet
  facet normal 1 0 0
    outer loop
      vertex -52.7422 32.4435 2
      vertex -52.7422 30.8565 14
      vertex -52.7422 30.8565 2
    endloop
  endfacet
  facet normal 0.309018 -0.951056 0
    outer loop
      vertex -52.7422 32.4435 2
      vertex -51.2328 32.9339 14
      vertex -52.7422 32.4435 14
    endloop
  endfacet
  facet normal 0.309018 -0.951056 0
    outer loop
      vertex -51.2328 32.9339 14
      vertex -52.7422 32.4435 2
      vertex -51.2328 32.9339 2
    endloop
  endfacet
  facet normal 0.309018 0.951056 -0
    outer loop
      vertex -51.2328 30.3661 2
      vertex -52.7422 30.8565 14
      vertex -51.2328 30.3661 14
    endloop
  endfacet
  facet normal 0.309018 0.951056 0
    outer loop
      vertex -52.7422 30.8565 14
      vertex -51.2328 30.3661 2
      vertex -52.7422 30.8565 2
    endloop
  endfacet
  facet normal -0.809017 0.587785 0
    outer loop
      vertex -51.2328 30.3661 2
      vertex -50.3 31.65 14
      vertex -50.3 31.65 2
    endloop
  endfacet
  facet normal -0.809017 0.587785 0
    outer loop
      vertex -50.3 31.65 14
      vertex -51.2328 30.3661 2
      vertex -51.2328 30.3661 14
    endloop
  endfacet
  facet normal -1 0 0
    outer loop
      vertex 48.4357 30.7062 2
      vertex 48.4357 32.5938 14
      vertex 48.4357 32.5938 2
    endloop
  endfacet
  facet normal -1 -0 0
    outer loop
      vertex 48.4357 32.5938 14
      vertex 48.4357 30.7062 2
      vertex 48.4357 30.7062 14
    endloop
  endfacet
  facet normal 0.142315 -0.989821 0
    outer loop
      vertex 51.1732 28.3341 2
      vertex 53 28.5967 14
      vertex 51.1732 28.3341 14
    endloop
  endfacet
  facet normal 0.142315 -0.989821 0
    outer loop
      vertex 53 28.5967 14
      vertex 51.1732 28.3341 2
      vertex 53 28.5967 2
    endloop
  endfacet
  facet normal -0.841253 0.540642 0
    outer loop
      vertex 48.4357 32.5938 2
      vertex 48.6967 33 14
      vertex 48.6967 33 2
    endloop
  endfacet
  facet normal -0.841253 0.540642 0
    outer loop
      vertex 48.6967 33 14
      vertex 48.4357 32.5938 2
      vertex 48.4357 32.5938 14
    endloop
  endfacet
  facet normal -0.841253 -0.540642 0
    outer loop
      vertex 49.4562 29.1182 2
      vertex 48.4357 30.7062 14
      vertex 48.4357 30.7062 2
    endloop
  endfacet
  facet normal -0.841253 -0.540642 0
    outer loop
      vertex 48.4357 30.7062 14
      vertex 49.4562 29.1182 2
      vertex 49.4562 29.1182 14
    endloop
  endfacet
  facet normal -0.415416 -0.909632 0
    outer loop
      vertex 49.4562 29.1182 2
      vertex 51.1732 28.3341 14
      vertex 49.4562 29.1182 14
    endloop
  endfacet
  facet normal -0.415416 -0.909632 -0
    outer loop
      vertex 51.1732 28.3341 14
      vertex 49.4562 29.1182 2
      vertex 51.1732 28.3341 2
    endloop
  endfacet
  facet normal -0.809017 -0.587785 0
    outer loop
      vertex 53 31.65 2
      vertex 52.0672 32.9339 14
      vertex 52.0672 32.9339 2
    endloop
  endfacet
  facet normal -0.809017 -0.587785 0
    outer loop
      vertex 52.0672 32.9339 14
      vertex 53 31.65 2
      vertex 53 31.65 14
    endloop
  endfacet
  facet normal 1 -0 0
    outer loop
      vertex 50.5578 30.8565 14
      vertex 50.5578 32.4435 2
      vertex 50.5578 32.4435 14
    endloop
  endfacet
  facet normal 1 0 0
    outer loop
      vertex 50.5578 32.4435 2
      vertex 50.5578 30.8565 14
      vertex 50.5578 30.8565 2
    endloop
  endfacet
  facet normal 0.309018 -0.951056 0
    outer loop
      vertex 50.5578 32.4435 2
      vertex 52.0672 32.9339 14
      vertex 50.5578 32.4435 14
    endloop
  endfacet
  facet normal 0.309018 -0.951056 0
    outer loop
      vertex 52.0672 32.9339 14
      vertex 50.5578 32.4435 2
      vertex 52.0672 32.9339 2
    endloop
  endfacet
  facet normal 0.309018 0.951056 -0
    outer loop
      vertex 52.0672 30.3661 2
      vertex 50.5578 30.8565 14
      vertex 52.0672 30.3661 14
    endloop
  endfacet
  facet normal 0.309018 0.951056 0
    outer loop
      vertex 50.5578 30.8565 14
      vertex 52.0672 30.3661 2
      vertex 50.5578 30.8565 2
    endloop
  endfacet
  facet normal -0.809017 0.587785 0
    outer loop
      vertex 52.0672 30.3661 2
      vertex 53 31.65 14
      vertex 53 31.65 2
    endloop
  endfacet
  facet normal -0.809017 0.587785 0
    outer loop
      vertex 53 31.65 14
      vertex 52.0672 30.3661 2
      vertex 52.0672 30.3661 14
    endloop
  endfacet
  facet normal -1 0 0
    outer loop
      vertex -55 -33.5858 0
      vertex -55 33.5858 14
      vertex -55 33.5858 0
    endloop
  endfacet
  facet normal -1 -0 0
    outer loop
      vertex -55 33.5858 14
      vertex -55 -33.5858 0
      vertex -55 -33.5858 14
    endloop
  endfacet
  facet normal 0 0 1
    outer loop
      vertex -51.2328 32.9339 2
      vertex -51.2328 30.3661 2
      vertex -50.3 31.65 2
    endloop
  endfacet
  facet normal -0 0 1
    outer loop
      vertex -52.7422 32.4435 2
      vertex -51.2328 30.3661 2
      vertex -51.2328 32.9339 2
    endloop
  endfacet
  facet normal 0 0 1
    outer loop
      vertex -51.2328 30.3661 2
      vertex -52.7422 32.4435 2
      vertex -52.7422 30.8565 2
    endloop
  endfacet
  facet normal 0 0 1
    outer loop
      vertex -51.2328 -30.3661 2
      vertex -51.2328 -32.9339 2
      vertex -50.3 -31.65 2
    endloop
  endfacet
  facet normal -0 0 1
    outer loop
      vertex -52.7422 -30.8565 2
      vertex -51.2328 -32.9339 2
      vertex -51.2328 -30.3661 2
    endloop
  endfacet
  facet normal 0 0 1
    outer loop
      vertex -51.2328 -32.9339 2
      vertex -52.7422 -30.8565 2
      vertex -52.7422 -32.4435 2
    endloop
  endfacet
  facet normal -0 0 1
    outer loop
      vertex -48.8318 -29.8389 2
      vertex 48.4357 -30.7062 2
      vertex -48.8318 29.8389 2
    endloop
  endfacet
  facet normal 0 0 1
    outer loop
      vertex 48.4357 -30.7062 2
      vertex -48.8318 -29.8389 2
      vertex -48.3 -31.65 2
    endloop
  endfacet
  facet normal -0 0 1
    outer loop
      vertex -50.2584 28.6027 2
      vertex -48.8318 -29.8389 2
      vertex -48.8318 29.8389 2
    endloop
  endfacet
  facet normal 0 0 1
    outer loop
      vertex -50.2584 28.6027 2
      vertex -50.2584 -28.6027 2
      vertex -48.8318 -29.8389 2
    endloop
  endfacet
  facet normal -0 0 1
    outer loop
      vertex -52.1268 28.3341 2
      vertex -50.2584 -28.6027 2
      vertex -50.2584 28.6027 2
    endloop
  endfacet
  facet normal 0 0 1
    outer loop
      vertex -52.1268 28.3341 2
      vertex -52.1268 -28.3341 2
      vertex -50.2584 -28.6027 2
    endloop
  endfacet
  facet normal 0 0 1
    outer loop
      vertex -53 28.7329 2
      vertex -52.1268 -28.3341 2
      vertex -52.1268 28.3341 2
    endloop
  endfacet
  facet normal 0 0 1
    outer loop
      vertex -52.1268 -28.3341 2
      vertex -53 28.7329 2
      vertex -53 -28.7329 2
    endloop
  endfacet
  facet normal -0 0 1
    outer loop
      vertex -48.3 31.65 2
      vertex 48.4357 30.7062 2
      vertex 48.4357 32.5938 2
    endloop
  endfacet
  facet normal 0 0 1
    outer loop
      vertex -48.8318 29.8389 2
      vertex 48.4357 30.7062 2
      vertex -48.3 31.65 2
    endloop
  endfacet
  facet normal 0 0 1
    outer loop
      vertex 48.4357 30.7062 2
      vertex -48.8318 29.8389 2
      vertex 48.4357 -30.7062 2
    endloop
  endfacet
  facet normal -0 0 1
    outer loop
      vertex -48.6964 33 2
      vertex 48.4357 32.5938 2
      vertex 48.6967 33 2
    endloop
  endfacet
  facet normal 0 0 1
    outer loop
      vertex 48.4357 32.5938 2
      vertex -48.6964 33 2
      vertex -48.3 31.65 2
    endloop
  endfacet
  facet normal -0 0 1
    outer loop
      vertex 51.1732 28.3341 2
      vertex 53 -28.5967 2
      vertex 53 28.5967 2
    endloop
  endfacet
  facet normal 0 0 1
    outer loop
      vertex 51.1732 28.3341 2
      vertex 51.1732 -28.3341 2
      vertex 53 -28.5967 2
    endloop
  endfacet
  facet normal 0 0 1
    outer loop
      vertex 49.4562 29.1182 2
      vertex 51.1732 -28.3341 2
      vertex 51.1732 28.3341 2
    endloop
  endfacet
  facet normal 0 0 1
    outer loop
      vertex 49.4562 29.1182 2
      vertex 49.4562 -29.1182 2
      vertex 51.1732 -28.3341 2
    endloop
  endfacet
  facet normal 0 0 1
    outer loop
      vertex 48.4357 30.7062 2
      vertex 49.4562 -29.1182 2
      vertex 49.4562 29.1182 2
    endloop
  endfacet
  facet normal 0 0 1
    outer loop
      vertex 49.4562 -29.1182 2
      vertex 48.4357 30.7062 2
      vertex 48.4357 -30.7062 2
    endloop
  endfacet
  facet normal 0 0 1
    outer loop
      vertex 48.4357 -30.7062 2
      vertex -48.3 -31.65 2
      vertex 48.4357 -32.5938 2
    endloop
  endfacet
  facet normal 0 0 1
    outer loop
      vertex -48.6964 -33 2
      vertex 48.4357 -32.5938 2
      vertex -48.3 -31.65 2
    endloop
  endfacet
  facet normal 0 0 1
    outer loop
      vertex 48.4357 -32.5938 2
      vertex -48.6964 -33 2
      vertex 48.6967 -33 2
    endloop
  endfacet
  facet normal 0 0 1
    outer loop
      vertex 52.0672 -30.3661 2
      vertex 52.0672 -32.9339 2
      vertex 53 -31.65 2
    endloop
  endfacet
  facet normal -0 0 1
    outer loop
      vertex 50.5578 -30.8565 2
      vertex 52.0672 -32.9339 2
      vertex 52.0672 -30.3661 2
    endloop
  endfacet
  facet normal 0 0 1
    outer loop
      vertex 52.0672 -32.9339 2
      vertex 50.5578 -30.8565 2
      vertex 50.5578 -32.4435 2
    endloop
  endfacet
  facet normal 0 0 1
    outer loop
      vertex 52.0672 32.9339 2
      vertex 52.0672 30.3661 2
      vertex 53 31.65 2
    endloop
  endfacet
  facet normal -0 0 1
    outer loop
      vertex 50.5578 32.4435 2
      vertex 52.0672 30.3661 2
      vertex 52.0672 32.9339 2
    endloop
  endfacet
  facet normal 0 0 1
    outer loop
      vertex 52.0672 30.3661 2
      vertex 50.5578 32.4435 2
      vertex 50.5578 30.8565 2
    endloop
  endfacet
  facet normal 1 -0 0
    outer loop
      vertex 55 -33.5858 14
      vertex 55 33.5858 0
      vertex 55 33.5858 14
    endloop
  endfacet
  facet normal 1 0 0
    outer loop
      vertex 55 33.5858 0
      vertex 55 -33.5858 14
      vertex 55 -33.5858 0
    endloop
  endfacet
  facet normal 0 1 -0
    outer loop
      vertex 53.5858 35 0
      vertex -53.5858 35 14
      vertex 53.5858 35 14
    endloop
  endfacet
  facet normal 0 1 0
    outer loop
      vertex -53.5858 35 14
      vertex 53.5858 35 0
      vertex -53.5858 35 0
    endloop
  endfacet
  facet normal 0 -1 0
    outer loop
      vertex -53.5858 -35 0
      vertex 53.5858 -35 14
      vertex -53.5858 -35 14
    endloop
  endfacet
  facet normal 0 -1 -0
    outer loop
      vertex 53.5858 -35 14
      vertex -53.5858 -35 0
      vertex 53.5858 -35 0
    endloop
  endfacet
  facet normal 1 -0 0
    outer loop
      vertex -53 -28.7329 14
      vertex -53 28.7329 2
      vertex -53 28.7329 14
    endloop
  endfacet
  facet normal 1 0 0
    outer loop
      vertex -53 28.7329 2
      vertex -53 -28.7329 14
      vertex -53 -28.7329 2
    endloop
  endfacet
  facet normal -1 0 0
    outer loop
      vertex 53 -28.5967 2
      vertex 53 28.5967 14
      vertex 53 28.5967 2
    endloop
  endfacet
  facet normal -1 -0 0
    outer loop
      vertex 53 28.5967 14
      vertex 53 -28.5967 2
      vertex 53 -28.5967 14
    endloop
  endfacet
  facet normal 0 1 -0
    outer loop
      vertex 48.6967 -33 2
      vertex -48.6964 -33 14
      vertex 48.6967 -33 14
    endloop
  endfacet
  facet normal 0 1 0
    outer loop
      vertex -48.6964 -33 14
      vertex 48.6967 -33 2
      vertex -48.6964 -33 2
    endloop
  endfacet
  facet normal 0 -1 0
    outer loop
      vertex -48.6964 33 2
      vertex 48.6967 33 14
      vertex -48.6964 33 14
    endloop
  endfacet
  facet normal 0 -1 -0
    outer loop
      vertex 48.6967 33 14
      vertex -48.6964 33 2
      vertex 48.6967 33 2
    endloop
  endfacet
  facet normal 0 0 1
    outer loop
      vertex -50.3 -31.65 14
      vertex -48.3 -31.65 14
      vertex -48.8318 -29.8389 14
    endloop
  endfacet
  facet normal 0 0 1
    outer loop
      vertex 48.4357 -32.5938 14
      vertex 50.5578 -32.4435 14
      vertex 48.4357 -30.7062 14
    endloop
  endfacet
  facet normal 0 0 1
    outer loop
      vertex 50.5578 -32.4435 14
      vertex 48.4357 -32.5938 14
      vertex 48.6967 -33 14
    endloop
  endfacet
  facet normal 0 0 1
    outer loop
      vertex 48.4357 30.7062 14
      vertex 50.5578 30.8565 14
      vertex 48.4357 32.5938 14
    endloop
  endfacet
  facet normal 0 0 1
    outer loop
      vertex 50.5578 30.8565 14
      vertex 48.4357 30.7062 14
      vertex 49.4562 29.1182 14
    endloop
  endfacet
  facet normal 0 0 1
    outer loop
      vertex -50.3 31.65 14
      vertex -48.3 31.65 14
      vertex -48.6964 33 14
    endloop
  endfacet
  facet normal 0 0 1
    outer loop
      vertex -48.8318 -29.8389 14
      vertex -51.2328 -30.3661 14
      vertex -50.3 -31.65 14
    endloop
  endfacet
  facet normal 0 0 1
    outer loop
      vertex -52.1268 -28.3341 14
      vertex -51.2328 -30.3661 14
      vertex -50.2584 -28.6027 14
    endloop
  endfacet
  facet normal -0 0 1
    outer loop
      vertex -53 -28.7329 14
      vertex -51.2328 -30.3661 14
      vertex -52.1268 -28.3341 14
    endloop
  endfacet
  facet normal 0 0 1
    outer loop
      vertex -55 -33.5858 14
      vertex -52.7422 -30.8565 14
      vertex -53 -28.7329 14
    endloop
  endfacet
  facet normal 0 0 1
    outer loop
      vertex -51.2328 -30.3661 14
      vertex -53 -28.7329 14
      vertex -52.7422 -30.8565 14
    endloop
  endfacet
  facet normal 0 0 1
    outer loop
      vertex -48.8318 29.8389 14
      vertex -51.2328 30.3661 14
      vertex -50.2584 28.6027 14
    endloop
  endfacet
  facet normal 0 0 1
    outer loop
      vertex -51.2328 30.3661 14
      vertex -52.1268 28.3341 14
      vertex -50.2584 28.6027 14
    endloop
  endfacet
  facet normal 0 0 1
    outer loop
      vertex -53 28.7329 14
      vertex -51.2328 30.3661 14
      vertex -52.7422 30.8565 14
    endloop
  endfacet
  facet normal 0 0 1
    outer loop
      vertex -51.2328 30.3661 14
      vertex -53 28.7329 14
      vertex -52.1268 28.3341 14
    endloop
  endfacet
  facet normal 0 0 1
    outer loop
      vertex 53 -28.5967 14
      vertex 52.0672 -30.3661 14
      vertex 53 -31.65 14
    endloop
  endfacet
  facet normal 0 0 1
    outer loop
      vertex 51.1732 -28.3341 14
      vertex 52.0672 -30.3661 14
      vertex 53 -28.5967 14
    endloop
  endfacet
  facet normal 0 0 1
    outer loop
      vertex 51.1732 -28.3341 14
      vertex 50.5578 -30.8565 14
      vertex 52.0672 -30.3661 14
    endloop
  endfacet
  facet normal -0 0 1
    outer loop
      vertex 48.4357 -30.7062 14
      vertex 50.5578 -30.8565 14
      vertex 49.4562 -29.1182 14
    endloop
  endfacet
  facet normal -0 0 1
    outer loop
      vertex 49.4562 -29.1182 14
      vertex 50.5578 -30.8565 14
      vertex 51.1732 -28.3341 14
    endloop
  endfacet
  facet normal -0 0 1
    outer loop
      vertex 52.0672 30.3661 14
      vertex 53 28.5967 14
      vertex 53 31.65 14
    endloop
  endfacet
  facet normal 0 0 1
    outer loop
      vertex 52.0672 30.3661 14
      vertex 51.1732 28.3341 14
      vertex 53 28.5967 14
    endloop
  endfacet
  facet normal 0 0 1
    outer loop
      vertex 50.5578 30.8565 14
      vertex 51.1732 28.3341 14
      vertex 52.0672 30.3661 14
    endloop
  endfacet
  facet normal 0 0 1
    outer loop
      vertex 51.1732 28.3341 14
      vertex 50.5578 30.8565 14
      vertex 49.4562 29.1182 14
    endloop
  endfacet
  facet normal 0 0 1
    outer loop
      vertex 52.0672 32.9339 14
      vertex 55 33.5858 14
      vertex 53.5858 35 14
    endloop
  endfacet
  facet normal 0 0 1
    outer loop
      vertex 55 33.5858 14
      vertex 53 28.5967 14
      vertex 55 -33.5858 14
    endloop
  endfacet
  facet normal 0 0 1
    outer loop
      vertex 55 33.5858 14
      vertex 53 31.65 14
      vertex 53 28.5967 14
    endloop
  endfacet
  facet normal 0 0 1
    outer loop
      vertex 55 33.5858 14
      vertex 52.0672 32.9339 14
      vertex 53 31.65 14
    endloop
  endfacet
  facet normal -0 0 1
    outer loop
      vertex 48.6967 33 14
      vertex 52.0672 32.9339 14
      vertex 53.5858 35 14
    endloop
  endfacet
  facet normal -0 0 1
    outer loop
      vertex 48.4357 32.5938 14
      vertex 50.5578 32.4435 14
      vertex 48.6967 33 14
    endloop
  endfacet
  facet normal 0 0 1
    outer loop
      vertex 50.5578 32.4435 14
      vertex 48.4357 32.5938 14
      vertex 50.5578 30.8565 14
    endloop
  endfacet
  facet normal 0 0 1
    outer loop
      vertex 52.0672 32.9339 14
      vertex 48.6967 33 14
      vertex 50.5578 32.4435 14
    endloop
  endfacet
  facet normal 0 0 1
    outer loop
      vertex 53.5858 35 14
      vertex -48.6964 33 14
      vertex 48.6967 33 14
    endloop
  endfacet
  facet normal 0 0 1
    outer loop
      vertex -48.3 31.65 14
      vertex -50.3 31.65 14
      vertex -48.8318 29.8389 14
    endloop
  endfacet
  facet normal -0 0 1
    outer loop
      vertex -51.2328 30.3661 14
      vertex -48.8318 29.8389 14
      vertex -50.3 31.65 14
    endloop
  endfacet
  facet normal 0 0 1
    outer loop
      vertex -48.6964 33 14
      vertex -51.2328 32.9339 14
      vertex -50.3 31.65 14
    endloop
  endfacet
  facet normal 0 0 1
    outer loop
      vertex -55 33.5858 14
      vertex -52.7422 30.8565 14
      vertex -52.7422 32.4435 14
    endloop
  endfacet
  facet normal 0 0 1
    outer loop
      vertex -52.7422 30.8565 14
      vertex -55 33.5858 14
      vertex -53 28.7329 14
    endloop
  endfacet
  facet normal -0 0 1
    outer loop
      vertex -55 33.5858 14
      vertex -52.7422 32.4435 14
      vertex -53.5858 35 14
    endloop
  endfacet
  facet normal 0 0 1
    outer loop
      vertex -51.2328 32.9339 14
      vertex -53.5858 35 14
      vertex -52.7422 32.4435 14
    endloop
  endfacet
  facet normal 0 0 1
    outer loop
      vertex -48.6964 33 14
      vertex -53.5858 35 14
      vertex -51.2328 32.9339 14
    endloop
  endfacet
  facet normal -0 0 1
    outer loop
      vertex -53.5858 35 14
      vertex -48.6964 33 14
      vertex 53.5858 35 14
    endloop
  endfacet
  facet normal -0 0 1
    outer loop
      vertex 53 -28.5967 14
      vertex 55 -33.5858 14
      vertex 53 28.5967 14
    endloop
  endfacet
  facet normal -0 0 1
    outer loop
      vertex 53 -31.65 14
      vertex 55 -33.5858 14
      vertex 53 -28.5967 14
    endloop
  endfacet
  facet normal -0 0 1
    outer loop
      vertex 52.0672 -32.9339 14
      vertex 55 -33.5858 14
      vertex 53 -31.65 14
    endloop
  endfacet
  facet normal 0 0 1
    outer loop
      vertex 55 -33.5858 14
      vertex 52.0672 -32.9339 14
      vertex 53.5858 -35 14
    endloop
  endfacet
  facet normal 0 0 1
    outer loop
      vertex 48.6967 -33 14
      vertex 52.0672 -32.9339 14
      vertex 50.5578 -32.4435 14
    endloop
  endfacet
  facet normal 0 0 1
    outer loop
      vertex 48.4357 -30.7062 14
      vertex 50.5578 -32.4435 14
      vertex 50.5578 -30.8565 14
    endloop
  endfacet
  facet normal 0 0 1
    outer loop
      vertex 52.0672 -32.9339 14
      vertex 48.6967 -33 14
      vertex 53.5858 -35 14
    endloop
  endfacet
  facet normal -0 0 1
    outer loop
      vertex -48.6964 -33 14
      vertex 53.5858 -35 14
      vertex 48.6967 -33 14
    endloop
  endfacet
  facet normal 0 0 1
    outer loop
      vertex -51.2328 -30.3661 14
      vertex -48.8318 -29.8389 14
      vertex -50.2584 -28.6027 14
    endloop
  endfacet
  facet normal 0 0 1
    outer loop
      vertex -48.3 -31.65 14
      vertex -50.3 -31.65 14
      vertex -48.6964 -33 14
    endloop
  endfacet
  facet normal -0 0 1
    outer loop
      vertex -51.2328 -32.9339 14
      vertex -48.6964 -33 14
      vertex -50.3 -31.65 14
    endloop
  endfacet
  facet normal 0 0 1
    outer loop
      vertex -48.6964 -33 14
      vertex -53.5858 -35 14
      vertex 53.5858 -35 14
    endloop
  endfacet
  facet normal 0 0 1
    outer loop
      vertex -51.2328 -32.9339 14
      vertex -53.5858 -35 14
      vertex -48.6964 -33 14
    endloop
  endfacet
  facet normal 0 0 1
    outer loop
      vertex -52.7422 -32.4435 14
      vertex -53.5858 -35 14
      vertex -51.2328 -32.9339 14
    endloop
  endfacet
  facet normal 0 0 1
    outer loop
      vertex -52.7422 -30.8565 14
      vertex -55 -33.5858 14
      vertex -52.7422 -32.4435 14
    endloop
  endfacet
  facet normal 0 0 1
    outer loop
      vertex -53 28.7329 14
      vertex -55 33.5858 14
      vertex -53 -28.7329 14
    endloop
  endfacet
  facet normal 0 0 1
    outer loop
      vertex -55 -33.5858 14
      vertex -53 -28.7329 14
      vertex -55 33.5858 14
    endloop
  endfacet
  facet normal 0 0 1
    outer loop
      vertex -52.7422 -32.4435 14
      vertex -55 -33.5858 14
      vertex -53.5858 -35 14
    endloop
  endfacet
  facet normal -0.707107 -0.707107 0
    outer loop
      vertex -53.5858 -35 0
      vertex -55 -33.5858 14
      vertex -55 -33.5858 0
    endloop
  endfacet
  facet normal -0.707107 -0.707107 0
    outer loop
      vertex -55 -33.5858 14
      vertex -53.5858 -35 0
      vertex -53.5858 -35 14
    endloop
  endfacet
  facet normal 0.707107 -0.707107 0
    outer loop
      vertex 53.5858 -35 14
      vertex 55 -33.5858 0
      vertex 55 -33.5858 14
    endloop
  endfacet
  facet normal 0.707107 -0.707107 0
    outer loop
      vertex 55 -33.5858 0
      vertex 53.5858 -35 14
      vertex 53.5858 -35 0
    endloop
  endfacet
  facet normal -0.707107 0.707107 0
    outer loop
      vertex -55 33.5858 0
      vertex -53.5858 35 14
      vertex -53.5858 35 0
    endloop
  endfacet
  facet normal -0.707107 0.707107 0
    outer loop
      vertex -53.5858 35 14
      vertex -55 33.5858 0
      vertex -55 33.5858 14
    endloop
  endfacet
  facet normal 0.707107 0.707107 0
    outer loop
      vertex 55 33.5858 14
      vertex 53.5858 35 0
      vertex 53.5858 35 14
    endloop
  endfacet
  facet normal 0.707107 0.707107 0
    outer loop
      vertex 53.5858 35 0
      vertex 55 33.5858 14
      vertex 55 33.5858 0
    endloop
  endfacet
endsolid OpenSCAD_Model
