solid OpenSCAD_Model
  facet normal -1 0 0
    outer loop
      vertex -24 19.4967 -6.33485
      vertex -24 21.5 0
      vertex -24 21.5 -21.5
    endloop
  endfacet
  facet normal -1 0 0
    outer loop
      vertex -24 21.5 0
      vertex -24 19.4967 -6.33485
      vertex -24 20.3877 -2.14283
    endloop
  endfacet
  facet normal -1 0 0
    outer loop
      vertex -24 21.5 -21.5
      vertex -24 17.7884 -10.1717
      vertex -24 19.4967 -6.33485
    endloop
  endfacet
  facet normal -1 0 0
    outer loop
      vertex -24 21.5 -21.5
      vertex -24 17.7535 -10.25
      vertex -24 17.7884 -10.1717
    endloop
  endfacet
  facet normal -1 0 0
    outer loop
      vertex -24 21.5 -21.5
      vertex -24 17.7031 -10.3193
      vertex -24 17.7535 -10.25
    endloop
  endfacet
  facet normal -1 0 0
    outer loop
      vertex -24 21.5 -21.5
      vertex -24 15.2345 -13.7172
      vertex -24 17.7031 -10.3193
    endloop
  endfacet
  facet normal -1 0 0
    outer loop
      vertex -24 21.5 -21.5
      vertex -24 12.0496 -16.5848
      vertex -24 15.2345 -13.7172
    endloop
  endfacet
  facet normal -1 0 0
    outer loop
      vertex -24 21.5 -21.5
      vertex -24 8.3381 -18.7277
      vertex -24 12.0496 -16.5848
    endloop
  endfacet
  facet normal -1 0 0
    outer loop
      vertex -24 21.5 -21.5
      vertex -24 4.26219 -20.052
      vertex -24 8.3381 -18.7277
    endloop
  endfacet
  facet normal -1 0 0
    outer loop
      vertex -24 21.5 -21.5
      vertex -24 0.0852437 -20.491
      vertex -24 4.26219 -20.052
    endloop
  endfacet
  facet normal -1 0 0
    outer loop
      vertex -24 21.5 -21.5
      vertex -24 0 -20.5
      vertex -24 0.0852437 -20.491
    endloop
  endfacet
  facet normal -1 0 0
    outer loop
      vertex -24 -21.5 -21.5
      vertex -24 -17.7031 -10.3193
      vertex -24 -15.2345 -13.7172
    endloop
  endfacet
  facet normal -1 0 0
    outer loop
      vertex -24 -21.5 -21.5
      vertex -24 -17.7884 -10.1717
      vertex -24 -17.7535 -10.25
    endloop
  endfacet
  facet normal -1 0 0
    outer loop
      vertex -24 -21.5 -21.5
      vertex -24 0 -20.5
      vertex -24 21.5 -21.5
    endloop
  endfacet
  facet normal -1 0 0
    outer loop
      vertex -24 -21.5 -21.5
      vertex -24 -0.0852437 -20.491
      vertex -24 0 -20.5
    endloop
  endfacet
  facet normal -1 0 0
    outer loop
      vertex -24 -21.5 -21.5
      vertex -24 -4.26219 -20.052
      vertex -24 -0.0852437 -20.491
    endloop
  endfacet
  facet normal -1 0 0
    outer loop
      vertex -24 -21.5 -21.5
      vertex -24 -8.3381 -18.7277
      vertex -24 -4.26219 -20.052
    endloop
  endfacet
  facet normal -1 0 0
    outer loop
      vertex -24 -21.5 -21.5
      vertex -24 -12.0496 -16.5848
      vertex -24 -8.3381 -18.7277
    endloop
  endfacet
  facet normal -1 0 0
    outer loop
      vertex -24 -21.5 -21.5
      vertex -24 -15.2345 -13.7172
      vertex -24 -12.0496 -16.5848
    endloop
  endfacet
  facet normal -1 -0 0
    outer loop
      vertex -24 -17.7031 -10.3193
      vertex -24 -21.5 -21.5
      vertex -24 -17.7535 -10.25
    endloop
  endfacet
  facet normal -1 -0 0
    outer loop
      vertex -24 -17.7884 -10.1717
      vertex -24 -21.5 -21.5
      vertex -24 -19.4967 -6.33485
    endloop
  endfacet
  facet normal -1 0 0
    outer loop
      vertex -24 -21.5 0
      vertex -24 -19.4967 -6.33485
      vertex -24 -21.5 -21.5
    endloop
  endfacet
  facet normal -1 0 0
    outer loop
      vertex -24 -19.4967 -6.33485
      vertex -24 -21.5 0
      vertex -24 -20.3877 -2.14283
    endloop
  endfacet
  facet normal -1 0 0
    outer loop
      vertex -24 -20.3877 -2.14283
      vertex -24 -21.5 0
      vertex -24 -20.3877 0
    endloop
  endfacet
  facet normal -1 -0 0
    outer loop
      vertex -24 21.5 0
      vertex -24 20.3877 -2.14283
      vertex -24 20.3877 0
    endloop
  endfacet
  facet normal -0 0 1
    outer loop
      vertex -24 -20.3877 0
      vertex 24 -21.5 0
      vertex 24 -20.3877 0
    endloop
  endfacet
  facet normal 0 0 1
    outer loop
      vertex 24 -21.5 0
      vertex -24 -20.3877 0
      vertex -24 -21.5 0
    endloop
  endfacet
  facet normal -0 0 1
    outer loop
      vertex -24 21.5 0
      vertex 24 20.3877 0
      vertex 24 21.5 0
    endloop
  endfacet
  facet normal 0 0 1
    outer loop
      vertex 24 20.3877 0
      vertex -24 21.5 0
      vertex -24 20.3877 0
    endloop
  endfacet
  facet normal 1 0 0
    outer loop
      vertex 24 -20.3877 0
      vertex 24 -21.5 0
      vertex 24 -20.3877 -2.14283
    endloop
  endfacet
  facet normal 1 0 0
    outer loop
      vertex 24 20.3877 -2.14283
      vertex 24 21.5 0
      vertex 24 20.3877 0
    endloop
  endfacet
  facet normal 1 0 0
    outer loop
      vertex 24 19.4967 -6.33485
      vertex 24 21.5 0
      vertex 24 20.3877 -2.14283
    endloop
  endfacet
  facet normal 1 0 0
    outer loop
      vertex 24 21.5 0
      vertex 24 19.4967 -6.33485
      vertex 24 21.5 -21.5
    endloop
  endfacet
  facet normal 1 -0 0
    outer loop
      vertex 24 19.4618 -6.41315
      vertex 24 21.5 -21.5
      vertex 24 19.4967 -6.33485
    endloop
  endfacet
  facet normal 1 -0 0
    outer loop
      vertex 24 17.7535 -10.25
      vertex 24 21.5 -21.5
      vertex 24 19.4618 -6.41315
    endloop
  endfacet
  facet normal 1 -0 0
    outer loop
      vertex 24 15.2848 -13.6478
      vertex 24 21.5 -21.5
      vertex 24 17.7535 -10.25
    endloop
  endfacet
  facet normal 1 -0 0
    outer loop
      vertex 24 15.2345 -13.7172
      vertex 24 21.5 -21.5
      vertex 24 15.2848 -13.6478
    endloop
  endfacet
  facet normal 1 -0 0
    outer loop
      vertex 24 12.0496 -16.5848
      vertex 24 21.5 -21.5
      vertex 24 15.2345 -13.7172
    endloop
  endfacet
  facet normal 1 -0 0
    outer loop
      vertex 24 8.3381 -18.7277
      vertex 24 21.5 -21.5
      vertex 24 12.0496 -16.5848
    endloop
  endfacet
  facet normal 1 -0 0
    outer loop
      vertex 24 4.26219 -20.052
      vertex 24 21.5 -21.5
      vertex 24 8.3381 -18.7277
    endloop
  endfacet
  facet normal 1 -0 0
    outer loop
      vertex 24 4.17695 -20.061
      vertex 24 21.5 -21.5
      vertex 24 4.26219 -20.052
    endloop
  endfacet
  facet normal 1 -0 0
    outer loop
      vertex 24 0 -20.5
      vertex 24 21.5 -21.5
      vertex 24 4.17695 -20.061
    endloop
  endfacet
  facet normal 1 0 0
    outer loop
      vertex 24 -21.5 -21.5
      vertex 24 -15.2848 -13.6478
      vertex 24 -17.7535 -10.25
    endloop
  endfacet
  facet normal 1 0 0
    outer loop
      vertex 24 -21.5 0
      vertex 24 -19.4967 -6.33485
      vertex 24 -20.3877 -2.14283
    endloop
  endfacet
  facet normal 1 0 0
    outer loop
      vertex 24 0 -20.5
      vertex 24 -21.5 -21.5
      vertex 24 21.5 -21.5
    endloop
  endfacet
  facet normal 1 0 0
    outer loop
      vertex 24 -4.17695 -20.061
      vertex 24 -21.5 -21.5
      vertex 24 0 -20.5
    endloop
  endfacet
  facet normal 1 0 0
    outer loop
      vertex 24 -4.26219 -20.052
      vertex 24 -21.5 -21.5
      vertex 24 -4.17695 -20.061
    endloop
  endfacet
  facet normal 1 0 0
    outer loop
      vertex 24 -8.3381 -18.7277
      vertex 24 -21.5 -21.5
      vertex 24 -4.26219 -20.052
    endloop
  endfacet
  facet normal 1 0 0
    outer loop
      vertex 24 -12.0496 -16.5848
      vertex 24 -21.5 -21.5
      vertex 24 -8.3381 -18.7277
    endloop
  endfacet
  facet normal 1 0 0
    outer loop
      vertex 24 -15.2345 -13.7172
      vertex 24 -21.5 -21.5
      vertex 24 -12.0496 -16.5848
    endloop
  endfacet
  facet normal 1 0 0
    outer loop
      vertex 24 -15.2848 -13.6478
      vertex 24 -21.5 -21.5
      vertex 24 -15.2345 -13.7172
    endloop
  endfacet
  facet normal 1 0 0
    outer loop
      vertex 24 -19.4618 -6.41315
      vertex 24 -21.5 -21.5
      vertex 24 -17.7535 -10.25
    endloop
  endfacet
  facet normal 1 0 0
    outer loop
      vertex 24 -19.4967 -6.33485
      vertex 24 -21.5 -21.5
      vertex 24 -19.4618 -6.41315
    endloop
  endfacet
  facet normal 1 0 0
    outer loop
      vertex 24 -21.5 -21.5
      vertex 24 -19.4967 -6.33485
      vertex 24 -21.5 0
    endloop
  endfacet
  facet normal 0 0 -1
    outer loop
      vertex 24 -21.5 -21.5
      vertex 15 -10 -21.5
      vertex 24 21.5 -21.5
    endloop
  endfacet
  facet normal 0 0 -1
    outer loop
      vertex 24 -21.5 -21.5
      vertex -15 -10 -21.5
      vertex 15 -10 -21.5
    endloop
  endfacet
  facet normal -0 0 -1
    outer loop
      vertex -15 -10 -21.5
      vertex -24 -21.5 -21.5
      vertex -15 10 -21.5
    endloop
  endfacet
  facet normal 0 0 -1
    outer loop
      vertex -24 -21.5 -21.5
      vertex -15 -10 -21.5
      vertex 24 -21.5 -21.5
    endloop
  endfacet
  facet normal 0 0 -1
    outer loop
      vertex 15 10 -21.5
      vertex 24 21.5 -21.5
      vertex 15 -10 -21.5
    endloop
  endfacet
  facet normal 0 0 -1
    outer loop
      vertex -15 10 -21.5
      vertex 24 21.5 -21.5
      vertex 15 10 -21.5
    endloop
  endfacet
  facet normal 0 0 -1
    outer loop
      vertex -15 10 -21.5
      vertex -24 21.5 -21.5
      vertex 24 21.5 -21.5
    endloop
  endfacet
  facet normal 0 0 -1
    outer loop
      vertex -24 21.5 -21.5
      vertex -15 10 -21.5
      vertex -24 -21.5 -21.5
    endloop
  endfacet
  facet normal 0 -1 0
    outer loop
      vertex -24 -21.5 -21.5
      vertex 24 -21.5 0
      vertex -24 -21.5 0
    endloop
  endfacet
  facet normal 0 -1 -0
    outer loop
      vertex 24 -21.5 0
      vertex -24 -21.5 -21.5
      vertex 24 -21.5 -21.5
    endloop
  endfacet
  facet normal 0 1 -0
    outer loop
      vertex 24 21.5 -21.5
      vertex -24 21.5 0
      vertex 24 21.5 0
    endloop
  endfacet
  facet normal 0 1 0
    outer loop
      vertex -24 21.5 0
      vertex 24 21.5 -21.5
      vertex -24 21.5 -21.5
    endloop
  endfacet
  facet normal 0 -0.104529 0.994522
    outer loop
      vertex -24 4.26219 -20.052
      vertex -15 0.852438 -20.4104
      vertex -15 4.26219 -20.052
    endloop
  endfacet
  facet normal 6.46899e-08 -0.104529 0.994522
    outer loop
      vertex -15 0.852438 -20.4104
      vertex -24 4.26219 -20.052
      vertex -24 0.0852437 -20.491
    endloop
  endfacet
  facet normal 0 -0.104543 0.99452
    outer loop
      vertex 15 4.26219 -20.052
      vertex 24 4.17695 -20.061
      vertex 24 4.26219 -20.052
    endloop
  endfacet
  facet normal 1.27291e-07 -0.10453 0.994522
    outer loop
      vertex 24 4.17695 -20.061
      vertex 15 4.26219 -20.052
      vertex 15 3.40975 -20.1416
    endloop
  endfacet
  facet normal -6.23993e-08 -0.104527 0.994522
    outer loop
      vertex -24 0.0852437 -20.491
      vertex -15 0 -20.5
      vertex -15 0.852438 -20.4104
    endloop
  endfacet
  facet normal 0 -0.104521 0.994523
    outer loop
      vertex -15 0 -20.5
      vertex -24 0.0852437 -20.491
      vertex -24 0 -20.5
    endloop
  endfacet
  facet normal 2.59777e-08 -0.104528 0.994522
    outer loop
      vertex 15 3.40975 -20.1416
      vertex 24 0 -20.5
      vertex 24 4.17695 -20.061
    endloop
  endfacet
  facet normal 0 -0.104528 0.994522
    outer loop
      vertex 24 0 -20.5
      vertex 15 3.40975 -20.1416
      vertex 15 0 -20.5
    endloop
  endfacet
  facet normal 6.46899e-08 0.104529 0.994522
    outer loop
      vertex -24 -4.26219 -20.052
      vertex -15 -0.852438 -20.4104
      vertex -24 -0.0852437 -20.491
    endloop
  endfacet
  facet normal 0 0.104529 0.994522
    outer loop
      vertex -15 -0.852438 -20.4104
      vertex -24 -4.26219 -20.052
      vertex -15 -4.26219 -20.052
    endloop
  endfacet
  facet normal 1.27291e-07 0.10453 0.994522
    outer loop
      vertex 15 -4.26219 -20.052
      vertex 24 -4.17695 -20.061
      vertex 15 -3.40975 -20.1416
    endloop
  endfacet
  facet normal 0 0.104543 0.99452
    outer loop
      vertex 24 -4.17695 -20.061
      vertex 15 -4.26219 -20.052
      vertex 24 -4.26219 -20.052
    endloop
  endfacet
  facet normal 0 -1 0
    outer loop
      vertex -24 20.3877 -2.14283
      vertex 24 20.3877 0
      vertex -24 20.3877 0
    endloop
  endfacet
  facet normal 0 -1 -0
    outer loop
      vertex 24 20.3877 0
      vertex -24 20.3877 -2.14283
      vertex 24 20.3877 -2.14283
    endloop
  endfacet
  facet normal 0 -0.309017 0.951056
    outer loop
      vertex -24 8.3381 -18.7277
      vertex -15 4.26219 -20.052
      vertex -15 8.3381 -18.7277
    endloop
  endfacet
  facet normal 0 -0.309017 0.951056
    outer loop
      vertex -15 4.26219 -20.052
      vertex -24 8.3381 -18.7277
      vertex -24 4.26219 -20.052
    endloop
  endfacet
  facet normal 0 -0.309017 0.951056
    outer loop
      vertex 15 8.3381 -18.7277
      vertex 24 4.26219 -20.052
      vertex 24 8.3381 -18.7277
    endloop
  endfacet
  facet normal 0 -0.309017 0.951056
    outer loop
      vertex 24 4.26219 -20.052
      vertex 15 8.3381 -18.7277
      vertex 15 4.26219 -20.052
    endloop
  endfacet
  facet normal 0 -0.978148 0.207912
    outer loop
      vertex -24 19.4967 -6.33485
      vertex 24 20.3877 -2.14283
      vertex -24 20.3877 -2.14283
    endloop
  endfacet
  facet normal 0 -0.978148 0.207912
    outer loop
      vertex 24 20.3877 -2.14283
      vertex -24 19.4967 -6.33485
      vertex 24 19.4967 -6.33485
    endloop
  endfacet
  facet normal -1.16785e-08 0.809008 0.587797
    outer loop
      vertex 24 -17.7535 -10.25
      vertex -24 -17.7031 -10.3193
      vertex -24 -17.7535 -10.25
    endloop
  endfacet
  facet normal 1.45646e-08 0.809017 0.587785
    outer loop
      vertex -24 -17.7031 -10.3193
      vertex 24 -17.7535 -10.25
      vertex 24 -15.2848 -13.6478
    endloop
  endfacet
  facet normal -0 0.309017 0.951056
    outer loop
      vertex -24 -4.26219 -20.052
      vertex -15 -8.3381 -18.7277
      vertex -15 -4.26219 -20.052
    endloop
  endfacet
  facet normal 0 0.309017 0.951056
    outer loop
      vertex -15 -8.3381 -18.7277
      vertex -24 -4.26219 -20.052
      vertex -24 -8.3381 -18.7277
    endloop
  endfacet
  facet normal -0 0.309017 0.951056
    outer loop
      vertex 15 -4.26219 -20.052
      vertex 24 -8.3381 -18.7277
      vertex 24 -4.26219 -20.052
    endloop
  endfacet
  facet normal 0 0.309017 0.951056
    outer loop
      vertex 24 -8.3381 -18.7277
      vertex 15 -4.26219 -20.052
      vertex 15 -8.3381 -18.7277
    endloop
  endfacet
  facet normal 0 0.104521 0.994523
    outer loop
      vertex -24 -0.0852437 -20.491
      vertex -15 0 -20.5
      vertex -24 0 -20.5
    endloop
  endfacet
  facet normal -6.23993e-08 0.104527 0.994522
    outer loop
      vertex -15 0 -20.5
      vertex -24 -0.0852437 -20.491
      vertex -15 -0.852438 -20.4104
    endloop
  endfacet
  facet normal 0 0.104528 0.994522
    outer loop
      vertex 15 -3.40975 -20.1416
      vertex 24 0 -20.5
      vertex 15 0 -20.5
    endloop
  endfacet
  facet normal 2.59777e-08 0.104528 0.994522
    outer loop
      vertex 24 0 -20.5
      vertex 15 -3.40975 -20.1416
      vertex 24 -4.17695 -20.061
    endloop
  endfacet
  facet normal 0 -0.66913 0.743145
    outer loop
      vertex -24 15.2345 -13.7172
      vertex 24 12.0496 -16.5848
      vertex 24 15.2345 -13.7172
    endloop
  endfacet
  facet normal 0 -0.66913 0.743145
    outer loop
      vertex 24 12.0496 -16.5848
      vertex -24 15.2345 -13.7172
      vertex -24 12.0496 -16.5848
    endloop
  endfacet
  facet normal -1.16785e-08 -0.809008 0.587797
    outer loop
      vertex -24 17.7031 -10.3193
      vertex 24 17.7535 -10.25
      vertex -24 17.7535 -10.25
    endloop
  endfacet
  facet normal 1.45646e-08 -0.809017 0.587785
    outer loop
      vertex 24 17.7535 -10.25
      vertex -24 17.7031 -10.3193
      vertex 24 15.2848 -13.6478
    endloop
  endfacet
  facet normal -1.07983e-09 -0.913545 0.406737
    outer loop
      vertex -24 17.7884 -10.1717
      vertex 24 17.7535 -10.25
      vertex 24 19.4618 -6.41315
    endloop
  endfacet
  facet normal -8.08106e-09 -0.913547 0.406733
    outer loop
      vertex 24 17.7535 -10.25
      vertex -24 17.7884 -10.1717
      vertex -24 17.7535 -10.25
    endloop
  endfacet
  facet normal 0 -0.913546 0.406735
    outer loop
      vertex -24 19.4967 -6.33485
      vertex 24 19.4618 -6.41315
      vertex 24 19.4967 -6.33485
    endloop
  endfacet
  facet normal 2.87828e-09 -0.913546 0.406737
    outer loop
      vertex 24 19.4618 -6.41315
      vertex -24 19.4967 -6.33485
      vertex -24 17.7884 -10.1717
    endloop
  endfacet
  facet normal 0 0.5 0.866026
    outer loop
      vertex -15 -8.3381 -18.7277
      vertex -24 -8.3381 -18.7277
      vertex -15 -10 -17.7682
    endloop
  endfacet
  facet normal 0 0.5 0.866026
    outer loop
      vertex 15 -10 -17.7682
      vertex 24 -8.3381 -18.7277
      vertex 15 -8.3381 -18.7277
    endloop
  endfacet
  facet normal -8.09011e-08 0.5 0.866025
    outer loop
      vertex 24 -8.3381 -18.7277
      vertex 15 -10 -17.7682
      vertex 24 -12.0496 -16.5848
    endloop
  endfacet
  facet normal -0 0.5 0.866025
    outer loop
      vertex -15 -10 -17.7682
      vertex 24 -12.0496 -16.5848
      vertex 15 -10 -17.7682
    endloop
  endfacet
  facet normal 0 0.5 0.866025
    outer loop
      vertex -15 -10 -17.7682
      vertex -24 -12.0496 -16.5848
      vertex 24 -12.0496 -16.5848
    endloop
  endfacet
  facet normal 8.09011e-08 0.5 0.866025
    outer loop
      vertex -24 -12.0496 -16.5848
      vertex -15 -10 -17.7682
      vertex -24 -8.3381 -18.7277
    endloop
  endfacet
  facet normal -0 0.66913 0.743145
    outer loop
      vertex -24 -12.0496 -16.5848
      vertex 24 -15.2345 -13.7172
      vertex 24 -12.0496 -16.5848
    endloop
  endfacet
  facet normal 0 0.66913 0.743145
    outer loop
      vertex 24 -15.2345 -13.7172
      vertex -24 -12.0496 -16.5848
      vertex -24 -15.2345 -13.7172
    endloop
  endfacet
  facet normal -1.07983e-09 0.913545 0.406737
    outer loop
      vertex 24 -17.7535 -10.25
      vertex -24 -17.7884 -10.1717
      vertex 24 -19.4618 -6.41315
    endloop
  endfacet
  facet normal -8.08106e-09 0.913547 0.406733
    outer loop
      vertex -24 -17.7884 -10.1717
      vertex 24 -17.7535 -10.25
      vertex -24 -17.7535 -10.25
    endloop
  endfacet
  facet normal 0 0.913546 0.406735
    outer loop
      vertex 24 -19.4618 -6.41315
      vertex -24 -19.4967 -6.33485
      vertex 24 -19.4967 -6.33485
    endloop
  endfacet
  facet normal 2.87828e-09 0.913546 0.406737
    outer loop
      vertex -24 -19.4967 -6.33485
      vertex 24 -19.4618 -6.41315
      vertex -24 -17.7884 -10.1717
    endloop
  endfacet
  facet normal -5.48689e-09 -0.809017 0.587785
    outer loop
      vertex -24 15.2345 -13.7172
      vertex 24 15.2848 -13.6478
      vertex -24 17.7031 -10.3193
    endloop
  endfacet
  facet normal 0 -0.809019 0.587783
    outer loop
      vertex 24 15.2848 -13.6478
      vertex -24 15.2345 -13.7172
      vertex 24 15.2345 -13.7172
    endloop
  endfacet
  facet normal 0 0.978148 0.207912
    outer loop
      vertex 24 -19.4967 -6.33485
      vertex -24 -20.3877 -2.14283
      vertex 24 -20.3877 -2.14283
    endloop
  endfacet
  facet normal 0 0.978148 0.207912
    outer loop
      vertex -24 -20.3877 -2.14283
      vertex 24 -19.4967 -6.33485
      vertex -24 -19.4967 -6.33485
    endloop
  endfacet
  facet normal -0 0.809019 0.587783
    outer loop
      vertex -24 -15.2345 -13.7172
      vertex 24 -15.2848 -13.6478
      vertex 24 -15.2345 -13.7172
    endloop
  endfacet
  facet normal -5.48689e-09 0.809017 0.587785
    outer loop
      vertex 24 -15.2848 -13.6478
      vertex -24 -15.2345 -13.7172
      vertex -24 -17.7031 -10.3193
    endloop
  endfacet
  facet normal -8.09011e-08 -0.5 0.866025
    outer loop
      vertex 24 12.0496 -16.5848
      vertex 15 10 -17.7682
      vertex 24 8.3381 -18.7277
    endloop
  endfacet
  facet normal 0 -0.5 0.866025
    outer loop
      vertex 24 12.0496 -16.5848
      vertex -15 10 -17.7682
      vertex 15 10 -17.7682
    endloop
  endfacet
  facet normal 0 -0.5 0.866025
    outer loop
      vertex -24 12.0496 -16.5848
      vertex -15 10 -17.7682
      vertex 24 12.0496 -16.5848
    endloop
  endfacet
  facet normal 8.09011e-08 -0.5 0.866025
    outer loop
      vertex -24 8.3381 -18.7277
      vertex -15 10 -17.7682
      vertex -24 12.0496 -16.5848
    endloop
  endfacet
  facet normal 0 -0.5 0.866026
    outer loop
      vertex -15 10 -17.7682
      vertex -24 8.3381 -18.7277
      vertex -15 8.3381 -18.7277
    endloop
  endfacet
  facet normal 0 -0.5 0.866026
    outer loop
      vertex 24 8.3381 -18.7277
      vertex 15 10 -17.7682
      vertex 15 8.3381 -18.7277
    endloop
  endfacet
  facet normal 0 1 -0
    outer loop
      vertex 24 -20.3877 -2.14283
      vertex -24 -20.3877 0
      vertex 24 -20.3877 0
    endloop
  endfacet
  facet normal 0 1 0
    outer loop
      vertex -24 -20.3877 0
      vertex 24 -20.3877 -2.14283
      vertex -24 -20.3877 -2.14283
    endloop
  endfacet
  facet normal 1 -0 0
    outer loop
      vertex -15 8.3381 -18.7277
      vertex -15 10 -21.5
      vertex -15 10 -17.7682
    endloop
  endfacet
  facet normal 1 -0 0
    outer loop
      vertex -15 4.26219 -20.052
      vertex -15 10 -21.5
      vertex -15 8.3381 -18.7277
    endloop
  endfacet
  facet normal 1 -0 0
    outer loop
      vertex -15 0.852438 -20.4104
      vertex -15 10 -21.5
      vertex -15 4.26219 -20.052
    endloop
  endfacet
  facet normal 1 -0 0
    outer loop
      vertex -15 0 -20.5
      vertex -15 10 -21.5
      vertex -15 0.852438 -20.4104
    endloop
  endfacet
  facet normal 1 0 0
    outer loop
      vertex -15 0 -20.5
      vertex -15 -10 -21.5
      vertex -15 10 -21.5
    endloop
  endfacet
  facet normal 1 0 0
    outer loop
      vertex -15 -0.852438 -20.4104
      vertex -15 -10 -21.5
      vertex -15 0 -20.5
    endloop
  endfacet
  facet normal 1 0 0
    outer loop
      vertex -15 -4.26219 -20.052
      vertex -15 -10 -21.5
      vertex -15 -0.852438 -20.4104
    endloop
  endfacet
  facet normal 1 0 0
    outer loop
      vertex -15 -8.3381 -18.7277
      vertex -15 -10 -21.5
      vertex -15 -4.26219 -20.052
    endloop
  endfacet
  facet normal 1 0 0
    outer loop
      vertex -15 -10 -21.5
      vertex -15 -8.3381 -18.7277
      vertex -15 -10 -17.7682
    endloop
  endfacet
  facet normal -1 0 0
    outer loop
      vertex 15 10 -21.5
      vertex 15 8.3381 -18.7277
      vertex 15 10 -17.7682
    endloop
  endfacet
  facet normal -1 0 0
    outer loop
      vertex 15 10 -21.5
      vertex 15 4.26219 -20.052
      vertex 15 8.3381 -18.7277
    endloop
  endfacet
  facet normal -1 0 0
    outer loop
      vertex 15 10 -21.5
      vertex 15 3.40975 -20.1416
      vertex 15 4.26219 -20.052
    endloop
  endfacet
  facet normal -1 0 0
    outer loop
      vertex 15 10 -21.5
      vertex 15 0 -20.5
      vertex 15 3.40975 -20.1416
    endloop
  endfacet
  facet normal -1 0 0
    outer loop
      vertex 15 -10 -21.5
      vertex 15 0 -20.5
      vertex 15 10 -21.5
    endloop
  endfacet
  facet normal -1 0 0
    outer loop
      vertex 15 -10 -21.5
      vertex 15 -3.40975 -20.1416
      vertex 15 0 -20.5
    endloop
  endfacet
  facet normal -1 0 0
    outer loop
      vertex 15 -10 -21.5
      vertex 15 -4.26219 -20.052
      vertex 15 -3.40975 -20.1416
    endloop
  endfacet
  facet normal -1 0 0
    outer loop
      vertex 15 -10 -21.5
      vertex 15 -8.3381 -18.7277
      vertex 15 -4.26219 -20.052
    endloop
  endfacet
  facet normal -1 -0 0
    outer loop
      vertex 15 -8.3381 -18.7277
      vertex 15 -10 -21.5
      vertex 15 -10 -17.7682
    endloop
  endfacet
  facet normal 0 1 -0
    outer loop
      vertex 15 -10 -21.5
      vertex -15 -10 -17.7682
      vertex 15 -10 -17.7682
    endloop
  endfacet
  facet normal 0 1 0
    outer loop
      vertex -15 -10 -17.7682
      vertex 15 -10 -21.5
      vertex -15 -10 -21.5
    endloop
  endfacet
  facet normal 0 -1 0
    outer loop
      vertex -15 10 -21.5
      vertex 15 10 -17.7682
      vertex -15 10 -17.7682
    endloop
  endfacet
  facet normal 0 -1 -0
    outer loop
      vertex 15 10 -17.7682
      vertex -15 10 -21.5
      vertex 15 10 -21.5
    endloop
  endfacet
endsolid OpenSCAD_Model
